<svg version="1.1" id="Layer_1" xmlns="http://www.w3.org/2000/svg" xmlns:xlink="http://www.w3.org/1999/xlink" x="0px" y="0px"
	 width="1707.171px" height="1105.509px" viewBox="-18.773 2.367 1707.171 1105.509"
	 enable-background="new -18.773 2.367 1707.171 1105.509" xml:space="preserve">
<rect x="-72.778" y="-4.099" fill="#292931" stroke="#000000" stroke-width="1.3315" stroke-miterlimit="10" width="1863.186" height="1156.979"/>
<g transform="translate(415.86636,165.8569) scale(0.91532,0.91532)"><g id="linksLayer" fill="none" fill-rule="nonzero" stroke-opacity="0.6" stroke="#bfbfbf" stroke-width="3.5" stroke-linecap="butt" stroke-linejoin="miter" stroke-miterlimit="10" stroke-dasharray="" stroke-dashoffset="0" font-family="none" font-weight="none" font-size="none" text-anchor="none" style="mix-blend-mode: normal"><path d="M1000,249.24062c-166.39843,-13.37253 -333.0651,-20.0784 -500,-20.1176" data-paper-data="{&quot;index&quot;:70}"/><path d="M1000,862.98393c-164.25448,-66.97137 -330.92115,-127.27607 -500,-180.91411" data-paper-data="{&quot;index&quot;:71}"/><path d="M1000,547.57831c-165.30268,-40.76639 -331.96934,-74.86612 -500,-102.29918" data-paper-data="{&quot;index&quot;:72}"/><path d="M1000,248.84377c-166.40372,-13.24025 -333.07039,-19.81383 -500,-19.72075" data-paper-data="{&quot;index&quot;:73}"/><path d="M1000,629.92832c-168.81955,47.15543 -335.48622,100.97752 -500,161.46629" data-paper-data="{&quot;index&quot;:74}"/><path d="M1000,825.93349c-166.12584,-20.1874 -332.7925,-33.70813 -500,-40.56219" data-paper-data="{&quot;index&quot;:75}"/><path d="M1000,462.44533c-168.3183,34.62405 -334.98496,75.91476 -500,123.87214" data-paper-data="{&quot;index&quot;:76}"/><path d="M1000,397.41713c-163.8079,-78.13588 -330.47456,-149.60508 -500,-214.40763" data-paper-data="{&quot;index&quot;:77}"/><path d="M1000,393.64256c-168.43008,37.41869 -335.09675,81.50404 -500,132.25606" data-paper-data="{&quot;index&quot;:78}"/><path d="M1000,976.82954c-165.74819,-29.62859 -332.41486,-52.59051 -500,-68.88577" data-paper-data="{&quot;index&quot;:79}"/><path d="M1000,392.79767c-166.85816,-1.87944 -333.52482,2.90779 -500,14.36169" data-paper-data="{&quot;index&quot;:80}"/><path d="M1000,247.22068c-165.81052,-28.07039 -332.47718,-49.47412 -500,-64.21118" data-paper-data="{&quot;index&quot;:81}"/><path d="M1000,-118.10806c-168.52669,39.83388 -335.19336,86.33442 -500,139.50163" data-paper-data="{&quot;index&quot;:82}"/><path d="M1000,943.11137c-165.60237,-33.27417 -332.26903,-59.88166 -500,-79.8225" data-paper-data="{&quot;index&quot;:83}"/><path d="M1000,414.07148c-170.12551,79.80445 -336.79218,166.27556 -500,259.41334" data-paper-data="{&quot;index&quot;:84}"/><path d="M1000,813.85283c-166.0704,-21.57342 -332.73706,-36.48018 -500,-44.72027" data-paper-data="{&quot;index&quot;:85}"/><path d="M1000,435.13793c-168.97961,51.1569 -335.64628,108.98046 -500,173.4707" data-paper-data="{&quot;index&quot;:86}"/><path d="M1000,745.8321c-165.78669,-28.66604 -332.45336,-50.66541 -500,-65.99811" data-paper-data="{&quot;index&quot;:87}"/><path d="M1000,869.76322c-165.02231,-47.77566 -331.68897,-88.88465 -500,-123.32698" data-paper-data="{&quot;index&quot;:88}"/><path d="M1000,703.0909c-167.84405,22.7679 -334.51072,52.20247 -500,88.30371" data-paper-data="{&quot;index&quot;:89}"/><path d="M1000,819.25002c-166.90681,-0.66311 -333.57348,5.34044 -500,18.01066" data-paper-data="{&quot;index&quot;:90}"/><path d="M1000,687.85851c-165.59552,-33.44536 -332.26219,-60.22406 -500,-80.33609" data-paper-data="{&quot;index&quot;:91}"/><path d="M1000,508.54978c-169.37806,61.11811 -336.04472,128.90288 -500,203.35432" data-paper-data="{&quot;index&quot;:92}"/><path d="M1000,44.1585c-168.28088,33.68859 -334.94754,74.04384 -500,121.06576" data-paper-data="{&quot;index&quot;:93}"/><path d="M1000,669.45617c-166.25197,-17.03399 -332.91864,-27.40131 -500,-31.10196" data-paper-data="{&quot;index&quot;:94}"/><path d="M1000,184.2362c-166.5838,-8.73825 -333.25047,-10.80984 -500,-6.21475" data-paper-data="{&quot;index&quot;:95}"/><path d="M1000,426.6316c-166.59151,-8.54565 -333.25817,-10.42464 -500,-5.63696" data-paper-data="{&quot;index&quot;:96}"/><path d="M1000,930.28809c-165.6646,-31.71821 -332.33127,-56.76976 -500,-75.15463" data-paper-data="{&quot;index&quot;:97}"/><path d="M1000,508.54978c-164.11206,-70.53178 -330.77873,-134.39688 -500,-191.59533" data-paper-data="{&quot;index&quot;:98}"/><path d="M1000,670.1865c-166.7953,-3.45084 -333.46197,-0.235 -500,9.64749" data-paper-data="{&quot;index&quot;:99}"/><path d="M1000,397.41713c-169.48255,63.7305 -336.14922,134.12767 -500,211.1915" data-paper-data="{&quot;index&quot;:100}"/><path d="M1000,456.2442c-169.35342,60.5021 -336.02008,127.67086 -500,201.50629" data-paper-data="{&quot;index&quot;:101}"/><path d="M1000,547.57831c-167.48669,13.83399 -334.15336,34.33465 -500,61.50198" data-paper-data="{&quot;index&quot;:102}"/><path d="M1000,672.67648c-166.79191,-3.53555 -333.45858,-0.40444 -500,9.39334" data-paper-data="{&quot;index&quot;:103}"/><path d="M1000,681.80367c-167.06801,3.36681 -333.73467,13.40029 -500,30.10043" data-paper-data="{&quot;index&quot;:104}"/><path d="M1000,397.41713c-171.83939,122.65139 -338.50606,251.96945 -500,387.95417" data-paper-data="{&quot;index&quot;:105}"/><path d="M1000,670.09072c-165.54969,-34.59109 -332.21636,-62.5155 -500,-83.77326" data-paper-data="{&quot;index&quot;:106}"/><path d="M1000,218.74496c-166.80504,-3.20731 -333.47171,0.25204 -500,10.37806" data-paper-data="{&quot;index&quot;:107}"/><path d="M1000,430.43681c-169.09974,54.16027 -335.76641,114.9872 -500,182.4808" data-paper-data="{&quot;index&quot;:108}"/><path d="M1000,577.61158c-167.94498,25.29108 -334.61164,57.24883 -500,95.87324" data-paper-data="{&quot;index&quot;:109}"/><path d="M1000,508.54978c-170.43793,87.61494 -337.1046,181.89655 -500,282.84482" data-paper-data="{&quot;index&quot;:110}"/><path d="M1000,86.67803c-166.28924,-16.10243 -332.9559,-25.53819 -500,-28.30729" data-paper-data="{&quot;index&quot;:111}"/><path d="M1000,397.41713c-167.23418,7.52128 -333.90085,21.70922 -500,42.56384" data-paper-data="{&quot;index&quot;:112}"/><path d="M1000,-132.75461c-168.72198,44.71606 -335.38864,96.09879 -500,154.14818" data-paper-data="{&quot;index&quot;:113}"/><path d="M1000,288.5545c-166.90237,-0.77418 -333.56903,5.11831 -500,17.67747" data-paper-data="{&quot;index&quot;:114}"/><path d="M1000,879.13446c-166.34665,-14.667 -333.01332,-22.66734 -500,-24.001" data-paper-data="{&quot;index&quot;:115}"/><path d="M1000,44.1585c-166.36313,-14.25498 -333.0298,-21.84329 -500,-22.76493" data-paper-data="{&quot;index&quot;:116}"/><path d="M1000,943.11137c-166.19777,-18.3892 -332.86443,-30.11173 -500,-35.1676" data-paper-data="{&quot;index&quot;:117}"/><path d="M1000,616.65335c-168.71648,44.57875 -335.38315,95.82417 -500,153.73625" data-paper-data="{&quot;index&quot;:118}"/><path d="M1000,745.8321c-165.8165,-27.92076 -332.48317,-49.17486 -500,-63.76229" data-paper-data="{&quot;index&quot;:119}"/><path d="M1000,-72.0211c-168.14665,30.33286 -334.81331,67.33239 -500,110.99858" data-paper-data="{&quot;index&quot;:120}"/><path d="M1000,808.87642c-167.13687,5.08833 -333.80353,16.84333 -500,35.265" data-paper-data="{&quot;index&quot;:121}"/><path d="M1000,362.72568c-170.34171,85.20951 -337.00838,177.08569 -500,275.62853" data-paper-data="{&quot;index&quot;:122}"/><path d="M1000,994.86272c-165.50775,-35.63965 -332.17441,-64.61263 -500,-86.91895" data-paper-data="{&quot;index&quot;:123}"/><path d="M1000,276.00628c-168.41537,37.05103 -335.08204,80.76872 -500,131.15309" data-paper-data="{&quot;index&quot;:124}"/><path d="M1000,261.03929c-167.4122,11.97172 -334.07887,30.61011 -500,55.91517" data-paper-data="{&quot;index&quot;:125}"/><path d="M1000,184.2362c-164.72988,-55.08624 -331.39655,-103.50581 -500,-145.25872" data-paper-data="{&quot;index&quot;:126}"/><path d="M1000,635.07268c-166.26398,-16.73394 -332.93064,-26.80122 -500,-30.20183" data-paper-data="{&quot;index&quot;:127}"/><path d="M1000,362.72568c-165.91342,-25.4979 -332.58008,-44.32914 -500,-56.49371" data-paper-data="{&quot;index&quot;:128}"/><path d="M1000,122.52265c-165.55273,-34.51505 -332.2194,-62.36344 -500,-83.54516" data-paper-data="{&quot;index&quot;:129}"/><path d="M1000,211.71777c-166.21738,-17.89877 -332.88405,-29.13088 -500,-33.69632" data-paper-data="{&quot;index&quot;:130}"/><path d="M1000,223.22231c-165.89336,-25.99935 -332.56003,-45.33204 -500,-57.99805" data-paper-data="{&quot;index&quot;:131}"/><path d="M1000,672.67648c-166.20904,-18.10742 -332.8757,-29.54818 -500,-34.32227" data-paper-data="{&quot;index&quot;:132}"/><path d="M1000,621.04831c-166.5008,-10.81323 -333.16747,-14.95979 -500,-12.43969" data-paper-data="{&quot;index&quot;:133}"/><path d="M1000,171.69237c-165.15571,-44.44054 -331.82238,-82.21442 -500,-113.32163" data-paper-data="{&quot;index&quot;:134}"/><path d="M1000,247.22068c-167.45348,13.00376 -334.12015,32.67419 -500,59.01129" data-paper-data="{&quot;index&quot;:135}"/><path d="M1000,303.42419c-168.0498,27.91172 -334.71647,62.49011 -500,103.73517" data-paper-data="{&quot;index&quot;:136}"/><path d="M1000,617.23436c-166.25444,-16.9723 -332.92111,-27.27793 -500,-30.9169" data-paper-data="{&quot;index&quot;:137}"/><path d="M1000,208.51625c-168.11251,29.4794 -334.77918,65.62547 -500,108.4382" data-paper-data="{&quot;index&quot;:138}"/><path d="M1000,192.22871c-167.15859,5.63144 -333.82526,17.92954 -500,36.89431" data-paper-data="{&quot;index&quot;:139}"/><path d="M1000,669.45617c-166.83485,-2.46212 -333.50152,1.74243 -500,12.61365" data-paper-data="{&quot;index&quot;:140}"/><path d="M1000,896.22412c-166.00802,-23.13272 -332.67469,-39.59877 -500,-49.39816" data-paper-data="{&quot;index&quot;:141}"/><path d="M1000,663.46273c-165.88544,-26.19729 -332.55211,-45.72792 -500,-58.59188" data-paper-data="{&quot;index&quot;:142}"/><path d="M1000,-9.91274c-167.31854,9.63007 -333.9852,25.92682 -500,48.89022" data-paper-data="{&quot;index&quot;:143}"/><path d="M1000,206.05109c-166.97429,1.02398 -333.64096,8.71462 -500,23.07193" data-paper-data="{&quot;index&quot;:144}"/><path d="M1000,846.16028c-165.65639,-31.92356 -332.32306,-57.18045 -500,-75.77068" data-paper-data="{&quot;index&quot;:145}"/><path d="M1000,352.82943c-168.97426,51.02306 -335.64092,108.71279 -500,173.06918" data-paper-data="{&quot;index&quot;:146}"/><path d="M1000,326.36099c-167.15622,5.57211 -333.82288,17.81088 -500,36.71632" data-paper-data="{&quot;index&quot;:147}"/><path d="M1000,631.47657c-167.13576,5.06064 -333.80243,16.78794 -500,35.18192" data-paper-data="{&quot;index&quot;:148}"/><path d="M1000,352.39943c-167.89628,24.07372 -334.56295,54.81411 -500,92.22117" data-paper-data="{&quot;index&quot;:149}"/><path d="M1000,915.01033c-165.97705,-23.90715 -332.64371,-41.14764 -500,-51.72146" data-paper-data="{&quot;index&quot;:150}"/><path d="M1000,261.91534c-163.95274,-74.51487 -330.61941,-142.36307 -500,-203.5446" data-paper-data="{&quot;index&quot;:151}"/><path d="M1000,621.04831c-166.45097,-12.05915 -333.11763,-17.45164 -500,-16.17746" data-paper-data="{&quot;index&quot;:152}"/><path d="M1000,621.04831c-167.15603,5.56739 -333.8227,17.80145 -500,36.70218" data-paper-data="{&quot;index&quot;:153}"/><path d="M1000,815.72363c-166.58287,-8.76151 -333.24954,-10.85636 -500,-6.28454" data-paper-data="{&quot;index&quot;:154}"/><path d="M-12.96434,771.48675l52.14786,-0.39201c52.14786,-0.39201 156.44357,-1.17604 241.93763,-32.03759c85.49406,-30.86155 152.18646,-91.80062 185.53266,-122.27015l33.3462,-30.46953" data-paper-data="{&quot;index&quot;:3}"/><path d="M-12.96434,771.48675l52.14786,-0.39201c52.14786,-0.39201 156.44357,-1.17604 241.93763,1.13805c85.49406,2.31409 152.18646,7.7263 185.53266,10.4324l33.3462,2.7061" data-paper-data="{&quot;index&quot;:5}"/><path d="M-12.96434,771.48675l52.14786,-0.39201c52.14786,-0.39201 156.44357,-1.17604 241.93763,-28.91364c85.49406,-27.7376 152.18646,-82.42876 185.53266,-109.77435l33.3462,-27.34558" data-paper-data="{&quot;index&quot;:7}"/><path d="M-12.96434,771.48675l52.14786,-0.39201c52.14786,-0.39201 156.44357,-1.17604 241.93763,-28.32239c85.49406,-27.14635 152.18646,-80.65504 185.53266,-107.40938l33.3462,-26.75434" data-paper-data="{&quot;index&quot;:10}"/><path d="M-12.96434,771.48675l52.14786,-0.39201c52.14786,-0.39201 156.44357,-1.17604 241.93763,10.93307c85.49406,12.10911 152.18646,37.11136 185.53266,49.61248l33.3462,12.50112" data-paper-data="{&quot;index&quot;:11}"/><path d="M-12.96434,771.48675l52.14786,-0.39201c52.14786,-0.39201 156.44357,-1.17604 241.93763,12.76508c85.49406,13.94112 152.18646,42.60738 185.53266,56.94051l33.3462,14.33313" data-paper-data="{&quot;index&quot;:12}"/><path d="M-12.96434,771.48675l52.14786,-0.39201c52.14786,-0.39201 156.44357,-1.17604 241.93763,-28.24378c85.49406,-27.06774 152.18646,-80.4192 185.53266,-107.09494l33.3462,-26.67573" data-paper-data="{&quot;index&quot;:16}"/><path d="M-12.96434,771.48675l52.14786,-0.39201c52.14786,-0.39201 156.44357,-1.17604 241.93763,-28.50343c85.49406,-27.32739 152.18646,-81.19814 185.53266,-108.13351l33.3462,-26.93538" data-paper-data="{&quot;index&quot;:17}"/><path d="M-12.96434,771.48675l52.14786,-0.39201c52.14786,-0.39201 156.44357,-1.17604 241.93763,0.07279c85.49406,1.24883 152.18646,4.53052 185.53266,6.17136l33.3462,1.64084" data-paper-data="{&quot;index&quot;:18}"/><path d="M-12.96434,771.48675l52.14786,-0.39201c52.14786,-0.39201 156.44357,-1.17604 241.93763,-28.94536c85.49406,-27.76932 152.18646,-82.52392 185.53266,-109.90123l33.3462,-27.3773" data-paper-data="{&quot;index&quot;:19}"/><path d="M-12.96434,771.48675l52.14786,-0.39201c52.14786,-0.39201 156.44357,-1.17604 241.93763,-27.936c85.49406,-26.75996 152.18646,-79.49586 185.53266,-105.86381l33.3462,-26.36795" data-paper-data="{&quot;index&quot;:22}"/><path d="M-12.96434,771.48675l52.14786,-0.39201c52.14786,-0.39201 156.44357,-1.17604 241.93763,-17.5097c85.49406,-16.33366 152.18646,-48.21694 185.53266,-64.15859l33.3462,-15.94164" data-paper-data="{&quot;index&quot;:23}"/><path d="M-12.96434,771.48675l52.14786,-0.39201c52.14786,-0.39201 156.44357,-1.17604 241.93763,21.5668c85.49406,22.74284 152.18646,69.01253 185.53266,92.14738l33.3462,23.13485" data-paper-data="{&quot;index&quot;:26}"/><path d="M-12.96434,771.48675l52.14786,-0.39201c52.14786,-0.39201 156.44357,-1.17604 241.93763,14.12431c85.49406,15.30035 152.18646,46.68509 185.53266,62.37745l33.3462,15.69237" data-paper-data="{&quot;index&quot;:27}"/><path d="M-12.96434,771.48675l52.14786,-0.39201c52.14786,-0.39201 156.44357,-1.17604 241.93763,-16.07886c85.49406,-14.90282 152.18646,-43.92444 185.53266,-58.43525l33.3462,-14.51081" data-paper-data="{&quot;index&quot;:28}"/><path d="M-12.96434,771.48675l52.14786,-0.39201c52.14786,-0.39201 156.44357,-1.17604 241.93763,-91.57c85.49406,-90.39396 152.18646,-270.39784 185.53266,-360.39978l33.3462,-90.00194" data-paper-data="{&quot;index&quot;:29}"/><path d="M-12.96434,771.48675l52.14786,-0.39201c52.14786,-0.39201 156.44357,-1.17604 241.93763,-61.89727c85.49406,-60.72123 152.18646,-181.37967 185.53266,-241.70889l33.3462,-60.32922" data-paper-data="{&quot;index&quot;:33}"/><path d="M-12.96434,771.48675l52.14786,-0.39201c52.14786,-0.39201 156.44357,-1.17604 241.93763,-1.3589c85.49406,-0.18286 152.18646,0.23545 185.53266,0.44461l33.3462,0.20915" data-paper-data="{&quot;index&quot;:38}"/><path d="M-12.96434,771.48675l52.14786,-0.39201c52.14786,-0.39201 156.44357,-1.17604 241.93763,-31.65322c85.49406,-30.47718 152.18646,-90.64751 185.53266,-120.73267l33.3462,-30.08516" data-paper-data="{&quot;index&quot;:40}"/><path d="M-12.96434,771.48675l52.14786,-0.39201c52.14786,-0.39201 156.44357,-1.17604 241.93763,-27.60423c85.49406,-26.42819 152.18646,-78.50055 185.53266,-104.53673l33.3462,-26.03618" data-paper-data="{&quot;index&quot;:41}"/><path d="M-12.96434,771.48675l52.14786,-0.39201c52.14786,-0.39201 156.44357,-1.17604 241.93763,-18.64742c85.49406,-17.47138 152.18646,-51.63011 185.53266,-68.70947l33.3462,-17.07936" data-paper-data="{&quot;index&quot;:43}"/><path d="M-12.96434,771.48675l52.14786,-0.39201c52.14786,-0.39201 156.44357,-1.17604 241.93763,-20.13208c85.49406,-18.95604 152.18646,-56.0841 185.53266,-74.64814l33.3462,-18.56403" data-paper-data="{&quot;index&quot;:45}"/><path d="M-12.96434,771.48675l52.14786,-0.39201c52.14786,-0.39201 156.44357,-1.17604 241.93763,-16.4515c85.49406,-15.27546 152.18646,-45.04235 185.53266,-59.9258l33.3462,-14.88345" data-paper-data="{&quot;index&quot;:46}"/><path d="M-12.96434,771.48675l52.14786,-0.39201c52.14786,-0.39201 156.44357,-1.17604 241.93763,-42.1074c85.49406,-40.93136 152.18646,-122.01004 185.53266,-162.54939l33.3462,-40.53934" data-paper-data="{&quot;index&quot;:47}"/><path d="M-12.96434,771.48675l52.14786,-0.39201c52.14786,-0.39201 156.44357,-1.17604 241.93763,9.78628c85.49406,10.96232 152.18646,33.67099 185.53266,45.02533l33.3462,11.35433" data-paper-data="{&quot;index&quot;:48}"/><path d="M-12.96434,771.48675l52.14786,-0.39201c52.14786,-0.39201 156.44357,-1.17604 241.93763,-11.10648c85.49406,-9.93044 152.18646,-29.0073 185.53266,-38.54573l33.3462,-9.53843" data-paper-data="{&quot;index&quot;:50}"/><path d="M-12.96434,771.48675l52.14786,-0.39201c52.14786,-0.39201 156.44357,-1.17604 241.93763,11.38049c85.49406,12.55653 152.18646,38.45363 185.53266,51.40218l33.3462,12.94855" data-paper-data="{&quot;index&quot;:52}"/><path d="M-12.96434,771.48675l52.14786,-0.39201c52.14786,-0.39201 156.44357,-1.17604 241.93763,-2.27815c85.49406,-1.10211 152.18646,-2.52229 185.53266,-3.23238l33.3462,-0.71009" data-paper-data="{&quot;index&quot;:53}"/><path d="M-12.96434,771.48675l52.14786,-0.39201c52.14786,-0.39201 156.44357,-1.17604 241.93763,-5.35113c85.49406,-4.17509 152.18646,-11.74123 185.53266,-15.5243l33.3462,-3.78307" data-paper-data="{&quot;index&quot;:55}"/><path d="M-12.96434,771.48675l52.14786,-0.39201c52.14786,-0.39201 156.44357,-1.17604 241.93763,-1.56841c85.49406,-0.39237 152.18646,-0.39307 185.53266,-0.39343l33.3462,-0.00035" data-paper-data="{&quot;index&quot;:56}"/><path d="M-12.96434,771.48675l52.14786,-0.39201c52.14786,-0.39201 156.44357,-1.17604 241.93763,5.1456c85.49406,6.32164 152.18646,19.74894 185.53266,26.46259l33.3462,6.71365" data-paper-data="{&quot;index&quot;:61}"/><path d="M-12.96434,771.48675l52.14786,-0.39201c52.14786,-0.39201 156.44357,-1.17604 241.93763,-69.24428c85.49406,-68.06824 152.18646,-203.4207 185.53266,-271.09692l33.3462,-67.67623" data-paper-data="{&quot;index&quot;:62}"/><path d="M-12.96434,771.48675l52.14786,-0.39201c52.14786,-0.39201 156.44357,-1.17604 241.93763,5.14935c85.49406,6.32539 152.18646,19.7602 185.53266,26.4776l33.3462,6.7174" data-paper-data="{&quot;index&quot;:64}"/><path d="M-12.96434,771.48675l52.14786,-0.39201c52.14786,-0.39201 156.44357,-1.17604 241.93763,2.14194c85.49406,3.31798 152.18646,10.73795 185.53266,14.44794l33.3462,3.70999" data-paper-data="{&quot;index&quot;:68}"/><path d="M0,504.2964l46.27642,1.37523c46.27642,1.37523 138.82927,4.1257 222.1626,31.18605c83.33333,27.06035 157.44715,78.43058 194.50406,104.1157l37.05691,25.68512" data-paper-data="{&quot;index&quot;:0}"/><path d="M0,504.2964l46.27642,1.37523c46.27642,1.37523 138.82927,4.1257 222.1626,7.72607c83.33333,3.60037 157.44715,8.05064 194.50406,10.27578l37.05691,2.22514" data-paper-data="{&quot;index&quot;:2}"/><path d="M0,504.2964l46.27642,1.37523c46.27642,1.37523 138.82927,4.1257 222.1626,18.18025c83.33333,14.05455 157.44715,39.41318 194.50406,52.0925l37.05691,12.67932" data-paper-data="{&quot;index&quot;:4}"/><path d="M0,504.2964l46.27642,1.37523c46.27642,1.37523 138.82927,4.1257 222.1626,21.33004c83.33333,17.20434 157.44715,48.86255 194.50406,64.69165l37.05691,15.82911" data-paper-data="{&quot;index&quot;:9}"/><path d="M0,504.2964l46.27642,1.37523c46.27642,1.37523 138.82927,4.1257 222.1626,-28.88504c83.33333,-33.01074 157.44715,-101.78268 194.50406,-136.16865l37.05691,-34.38597" data-paper-data="{&quot;index&quot;:13}"/><path d="M0,504.2964l46.27642,1.37523c46.27642,1.37523 138.82927,4.1257 222.1626,48.47457c83.33333,44.34887 157.44715,130.29614 194.50406,173.26977l37.05691,42.97364" data-paper-data="{&quot;index&quot;:14}"/><path d="M0,504.2964l46.27642,1.37523c46.27642,1.37523 138.82927,4.1257 222.1626,-9.75793c83.33333,-13.88363 157.44715,-44.40134 194.50406,-59.6602l37.05691,-15.25886" data-paper-data="{&quot;index&quot;:15}"/><path d="M0,504.2964l46.27642,1.37523c46.27642,1.37523 138.82927,4.1257 222.1626,22.22923c83.33333,18.10353 157.44715,51.56014 194.50406,68.28844l37.05691,16.7283" data-paper-data="{&quot;index&quot;:20}"/><path d="M0,504.2964l46.27642,1.37523c46.27642,1.37523 138.82927,4.1257 222.1626,-19.41082c83.33333,-23.53651 157.44715,-73.36001 194.50406,-98.27176l37.05691,-24.91175" data-paper-data="{&quot;index&quot;:21}"/><path d="M0,504.2964l46.27642,1.37523c46.27642,1.37523 138.82927,4.1257 222.1626,20.88811c83.33333,16.76241 157.44715,47.53676 194.50406,62.92394l37.05691,15.38718" data-paper-data="{&quot;index&quot;:24}"/><path d="M0,504.2964l46.27642,1.37523c46.27642,1.37523 138.82927,4.1257 222.1626,21.51107c83.33333,17.38537 157.44715,49.40565 194.50406,65.41579l37.05691,16.01014" data-paper-data="{&quot;index&quot;:30}"/><path d="M0,504.2964l46.27642,1.37523c46.27642,1.37523 138.82927,4.1257 222.1626,33.38196c83.33333,29.25627 157.44715,85.01833 194.50406,112.89937l37.05691,27.88103" data-paper-data="{&quot;index&quot;:34}"/><path d="M0,504.2964l46.27642,1.37523c46.27642,1.37523 138.82927,4.1257 222.1626,-6.59354c83.33333,-10.71924 157.44715,-34.90818 194.50406,-47.00265l37.05691,-12.09447" data-paper-data="{&quot;index&quot;:36}"/><path d="M0,504.2964l46.27642,1.37523c46.27642,1.37523 138.82927,4.1257 222.1626,32.32377c83.33333,28.19807 157.44715,81.84374 194.50406,108.66658l37.05691,26.82284" data-paper-data="{&quot;index&quot;:37}"/><path d="M0,504.2964l46.27642,1.37523c46.27642,1.37523 138.82927,4.1257 222.1626,-12.32885c83.33333,-16.45455 157.44715,-52.11412 194.50406,-69.94391l37.05691,-17.82978" data-paper-data="{&quot;index&quot;:39}"/><path d="M0,504.2964l46.27642,1.37523c46.27642,1.37523 138.82927,4.1257 222.1626,-41.73653c83.33333,-45.86223 157.44715,-140.33715 194.50406,-187.57462l37.05691,-47.23746" data-paper-data="{&quot;index&quot;:42}"/><path d="M0,504.2964l46.27642,1.37523c46.27642,1.37523 138.82927,4.1257 222.1626,26.46867c83.33333,22.34297 157.44715,64.27844 194.50406,85.24618l37.05691,20.96774" data-paper-data="{&quot;index&quot;:44}"/><path d="M0,504.2964l46.27642,1.37523c46.27642,1.37523 138.82927,4.1257 222.1626,29.70138c83.33333,25.57568 157.44715,73.97658 194.50406,98.17703l37.05691,24.20045" data-paper-data="{&quot;index&quot;:49}"/><path d="M0,504.2964l46.27642,1.37523c46.27642,1.37523 138.82927,4.1257 222.1626,47.55532c83.33333,43.42962 157.44715,127.5384 194.50406,169.59279l37.05691,42.05439" data-paper-data="{&quot;index&quot;:51}"/><path d="M0,504.2964l46.27642,1.37523c46.27642,1.37523 138.82927,4.1257 222.1626,-5.71051c83.33333,-9.83621 157.44715,-32.25909 194.50406,-43.47054l37.05691,-11.21144" data-paper-data="{&quot;index&quot;:54}"/><path d="M0,504.2964l46.27642,1.37523c46.27642,1.37523 138.82927,4.1257 222.1626,20.91983c83.33333,16.79413 157.44715,47.63192 194.50406,63.05082l37.05691,15.4189" data-paper-data="{&quot;index&quot;:57}"/><path d="M0,504.2964l46.27642,1.37523c46.27642,1.37523 138.82927,4.1257 222.1626,54.97906c83.33333,50.85336 157.44715,149.80962 194.50406,199.28775l37.05691,49.47813" data-paper-data="{&quot;index&quot;:60}"/><path d="M0,504.2964l46.27642,1.37523c46.27642,1.37523 138.82927,4.1257 222.1626,-5.7314c83.33333,-9.8571 157.44715,-32.32176 194.50406,-43.55409l37.05691,-11.23233" data-paper-data="{&quot;index&quot;:63}"/><path d="M0,504.2964l46.27642,1.37523c46.27642,1.37523 138.82927,4.1257 222.1626,-5.82027c83.33333,-9.94597 157.44715,-32.58836 194.50406,-43.90956l37.05691,-11.3212" data-paper-data="{&quot;index&quot;:65}"/><path d="M0,504.2964l46.27642,1.37523c46.27642,1.37523 138.82927,4.1257 222.1626,17.79588c83.33333,13.67018 157.44715,38.26007 194.50406,50.55502l37.05691,12.29495" data-paper-data="{&quot;index&quot;:66}"/><path d="M0,504.2964l46.27642,1.37523c46.27642,1.37523 138.82927,4.1257 222.1626,-52.38633c83.33333,-56.51202 157.44715,-172.28654 194.50406,-230.17379l37.05691,-57.88726" data-paper-data="{&quot;index&quot;:67}"/><path d="M0,504.2964l46.27642,1.37523c46.27642,1.37523 138.82927,4.1257 222.1626,-50.25346c83.33333,-54.37916 157.44715,-165.88794 194.50406,-221.64233l37.05691,-55.75439" data-paper-data="{&quot;index&quot;:69}"/><path d="M0,275.54841l48.55966,-5.40276c48.55966,-5.40276 145.67898,-16.20827 229.01231,-31.63142c83.33333,-15.42315 152.88068,-35.46394 187.65435,-45.48434l34.77367,-10.02039" data-paper-data="{&quot;index&quot;:1}"/><path d="M0,275.54841l48.55966,-5.40276c48.55966,-5.40276 145.67898,-16.20827 229.01231,5.72689c83.33333,21.93516 152.88068,76.61099 187.65435,103.94891l34.77367,27.33792" data-paper-data="{&quot;index&quot;:6}"/><path d="M0,275.54841l48.55966,-5.40276c48.55966,-5.40276 145.67898,-16.20827 229.01231,-1.62012c83.33333,14.58815 152.88068,54.56996 187.65435,74.56087l34.77367,19.99091" data-paper-data="{&quot;index&quot;:8}"/><path d="M0,275.54841l48.55966,-5.40276c48.55966,-5.40276 145.67898,-16.20827 229.01231,-37.19656c83.33333,-20.98828 152.88068,-52.15934 187.65435,-67.74487l34.77367,-15.58553" data-paper-data="{&quot;index&quot;:25}"/><path d="M0,275.54841l48.55966,-5.40276c48.55966,-5.40276 145.67898,-16.20827 229.01231,-58.56741c83.33333,-42.35914 152.88068,-116.27191 187.65435,-153.22829l34.77367,-36.95638" data-paper-data="{&quot;index&quot;:31}"/><path d="M0,275.54841l48.55966,-5.40276c48.55966,-5.40276 145.67898,-16.20827 229.01231,-9.30726c83.33333,6.90101 152.88068,31.50854 187.65435,43.8123l34.77367,12.30377" data-paper-data="{&quot;index&quot;:32}"/><path d="M0,275.54841l48.55966,-5.40276c48.55966,-5.40276 145.67898,-16.20827 229.01231,-52.40455c83.33333,-36.19628 152.88068,-97.78332 187.65435,-128.57684l34.77367,-30.79352" data-paper-data="{&quot;index&quot;:35}"/><path d="M0,275.54841l48.55966,-5.40276c48.55966,-5.40276 145.67898,-16.20827 229.01231,-55.63676c83.33333,-39.42849 152.88068,-107.47995 187.65435,-141.50568l34.77367,-34.02573" data-paper-data="{&quot;index&quot;:58}"/><path d="M0,275.54841l48.55966,-5.40276c48.55966,-5.40276 145.67898,-16.20827 229.01231,-43.01956c83.33333,-26.81129 152.88068,-69.62836 187.65435,-91.03689l34.77367,-21.40853" data-paper-data="{&quot;index&quot;:59}"/></g><g id="nodesLayer" fill="none" fill-rule="nonzero" stroke="none" stroke-width="1" stroke-linecap="butt" stroke-linejoin="miter" stroke-miterlimit="10" stroke-dasharray="" stroke-dashoffset="0" font-family="none" font-weight="none" font-size="none" text-anchor="none" style="mix-blend-mode: normal"><path d="M-52.13234,504.2964c0,-28.7919 23.34044,-52.13234 52.13234,-52.13234c28.7919,0 52.13234,23.34044 52.13234,52.13234c0,28.7919 -23.34044,52.13234 -52.13234,52.13234c-28.7919,0 -52.13234,-23.34044 -52.13234,-52.13234z" data-paper-data="{&quot;index&quot;:0,&quot;boundsWidth&quot;:20,&quot;boundsHeight&quot;:20}" fill="#7fc97f" stroke="#7fc97f"/><path d="M-33.7,275.54841c0,-18.612 15.088,-33.7 33.7,-33.7c18.612,0 33.7,15.088 33.7,33.7c0,18.612 -15.088,33.7 -33.7,33.7c-18.612,0 -33.7,-15.088 -33.7,-33.7z" data-paper-data="{&quot;index&quot;:1,&quot;boundsWidth&quot;:20,&quot;boundsHeight&quot;:20}" fill="#7fc97f" stroke="#7fc97f"/><path d="M-90.86434,771.48675c0,-43.02298 34.87702,-77.9 77.9,-77.9c43.02298,0 77.9,34.87702 77.9,77.9c0,43.02298 -34.87702,77.9 -77.9,77.9c-43.02298,0 -77.9,-34.87702 -77.9,-77.9z" data-paper-data="{&quot;index&quot;:2,&quot;boundsWidth&quot;:20,&quot;boundsHeight&quot;:20}" fill="#7fc97f" stroke="#7fc97f"/><path d="M498.21963,666.65849c0,-0.98327 0.7971,-1.78037 1.78037,-1.78037c0.98327,0 1.78037,0.7971 1.78037,1.78037c0,0.98327 -0.7971,1.78037 -1.78037,1.78037c-0.98327,0 -1.78037,-0.7971 -1.78037,-1.78037z" data-paper-data="{&quot;index&quot;:3,&quot;boundsWidth&quot;:20,&quot;boundsHeight&quot;:20}" fill="#d6b9ff" stroke="#beaed4"/><path d="M489.11534,183.0095c0,-6.01143 4.87323,-10.88466 10.88466,-10.88466c6.01143,0 10.88466,4.87323 10.88466,10.88466c0,6.01143 -4.87323,10.88466 -10.88466,10.88466c-6.01143,0 -10.88466,-4.87323 -10.88466,-10.88466z" data-paper-data="{&quot;index&quot;:4,&quot;boundsWidth&quot;:20,&quot;boundsHeight&quot;:20}" fill="#d3b4fe" stroke="#beaed4"/><path d="M414.2,525.89861c0,-47.38603 38.41397,-85.8 85.8,-85.8c47.38603,0 85.8,38.41397 85.8,85.8c0,47.38603 -38.41397,85.8 -85.8,85.8c-47.38603,0 -85.8,-38.41397 -85.8,-85.8z" data-paper-data="{&quot;index&quot;:5,&quot;boundsWidth&quot;:20,&quot;boundsHeight&quot;:20}" fill="#d5b7fe" stroke="#beaed4"/><path d="M498.47975,586.31746c0,-0.83961 0.68064,-1.52025 1.52025,-1.52025c0.83961,0 1.52025,0.68064 1.52025,1.52025c0,0.83961 -0.68064,1.52025 -1.52025,1.52025c-0.83961,0 -1.52025,-0.68064 -1.52025,-1.52025z" data-paper-data="{&quot;index&quot;:6,&quot;boundsWidth&quot;:20,&quot;boundsHeight&quot;:20}" fill="#d6b9ff" stroke="#beaed4"/><path d="M495.87853,588.62368c0,-2.27623 1.84525,-4.12147 4.12147,-4.12147c2.27623,0 4.12147,1.84525 4.12147,4.12147c0,2.27623 -1.84525,4.12147 -4.12147,4.12147c-2.27623,0 -4.12147,-1.84525 -4.12147,-4.12147z" data-paper-data="{&quot;index&quot;:7,&quot;boundsWidth&quot;:20,&quot;boundsHeight&quot;:20}" fill="#d8bcff" stroke="#beaed4"/><path d="M489.11534,785.37129c0,-6.01143 4.87323,-10.88466 10.88466,-10.88466c6.01143,0 10.88466,4.87323 10.88466,10.88466c0,6.01143 -4.87323,10.88466 -10.88466,10.88466c-6.01143,0 -10.88466,-4.87323 -10.88466,-10.88466z" data-paper-data="{&quot;index&quot;:8,&quot;boundsWidth&quot;:20,&quot;boundsHeight&quot;:20}" fill="#d5b7fe" stroke="#beaed4"/><path d="M484.17301,407.15936c0,-8.74101 7.08599,-15.82699 15.82699,-15.82699c8.74101,0 15.82699,7.08599 15.82699,15.82699c0,8.74101 -7.08599,15.82699 -15.82699,15.82699c-8.74101,0 -15.82699,-7.08599 -15.82699,-15.82699z" data-paper-data="{&quot;index&quot;:9,&quot;boundsWidth&quot;:20,&quot;boundsHeight&quot;:20}" fill="#d6b8ff" stroke="#beaed4"/><path d="M498.47975,605.06117c0,-0.83961 0.68064,-1.52025 1.52025,-1.52025c0.83961,0 1.52025,0.68064 1.52025,1.52025c0,0.83961 -0.68064,1.52025 -1.52025,1.52025c-0.83961,0 -1.52025,-0.68064 -1.52025,-1.52025z" data-paper-data="{&quot;index&quot;:10,&quot;boundsWidth&quot;:20,&quot;boundsHeight&quot;:20}" fill="#c9a4fd" stroke="#beaed4"/><path d="M451.65767,363.07731c0,-26.69873 21.6436,-48.34233 48.34233,-48.34233c26.69873,0 48.34233,21.6436 48.34233,48.34233c0,26.69873 -21.6436,48.34233 -48.34233,48.34233c-26.69873,0 -48.34233,-21.6436 -48.34233,-48.34233z" data-paper-data="{&quot;index&quot;:11,&quot;boundsWidth&quot;:20,&quot;boundsHeight&quot;:20}" fill="#d3b4fe" stroke="#beaed4"/><path d="M498.21963,607.52242c0,-0.98327 0.7971,-1.78037 1.78037,-1.78037c0.98327,0 1.78037,0.7971 1.78037,1.78037c0,0.98327 -0.7971,1.78037 -1.78037,1.78037c-0.98327,0 -1.78037,-0.7971 -1.78037,-1.78037z" data-paper-data="{&quot;index&quot;:12,&quot;boundsWidth&quot;:20,&quot;boundsHeight&quot;:20}" fill="#d9beff" stroke="#beaed4"/><path d="M498.21963,608.60863c0,-0.98327 0.7971,-1.78037 1.78037,-1.78037c0.98327,0 1.78037,0.7971 1.78037,1.78037c0,0.98327 -0.7971,1.78037 -1.78037,1.78037c-0.98327,0 -1.78037,-0.7971 -1.78037,-1.78037z" data-paper-data="{&quot;index&quot;:13,&quot;boundsWidth&quot;:20,&quot;boundsHeight&quot;:20}" fill="#d8bcff" stroke="#beaed4"/><path d="M487.81472,844.14142c0,-6.72974 5.45553,-12.18528 12.18528,-12.18528c6.72974,0 12.18528,5.45553 12.18528,12.18528c0,6.72974 -5.45553,12.18528 -12.18528,12.18528c-6.72974,0 -12.18528,-5.45553 -12.18528,-12.18528z" data-paper-data="{&quot;index&quot;:14,&quot;boundsWidth&quot;:20,&quot;boundsHeight&quot;:20}" fill="#8a45e9" stroke="#beaed4"/><path d="M497.95951,855.13346c0,-1.12693 0.91356,-2.04049 2.04049,-2.04049c1.12693,0 2.04049,0.91356 2.04049,2.04049c0,1.12693 -0.91356,2.04049 -2.04049,2.04049c-1.12693,0 -2.04049,-0.91356 -2.04049,-2.04049z" data-paper-data="{&quot;index&quot;:15,&quot;boundsWidth&quot;:20,&quot;boundsHeight&quot;:20}" fill="#dabfff" stroke="#beaed4"/><path d="M479.23067,306.23196c0,-11.47058 9.29874,-20.76933 20.76933,-20.76933c11.47058,0 20.76933,9.29874 20.76933,20.76933c0,11.47058 -9.29874,20.76933 -20.76933,20.76933c-11.47058,0 -20.76933,-9.29874 -20.76933,-20.76933z" data-paper-data="{&quot;index&quot;:16,&quot;boundsWidth&quot;:20,&quot;boundsHeight&quot;:20}" fill="#c9a4fd" stroke="#beaed4"/><path d="M497.69939,770.3896c0,-1.27059 1.03002,-2.30061 2.30061,-2.30061c1.27059,0 2.30061,1.03002 2.30061,2.30061c0,1.27059 -1.03002,2.30061 -2.30061,2.30061c-1.27059,0 -2.30061,-1.03002 -2.30061,-2.30061z" data-paper-data="{&quot;index&quot;:17,&quot;boundsWidth&quot;:20,&quot;boundsHeight&quot;:20.000000000000057}" fill="#d9beff" stroke="#beaed4"/><path d="M485.47362,420.99465c0,-8.0227 6.50368,-14.52638 14.52638,-14.52638c8.0227,0 14.52638,6.50368 14.52638,14.52638c0,8.0227 -6.50368,14.52638 -14.52638,14.52638c-8.0227,0 -14.52638,-6.50368 -14.52638,-14.52638z" data-paper-data="{&quot;index&quot;:18,&quot;boundsWidth&quot;:20,&quot;boundsHeight&quot;:20}" fill="#cdaafd" stroke="#beaed4"/><path d="M498.47975,609.08029c0,-0.83961 0.68064,-1.52025 1.52025,-1.52025c0.83961,0 1.52025,0.68064 1.52025,1.52025c0,0.83961 -0.68064,1.52025 -1.52025,1.52025c-0.83961,0 -1.52025,-0.68064 -1.52025,-1.52025z" data-paper-data="{&quot;index&quot;:19,&quot;boundsWidth&quot;:20,&quot;boundsHeight&quot;:20}" fill="#d2b2fe" stroke="#beaed4"/><path d="M493.01718,778.97974c0,-3.85651 3.12632,-6.98282 6.98282,-6.98282c3.85651,0 6.98282,3.12632 6.98282,6.98282c0,3.85651 -3.12632,6.98282 -6.98282,6.98282c-3.85651,0 -6.98282,-3.12632 -6.98282,-6.98282z" data-paper-data="{&quot;index&quot;:20,&quot;boundsWidth&quot;:20,&quot;boundsHeight&quot;:20}" fill="#d1b1fe" stroke="#beaed4"/><path d="M495.09816,604.87085c0,-2.70721 2.19463,-4.90184 4.90184,-4.90184c2.70721,0 4.90184,2.19463 4.90184,4.90184c0,2.70721 -2.19463,4.90184 -4.90184,4.90184c-2.70721,0 -4.90184,-2.19463 -4.90184,-4.90184z" data-paper-data="{&quot;index&quot;:21,&quot;boundsWidth&quot;:20,&quot;boundsHeight&quot;:20}" fill="#d4b6fe" stroke="#beaed4"/><path d="M488.33497,612.9176c0,-6.44242 5.22261,-11.66503 11.66503,-11.66503c6.44242,0 11.66503,5.22261 11.66503,11.66503c0,6.44242 -5.22261,11.66503 -11.66503,11.66503c-6.44242,0 -11.66503,-5.22261 -11.66503,-11.66503z" data-paper-data="{&quot;index&quot;:22,&quot;boundsWidth&quot;:20,&quot;boundsHeight&quot;:20}" fill="#d4b5fe" stroke="#beaed4"/><path d="M499,610.92698c0,-0.55228 0.44772,-1 1,-1c0.55228,0 1,0.44772 1,1c0,0.55228 -0.44772,1 -1,1c-0.55228,0 -1,-0.44772 -1,-1z" data-paper-data="{&quot;index&quot;:23,&quot;boundsWidth&quot;:20,&quot;boundsHeight&quot;:20}" fill="#d7bbff" stroke="#beaed4"/><path d="M498.21963,673.48482c0,-0.98327 0.7971,-1.78037 1.78037,-1.78037c0.98327,0 1.78037,0.7971 1.78037,1.78037c0,0.98327 -0.7971,1.78037 -1.78037,1.78037c-0.98327,0 -1.78037,-0.7971 -1.78037,-1.78037z" data-paper-data="{&quot;index&quot;:24,&quot;boundsWidth&quot;:20,&quot;boundsHeight&quot;:20}" fill="#d9beff" stroke="#beaed4"/><path d="M497.43926,149.6187c0,-1.41426 1.14648,-2.56074 2.56074,-2.56074c1.41426,0 2.56074,1.14648 2.56074,2.56074c0,1.41426 -1.14648,2.56074 -2.56074,2.56074c-1.41426,0 -2.56074,-1.14648 -2.56074,-2.56074z" data-paper-data="{&quot;index&quot;:25,&quot;boundsWidth&quot;:20,&quot;boundsHeight&quot;:20}" fill="#d8bbff" stroke="#beaed4"/><path d="M458.9411,907.94377c0,-22.6762 18.38269,-41.0589 41.0589,-41.0589c22.6762,0 41.0589,18.38269 41.0589,41.0589c0,22.6762 -18.38269,41.0589 -41.0589,41.0589c-22.6762,0 -41.0589,-18.38269 -41.0589,-41.0589z" data-paper-data="{&quot;index&quot;:26,&quot;boundsWidth&quot;:20,&quot;boundsHeight&quot;:20}" fill="#b787f9" stroke="#beaed4"/><path d="M493.2773,863.28887c0,-3.71284 3.00986,-6.7227 6.7227,-6.7227c3.71284,0 6.7227,3.00986 6.7227,6.7227c0,3.71284 -3.00986,6.7227 -6.7227,6.7227c-3.71284,0 -6.7227,-3.00986 -6.7227,-6.7227z" data-paper-data="{&quot;index&quot;:27,&quot;boundsWidth&quot;:20,&quot;boundsHeight&quot;:20}" fill="#d7bbff" stroke="#beaed4"/><path d="M497.43926,682.06982c0,-1.41426 1.14648,-2.56074 2.56074,-2.56074c1.41426,0 2.56074,1.14648 2.56074,2.56074c0,1.41426 -1.14648,2.56074 -2.56074,2.56074c-1.41426,0 -2.56074,-1.14648 -2.56074,-2.56074z" data-paper-data="{&quot;index&quot;:28,&quot;boundsWidth&quot;:20,&quot;boundsHeight&quot;:20}" fill="#d1b1fe" stroke="#beaed4"/><path d="M450.8773,229.12302c0,-27.12972 21.99298,-49.1227 49.1227,-49.1227c27.12972,0 49.1227,21.99298 49.1227,49.1227c0,27.12972 -21.99298,49.1227 -49.1227,49.1227c-27.12972,0 -49.1227,-21.99298 -49.1227,-49.1227z" data-paper-data="{&quot;index&quot;:29,&quot;boundsWidth&quot;:20,&quot;boundsHeight&quot;:20}" fill="#d0affe" stroke="#beaed4"/><path d="M483.39264,21.39357c0,-9.17199 7.43537,-16.60736 16.60736,-16.60736c9.17199,0 16.60736,7.43537 16.60736,16.60736c0,9.17199 -7.43537,16.60736 -16.60736,16.60736c-9.17199,0 -16.60736,-7.43537 -16.60736,-16.60736z" data-paper-data="{&quot;index&quot;:30,&quot;boundsWidth&quot;:20,&quot;boundsHeight&quot;:20}" fill="#d2b2fe" stroke="#beaed4"/><path d="M497.69939,316.95446c0,-1.27059 1.03002,-2.30061 2.30061,-2.30061c1.27059,0 2.30061,1.03002 2.30061,2.30061c0,1.27059 -1.03002,2.30061 -2.30061,2.30061c-1.27059,0 -2.30061,-1.03002 -2.30061,-2.30061z" data-paper-data="{&quot;index&quot;:31,&quot;boundsWidth&quot;:20,&quot;boundsHeight&quot;:20}" fill="#d8bcff" stroke="#beaed4"/><path d="M493.01718,679.83399c0,-3.85651 3.12632,-6.98282 6.98282,-6.98282c3.85651,0 6.98282,3.12632 6.98282,6.98282c0,3.85651 -3.12632,6.98282 -6.98282,6.98282c-3.85651,0 -6.98282,-3.12632 -6.98282,-6.98282z" data-paper-data="{&quot;index&quot;:32,&quot;boundsWidth&quot;:20,&quot;boundsHeight&quot;:20.000000000000057}" fill="#d9beff" stroke="#beaed4"/><path d="M486.25399,58.37074c0,-7.59171 6.1543,-13.74601 13.74601,-13.74601c7.59171,0 13.74601,6.1543 13.74601,13.74601c0,7.59171 -6.1543,13.74601 -13.74601,13.74601c-7.59171,0 -13.74601,-6.1543 -13.74601,-13.74601z" data-paper-data="{&quot;index&quot;:33,&quot;boundsWidth&quot;:20,&quot;boundsHeight&quot;:20}" fill="#d4b6fe" stroke="#beaed4"/><path d="M488.33497,439.98096c0,-6.44242 5.22261,-11.66503 11.66503,-11.66503c6.44242,0 11.66503,5.22261 11.66503,11.66503c0,6.44242 -5.22261,11.66503 -11.66503,11.66503c-6.44242,0 -11.66503,-5.22261 -11.66503,-11.66503z" data-paper-data="{&quot;index&quot;:34,&quot;boundsWidth&quot;:20,&quot;boundsHeight&quot;:20}" fill="#d1b0fe" stroke="#beaed4"/><path d="M493.2773,405.56908c0,-3.71284 3.00986,-6.7227 6.7227,-6.7227c3.71284,0 6.7227,3.00986 6.7227,6.7227c0,3.71284 -3.00986,6.7227 -6.7227,6.7227c-3.71284,0 -6.7227,-3.00986 -6.7227,-6.7227z" data-paper-data="{&quot;index&quot;:35,&quot;boundsWidth&quot;:20,&quot;boundsHeight&quot;:20}" fill="#dabfff" stroke="#beaed4"/><path d="M483.39264,638.35421c0,-9.17199 7.43537,-16.60736 16.60736,-16.60736c9.17199,0 16.60736,7.43537 16.60736,16.60736c0,9.17199 -7.43537,16.60736 -16.60736,16.60736c-9.17199,0 -16.60736,-7.43537 -16.60736,-16.60736z" data-paper-data="{&quot;index&quot;:36,&quot;boundsWidth&quot;:20,&quot;boundsHeight&quot;:20}" fill="#d8bcff" stroke="#beaed4"/><path d="M488.33497,657.75049c0,-6.44242 5.22261,-11.66503 11.66503,-11.66503c6.44242,0 11.66503,5.22261 11.66503,11.66503c0,6.44242 -5.22261,11.66503 -11.66503,11.66503c-6.44242,0 -11.66503,-5.22261 -11.66503,-11.66503z" data-paper-data="{&quot;index&quot;:37,&quot;boundsWidth&quot;:20,&quot;boundsHeight&quot;:20}" fill="#d8bbff" stroke="#beaed4"/><path d="M486.77423,837.26068c0,-7.30439 5.92138,-13.22577 13.22577,-13.22577c7.30439,0 13.22577,5.92138 13.22577,13.22577c0,7.30439 -5.92138,13.22577 -13.22577,13.22577c-7.30439,0 -13.22577,-5.92138 -13.22577,-13.22577z" data-paper-data="{&quot;index&quot;:38,&quot;boundsWidth&quot;:20,&quot;boundsHeight&quot;:20}" fill="#d3b4fe" stroke="#beaed4"/><path d="M462.06258,711.90411c0,-20.95226 16.98516,-37.93742 37.93742,-37.93742c20.95226,0 37.93742,16.98516 37.93742,37.93742c0,20.95226 -16.98516,37.93742 -37.93742,37.93742c-20.95226,0 -37.93742,-16.98516 -37.93742,-37.93742z" data-paper-data="{&quot;index&quot;:39,&quot;boundsWidth&quot;:20,&quot;boundsHeight&quot;:20}" fill="#d1b0fe" stroke="#beaed4"/><path d="M487.5546,764.87412c0,-6.8734 5.57199,-12.4454 12.4454,-12.4454c6.8734,0 12.4454,5.57199 12.4454,12.4454c0,6.8734 -5.57199,12.4454 -12.4454,12.4454c-6.8734,0 -12.4454,-5.57199 -12.4454,-12.4454z" data-paper-data="{&quot;index&quot;:40,&quot;boundsWidth&quot;:20,&quot;boundsHeight&quot;:20}" fill="#cdabfe" stroke="#beaed4"/><path d="M491.97669,846.82596c0,-4.43115 3.59216,-8.02331 8.02331,-8.02331c4.43115,0 8.02331,3.59216 8.02331,8.02331c0,4.43115 -3.59216,8.02331 -8.02331,8.02331c-4.43115,0 -8.02331,-3.59216 -8.02331,-8.02331z" data-paper-data="{&quot;index&quot;:41,&quot;boundsWidth&quot;:20,&quot;boundsHeight&quot;:20}" fill="#dbc1ff" stroke="#beaed4"/><path d="M497.43926,445.27914c0,-1.41426 1.14648,-2.56074 2.56074,-2.56074c1.41426,0 2.56074,1.14648 2.56074,2.56074c0,1.41426 -1.14648,2.56074 -2.56074,2.56074c-1.41426,0 -2.56074,-1.14648 -2.56074,-2.56074z" data-paper-data="{&quot;index&quot;:42,&quot;boundsWidth&quot;:20,&quot;boundsHeight&quot;:20}" fill="#d8bcff" stroke="#beaed4"/><path d="M497.95951,746.43624c0,-1.12693 0.91356,-2.04049 2.04049,-2.04049c1.12693,0 2.04049,0.91356 2.04049,2.04049c0,1.12693 -0.91356,2.04049 -2.04049,2.04049c-1.12693,0 -2.04049,-0.91356 -2.04049,-2.04049z" data-paper-data="{&quot;index&quot;:43,&quot;boundsWidth&quot;:20,&quot;boundsHeight&quot;:20}" fill="#cba6fd" stroke="#beaed4"/><path d="M491.45644,769.13255c0,-4.71848 3.82508,-8.54356 8.54356,-8.54356c4.71848,0 8.54356,3.82508 8.54356,8.54356c0,4.71848 -3.82508,8.54356 -8.54356,8.54356c-4.71848,0 -8.54356,-3.82508 -8.54356,-8.54356z" data-paper-data="{&quot;index&quot;:44,&quot;boundsWidth&quot;:20,&quot;boundsHeight&quot;:20}" fill="#dabfff" stroke="#beaed4"/><path d="M498.21963,38.97748c0,-0.98327 0.7971,-1.78037 1.78037,-1.78037c0.98327,0 1.78037,0.7971 1.78037,1.78037c0,0.98327 -0.7971,1.78037 -1.78037,1.78037c-0.98327,0 -1.78037,-0.7971 -1.78037,-1.78037z" data-paper-data="{&quot;index&quot;:45,&quot;boundsWidth&quot;:20,&quot;boundsHeight&quot;:20}" fill="#d8bcff" stroke="#beaed4"/><path d="M462.3227,114.68066c0,-20.8086 16.8687,-37.6773 37.6773,-37.6773c20.8086,0 37.6773,16.8687 37.6773,37.6773c0,20.8086 -16.8687,37.6773 -37.6773,37.6773c-20.8086,0 -37.6773,-16.8687 -37.6773,-37.6773z" data-paper-data="{&quot;index&quot;:46,&quot;boundsWidth&quot;:20,&quot;boundsHeight&quot;:20}" fill="#d4b5fe" stroke="#beaed4"/><path d="M491.71656,809.41657c0,-4.57482 3.70862,-8.28344 8.28344,-8.28344c4.57482,0 8.28344,3.70862 8.28344,8.28344c0,4.57482 -3.70862,8.28344 -8.28344,8.28344c-4.57482,0 -8.28344,-3.70862 -8.28344,-8.28344z" data-paper-data="{&quot;index&quot;:47,&quot;boundsWidth&quot;:20,&quot;boundsHeight&quot;:20}" fill="#d6b8ff" stroke="#beaed4"/><path d="M488.85521,445.15381c0,-6.15509 4.98969,-11.14479 11.14479,-11.14479c6.15509,0 11.14479,4.98969 11.14479,11.14479c0,6.15509 -4.98969,11.14479 -11.14479,11.14479c-6.15509,0 -11.14479,-4.98969 -11.14479,-11.14479z" data-paper-data="{&quot;index&quot;:48,&quot;boundsWidth&quot;:20,&quot;boundsHeight&quot;:20}" fill="#d0aefe" stroke="#beaed4"/><path d="M487.5546,809.43909c0,-6.8734 5.57199,-12.4454 12.4454,-12.4454c6.8734,0 12.4454,5.57199 12.4454,12.4454c0,6.8734 -5.57199,12.4454 -12.4454,12.4454c-6.8734,0 -12.4454,-5.57199 -12.4454,-12.4454z" data-paper-data="{&quot;index&quot;:49,&quot;boundsWidth&quot;:20,&quot;boundsHeight&quot;:20}" fill="#6624c0" stroke="#beaed4"/><path d="M496.39877,444.6206c0,-1.9889 1.61232,-3.60123 3.60123,-3.60123c1.9889,0 3.60123,1.61232 3.60123,3.60123c0,1.9889 -1.61232,3.60123 -3.60123,3.60123c-1.9889,0 -3.60123,-1.61232 -3.60123,-3.60123z" data-paper-data="{&quot;index&quot;:50,&quot;boundsWidth&quot;:20,&quot;boundsHeight&quot;:20}" fill="#d8bdff" stroke="#beaed4"/><path d="M489.63558,165.22425c0,-5.72411 4.64031,-10.36442 10.36442,-10.36442c5.72411,0 10.36442,4.64031 10.36442,10.36442c0,5.72411 -4.64031,10.36442 -10.36442,10.36442c-5.72411,0 -10.36442,-4.64031 -10.36442,-10.36442z" data-paper-data="{&quot;index&quot;:51,&quot;boundsWidth&quot;:20,&quot;boundsHeight&quot;:20}" fill="#ceacfe" stroke="#beaed4"/><path d="M493.2773,791.39461c0,-3.71284 3.00986,-6.7227 6.7227,-6.7227c3.71284,0 6.7227,3.00986 6.7227,6.7227c0,3.71284 -3.00986,6.7227 -6.7227,6.7227c-3.71284,0 -6.7227,-3.00986 -6.7227,-6.7227z" data-paper-data="{&quot;index&quot;:52,&quot;boundsWidth&quot;:20,&quot;boundsHeight&quot;:20}" fill="#d6b9ff" stroke="#beaed4"/><path d="M488.85521,178.02145c0,-6.15509 4.98969,-11.14479 11.14479,-11.14479c6.15509,0 11.14479,4.98969 11.14479,11.14479c0,6.15509 -4.98969,11.14479 -11.14479,11.14479c-6.15509,0 -11.14479,-4.98969 -11.14479,-11.14479z" data-paper-data="{&quot;index&quot;:53,&quot;boundsWidth&quot;:20,&quot;boundsHeight&quot;:20}" fill="#c39bfc" stroke="#beaed4"/><path d="M997.13784,249.24062c0,-1.58073 1.28143,-2.86216 2.86216,-2.86216c1.58073,0 2.86216,1.28143 2.86216,2.86216c0,1.58073 -1.28143,2.86216 -2.86216,2.86216c-1.58073,0 -2.86216,-1.28143 -2.86216,-2.86216z" data-paper-data="{&quot;index&quot;:54,&quot;boundsWidth&quot;:20,&quot;boundsHeight&quot;:20}" fill="#fdc086" stroke="#fdc086"/><path d="M984.1027,862.98393c0,-8.77983 7.11746,-15.8973 15.8973,-15.8973c8.77983,0 15.8973,7.11746 15.8973,15.8973c0,8.77983 -7.11746,15.8973 -15.8973,15.8973c-8.77983,0 -15.8973,-7.11746 -15.8973,-15.8973z" data-paper-data="{&quot;index&quot;:55,&quot;boundsWidth&quot;:20,&quot;boundsHeight&quot;:20}" fill="#fdc086" stroke="#fdc086"/><path d="M972.92973,547.57831c0,-14.9505 12.11977,-27.07027 27.07027,-27.07027c14.9505,0 27.07027,12.11977 27.07027,27.07027c0,14.9505 -12.11977,27.07027 -27.07027,27.07027c-14.9505,0 -27.07027,-12.11977 -27.07027,-27.07027z" data-paper-data="{&quot;index&quot;:56,&quot;boundsWidth&quot;:20,&quot;boundsHeight&quot;:20}" fill="#fdc086" stroke="#fdc086"/><path d="M991.55135,248.84377c0,-4.66606 3.78259,-8.44865 8.44865,-8.44865c4.66606,0 8.44865,3.78259 8.44865,8.44865c0,4.66606 -3.78259,8.44865 -8.44865,8.44865c-4.66606,0 -8.44865,-3.78259 -8.44865,-8.44865z" data-paper-data="{&quot;index&quot;:57,&quot;boundsWidth&quot;:20,&quot;boundsHeight&quot;:20}" fill="#fdc086" stroke="#fdc086"/><path d="M997.13784,629.92832c0,-1.58073 1.28143,-2.86216 2.86216,-2.86216c1.58073,0 2.86216,1.28143 2.86216,2.86216c0,1.58073 -1.28143,2.86216 -2.86216,2.86216c-1.58073,0 -2.86216,-1.28143 -2.86216,-2.86216z" data-paper-data="{&quot;index&quot;:58,&quot;boundsWidth&quot;:20,&quot;boundsHeight&quot;:20}" fill="#fdc086" stroke="#fdc086"/><path d="M999,825.93349c0,-0.55228 0.44772,-1 1,-1c0.55228,0 1,0.44772 1,1c0,0.55228 -0.44772,1 -1,1c-0.55228,0 -1,-0.44772 -1,-1z" data-paper-data="{&quot;index&quot;:59,&quot;boundsWidth&quot;:20,&quot;boundsHeight&quot;:20}" fill="#fdc086" stroke="#fdc086"/><path d="M984.1027,462.44533c0,-8.77983 7.11746,-15.8973 15.8973,-15.8973c8.77983,0 15.8973,7.11746 15.8973,15.8973c0,8.77983 -7.11746,15.8973 -15.8973,15.8973c-8.77983,0 -15.8973,-7.11746 -15.8973,-15.8973z" data-paper-data="{&quot;index&quot;:60,&quot;boundsWidth&quot;:20,&quot;boundsHeight&quot;:20}" fill="#fdc086" stroke="#fdc086"/><path d="M967.34324,397.41713c0,-18.03583 14.62093,-32.65676 32.65676,-32.65676c18.03583,0 32.65676,14.62093 32.65676,32.65676c0,18.03583 -14.62093,32.65676 -32.65676,32.65676c-18.03583,0 -32.65676,-14.62093 -32.65676,-32.65676z" data-paper-data="{&quot;index&quot;:61,&quot;boundsWidth&quot;:20,&quot;boundsHeight&quot;:20}" fill="#fdc086" stroke="#fdc086"/><path d="M999,393.64256c0,-0.55228 0.44772,-1 1,-1c0.55228,0 1,0.44772 1,1c0,0.55228 -0.44772,1 -1,1c-0.55228,0 -1,-0.44772 -1,-1z" data-paper-data="{&quot;index&quot;:62,&quot;boundsWidth&quot;:20,&quot;boundsHeight&quot;:20}" fill="#fdc086" stroke="#fdc086"/><path d="M991.55135,976.82954c0,-4.66606 3.78259,-8.44865 8.44865,-8.44865c4.66606,0 8.44865,3.78259 8.44865,8.44865c0,4.66606 -3.78259,8.44865 -8.44865,8.44865c-4.66606,0 -8.44865,-3.78259 -8.44865,-8.44865z" data-paper-data="{&quot;index&quot;:63,&quot;boundsWidth&quot;:20,&quot;boundsHeight&quot;:20}" fill="#fdc086" stroke="#fdc086"/><path d="M997.13784,392.79767c0,-1.58073 1.28143,-2.86216 2.86216,-2.86216c1.58073,0 2.86216,1.28143 2.86216,2.86216c0,1.58073 -1.28143,2.86216 -2.86216,2.86216c-1.58073,0 -2.86216,-1.28143 -2.86216,-2.86216z" data-paper-data="{&quot;index&quot;:64,&quot;boundsWidth&quot;:20,&quot;boundsHeight&quot;:20}" fill="#fdc086" stroke="#fdc086"/><path d="M989.68919,247.22068c0,-5.6945 4.61631,-10.31081 10.31081,-10.31081c5.6945,0 10.31081,4.61631 10.31081,10.31081c0,5.6945 -4.61631,10.31081 -10.31081,10.31081c-5.6945,0 -10.31081,-4.61631 -10.31081,-10.31081z" data-paper-data="{&quot;index&quot;:65,&quot;boundsWidth&quot;:20,&quot;boundsHeight&quot;:20}" fill="#fdc086" stroke="#fdc086"/><path d="M993.41351,-118.10806c0,-3.63762 2.94887,-6.58649 6.58649,-6.58649c3.63762,0 6.58649,2.94887 6.58649,6.58649c0,3.63762 -2.94887,6.58649 -6.58649,6.58649c-3.63762,0 -6.58649,-2.94887 -6.58649,-6.58649z" data-paper-data="{&quot;index&quot;:66,&quot;boundsWidth&quot;:20,&quot;boundsHeight&quot;:20}" fill="#fdc086" stroke="#fdc086"/><path d="M978.51622,943.11137c0,-11.86517 9.61862,-21.48378 21.48378,-21.48378c11.86517,0 21.48378,9.61862 21.48378,21.48378c0,11.86517 -9.61862,21.48378 -21.48378,21.48378c-11.86517,0 -21.48378,-9.61862 -21.48378,-21.48378z" data-paper-data="{&quot;index&quot;:67,&quot;boundsWidth&quot;:20,&quot;boundsHeight&quot;:20}" fill="#fdc086" stroke="#fdc086"/><path d="M993.41351,414.07148c0,-3.63762 2.94887,-6.58649 6.58649,-6.58649c3.63762,0 6.58649,2.94887 6.58649,6.58649c0,3.63762 -2.94887,6.58649 -6.58649,6.58649c-3.63762,0 -6.58649,-2.94887 -6.58649,-6.58649z" data-paper-data="{&quot;index&quot;:68,&quot;boundsWidth&quot;:20,&quot;boundsHeight&quot;:20}" fill="#fdc086" stroke="#fdc086"/><path d="M987.82703,813.85283c0,-6.72295 5.45003,-12.17297 12.17297,-12.17297c6.72295,0 12.17297,5.45003 12.17297,12.17297c0,6.72295 -5.45003,12.17297 -12.17297,12.17297c-6.72295,0 -12.17297,-5.45003 -12.17297,-12.17297z" data-paper-data="{&quot;index&quot;:69,&quot;boundsWidth&quot;:20,&quot;boundsHeight&quot;:20}" fill="#fdc086" stroke="#fdc086"/><path d="M999,435.13793c0,-0.55228 0.44772,-1 1,-1c0.55228,0 1,0.44772 1,1c0,0.55228 -0.44772,1 -1,1c-0.55228,0 -1,-0.44772 -1,-1z" data-paper-data="{&quot;index&quot;:70,&quot;boundsWidth&quot;:20,&quot;boundsHeight&quot;:20}" fill="#fdc086" stroke="#fdc086"/><path d="M930.1,745.8321c0,-38.6047 31.2953,-69.9 69.9,-69.9c38.6047,0 69.9,31.2953 69.9,69.9c0,38.6047 -31.2953,69.9 -69.9,69.9c-38.6047,0 -69.9,-31.2953 -69.9,-69.9z" data-paper-data="{&quot;index&quot;:71,&quot;boundsWidth&quot;:20,&quot;boundsHeight&quot;:20}" fill="#fdc086" stroke="#fdc086"/><path d="M989.68919,869.76322c0,-5.6945 4.61631,-10.31081 10.31081,-10.31081c5.6945,0 10.31081,4.61631 10.31081,10.31081c0,5.6945 -4.61631,10.31081 -10.31081,10.31081c-5.6945,0 -10.31081,-4.61631 -10.31081,-10.31081z" data-paper-data="{&quot;index&quot;:72,&quot;boundsWidth&quot;:20,&quot;boundsHeight&quot;:20}" fill="#fdc086" stroke="#fdc086"/><path d="M995.27568,703.0909c0,-2.60917 2.11515,-4.72432 4.72432,-4.72432c2.60917,0 4.72432,2.11515 4.72432,4.72432c0,2.60917 -2.11515,4.72432 -4.72432,4.72432c-2.60917,0 -4.72432,-2.11515 -4.72432,-4.72432z" data-paper-data="{&quot;index&quot;:73,&quot;boundsWidth&quot;:20,&quot;boundsHeight&quot;:20}" fill="#fdc086" stroke="#fdc086"/><path d="M993.41351,819.25002c0,-3.63762 2.94887,-6.58649 6.58649,-6.58649c3.63762,0 6.58649,2.94887 6.58649,6.58649c0,3.63762 -2.94887,6.58649 -6.58649,6.58649c-3.63762,0 -6.58649,-2.94887 -6.58649,-6.58649z" data-paper-data="{&quot;index&quot;:74,&quot;boundsWidth&quot;:20,&quot;boundsHeight&quot;:20}" fill="#fdc086" stroke="#fdc086"/><path d="M999,687.85851c0,-0.55228 0.44772,-1 1,-1c0.55228,0 1,0.44772 1,1c0,0.55228 -0.44772,1 -1,1c-0.55228,0 -1,-0.44772 -1,-1z" data-paper-data="{&quot;index&quot;:75,&quot;boundsWidth&quot;:20,&quot;boundsHeight&quot;:20}" fill="#fdc086" stroke="#fdc086"/><path d="M961.75676,508.54978c0,-21.12116 17.12208,-38.24324 38.24324,-38.24324c21.12116,0 38.24324,17.12208 38.24324,38.24324c0,21.12116 -17.12208,38.24324 -38.24324,38.24324c-21.12116,0 -38.24324,-17.12208 -38.24324,-38.24324z" data-paper-data="{&quot;index&quot;:76,&quot;boundsWidth&quot;:20,&quot;boundsHeight&quot;:20}" fill="#fdc086" stroke="#fdc086"/><path d="M958.03243,44.1585c0,-23.17805 18.78952,-41.96757 41.96757,-41.96757c23.17805,0 41.96757,18.78952 41.96757,41.96757c0,23.17805 -18.78952,41.96757 -41.96757,41.96757c-23.17805,0 -41.96757,-18.78952 -41.96757,-41.96757z" data-paper-data="{&quot;index&quot;:77,&quot;boundsWidth&quot;:20,&quot;boundsHeight&quot;:20}" fill="#fdc086" stroke="#fdc086"/><path d="M991.55135,669.45617c0,-4.66606 3.78259,-8.44865 8.44865,-8.44865c4.66606,0 8.44865,3.78259 8.44865,8.44865c0,4.66606 -3.78259,8.44865 -8.44865,8.44865c-4.66606,0 -8.44865,-3.78259 -8.44865,-8.44865z" data-paper-data="{&quot;index&quot;:78,&quot;boundsWidth&quot;:20,&quot;boundsHeight&quot;:20}" fill="#fdc086" stroke="#fdc086"/><path d="M978.51622,184.2362c0,-11.86517 9.61862,-21.48378 21.48378,-21.48378c11.86517,0 21.48378,9.61862 21.48378,21.48378c0,11.86517 -9.61862,21.48378 -21.48378,21.48378c-11.86517,0 -21.48378,-9.61862 -21.48378,-21.48378z" data-paper-data="{&quot;index&quot;:79,&quot;boundsWidth&quot;:20,&quot;boundsHeight&quot;:20}" fill="#fdc086" stroke="#fdc086"/><path d="M999,426.6316c0,-0.55228 0.44772,-1 1,-1c0.55228,0 1,0.44772 1,1c0,0.55228 -0.44772,1 -1,1c-0.55228,0 -1,-0.44772 -1,-1z" data-paper-data="{&quot;index&quot;:80,&quot;boundsWidth&quot;:20,&quot;boundsHeight&quot;:20}" fill="#fdc086" stroke="#fdc086"/><path d="M995.27568,930.28809c0,-2.60917 2.11515,-4.72432 4.72432,-4.72432c2.60917,0 4.72432,2.11515 4.72432,4.72432c0,2.60917 -2.11515,4.72432 -4.72432,4.72432c-2.60917,0 -4.72432,-2.11515 -4.72432,-4.72432z" data-paper-data="{&quot;index&quot;:81,&quot;boundsWidth&quot;:20,&quot;boundsHeight&quot;:20}" fill="#fdc086" stroke="#fdc086"/><path d="M995.27568,670.1865c0,-2.60917 2.11515,-4.72432 4.72432,-4.72432c2.60917,0 4.72432,2.11515 4.72432,4.72432c0,2.60917 -2.11515,4.72432 -4.72432,4.72432c-2.60917,0 -4.72432,-2.11515 -4.72432,-4.72432z" data-paper-data="{&quot;index&quot;:82,&quot;boundsWidth&quot;:20,&quot;boundsHeight&quot;:20}" fill="#fdc086" stroke="#fdc086"/><path d="M984.1027,456.2442c0,-8.77983 7.11746,-15.8973 15.8973,-15.8973c8.77983,0 15.8973,7.11746 15.8973,15.8973c0,8.77983 -7.11746,15.8973 -15.8973,15.8973c-8.77983,0 -15.8973,-7.11746 -15.8973,-15.8973z" data-paper-data="{&quot;index&quot;:83,&quot;boundsWidth&quot;:20,&quot;boundsHeight&quot;:20}" fill="#fdc086" stroke="#fdc086"/><path d="M993.41351,672.67648c0,-3.63762 2.94887,-6.58649 6.58649,-6.58649c3.63762,0 6.58649,2.94887 6.58649,6.58649c0,3.63762 -2.94887,6.58649 -6.58649,6.58649c-3.63762,0 -6.58649,-2.94887 -6.58649,-6.58649z" data-paper-data="{&quot;index&quot;:84,&quot;boundsWidth&quot;:20,&quot;boundsHeight&quot;:20}" fill="#fdc086" stroke="#fdc086"/><path d="M997.13784,681.80367c0,-1.58073 1.28143,-2.86216 2.86216,-2.86216c1.58073,0 2.86216,1.28143 2.86216,2.86216c0,1.58073 -1.28143,2.86216 -2.86216,2.86216c-1.58073,0 -2.86216,-1.28143 -2.86216,-2.86216z" data-paper-data="{&quot;index&quot;:85,&quot;boundsWidth&quot;:20,&quot;boundsHeight&quot;:20}" fill="#fdc086" stroke="#fdc086"/><path d="M997.13784,670.09072c0,-1.58073 1.28143,-2.86216 2.86216,-2.86216c1.58073,0 2.86216,1.28143 2.86216,2.86216c0,1.58073 -1.28143,2.86216 -2.86216,2.86216c-1.58073,0 -2.86216,-1.28143 -2.86216,-2.86216z" data-paper-data="{&quot;index&quot;:86,&quot;boundsWidth&quot;:20,&quot;boundsHeight&quot;:20}" fill="#fdc086" stroke="#fdc086"/><path d="M991.55135,218.74496c0,-4.66606 3.78259,-8.44865 8.44865,-8.44865c4.66606,0 8.44865,3.78259 8.44865,8.44865c0,4.66606 -3.78259,8.44865 -8.44865,8.44865c-4.66606,0 -8.44865,-3.78259 -8.44865,-8.44865z" data-paper-data="{&quot;index&quot;:87,&quot;boundsWidth&quot;:20,&quot;boundsHeight&quot;:20}" fill="#fdc086" stroke="#fdc086"/><path d="M982.24054,430.43681c0,-9.80828 7.95118,-17.75946 17.75946,-17.75946c9.80828,0 17.75946,7.95118 17.75946,17.75946c0,9.80828 -7.95118,17.75946 -17.75946,17.75946c-9.80828,0 -17.75946,-7.95118 -17.75946,-17.75946z" data-paper-data="{&quot;index&quot;:88,&quot;boundsWidth&quot;:20,&quot;boundsHeight&quot;:20}" fill="#fdc086" stroke="#fdc086"/><path d="M967.34324,577.61158c0,-18.03583 14.62093,-32.65676 32.65676,-32.65676c18.03583,0 32.65676,14.62093 32.65676,32.65676c0,18.03583 -14.62093,32.65676 -32.65676,32.65676c-18.03583,0 -32.65676,-14.62093 -32.65676,-32.65676z" data-paper-data="{&quot;index&quot;:89,&quot;boundsWidth&quot;:20,&quot;boundsHeight&quot;:20}" fill="#fdc086" stroke="#fdc086"/><path d="M982.24054,86.67803c0,-9.80828 7.95118,-17.75946 17.75946,-17.75946c9.80828,0 17.75946,7.95118 17.75946,17.75946c0,9.80828 -7.95118,17.75946 -17.75946,17.75946c-9.80828,0 -17.75946,-7.95118 -17.75946,-17.75946z" data-paper-data="{&quot;index&quot;:90,&quot;boundsWidth&quot;:20,&quot;boundsHeight&quot;:20}" fill="#fdc086" stroke="#fdc086"/><path d="M997.13784,-132.75461c0,-1.58073 1.28143,-2.86216 2.86216,-2.86216c1.58073,0 2.86216,1.28143 2.86216,2.86216c0,1.58073 -1.28143,2.86216 -2.86216,2.86216c-1.58073,0 -2.86216,-1.28143 -2.86216,-2.86216z" data-paper-data="{&quot;index&quot;:91,&quot;boundsWidth&quot;:20,&quot;boundsHeight&quot;:20}" fill="#fdc086" stroke="#fdc086"/><path d="M967.34324,288.5545c0,-18.03583 14.62093,-32.65676 32.65676,-32.65676c18.03583,0 32.65676,14.62093 32.65676,32.65676c0,18.03583 -14.62093,32.65676 -32.65676,32.65676c-18.03583,0 -32.65676,-14.62093 -32.65676,-32.65676z" data-paper-data="{&quot;index&quot;:92,&quot;boundsWidth&quot;:20,&quot;boundsHeight&quot;:20}" fill="#fdc086" stroke="#fdc086"/><path d="M997.13784,879.13446c0,-1.58073 1.28143,-2.86216 2.86216,-2.86216c1.58073,0 2.86216,1.28143 2.86216,2.86216c0,1.58073 -1.28143,2.86216 -2.86216,2.86216c-1.58073,0 -2.86216,-1.28143 -2.86216,-2.86216z" data-paper-data="{&quot;index&quot;:93,&quot;boundsWidth&quot;:20,&quot;boundsHeight&quot;:20}" fill="#fdc086" stroke="#fdc086"/><path d="M991.55135,616.65335c0,-4.66606 3.78259,-8.44865 8.44865,-8.44865c4.66606,0 8.44865,3.78259 8.44865,8.44865c0,4.66606 -3.78259,8.44865 -8.44865,8.44865c-4.66606,0 -8.44865,-3.78259 -8.44865,-8.44865z" data-paper-data="{&quot;index&quot;:94,&quot;boundsWidth&quot;:20,&quot;boundsHeight&quot;:20}" fill="#fdc086" stroke="#fdc086"/><path d="M965.48108,-72.0211c0,-19.06427 15.45465,-34.51892 34.51892,-34.51892c19.06427,0 34.51892,15.45465 34.51892,34.51892c0,19.06427 -15.45465,34.51892 -34.51892,34.51892c-19.06427,0 -34.51892,-15.45465 -34.51892,-34.51892z" data-paper-data="{&quot;index&quot;:95,&quot;boundsWidth&quot;:20,&quot;boundsHeight&quot;:20}" fill="#fdc086" stroke="#fdc086"/><path d="M999,808.87642c0,-0.55228 0.44772,-1 1,-1c0.55228,0 1,0.44772 1,1c0,0.55228 -0.44772,1 -1,1c-0.55228,0 -1,-0.44772 -1,-1z" data-paper-data="{&quot;index&quot;:96,&quot;boundsWidth&quot;:20,&quot;boundsHeight&quot;:20}" fill="#fdc086" stroke="#fdc086"/><path d="M982.24054,362.72568c0,-9.80828 7.95118,-17.75946 17.75946,-17.75946c9.80828,0 17.75946,7.95118 17.75946,17.75946c0,9.80828 -7.95118,17.75946 -17.75946,17.75946c-9.80828,0 -17.75946,-7.95118 -17.75946,-17.75946z" data-paper-data="{&quot;index&quot;:97,&quot;boundsWidth&quot;:20,&quot;boundsHeight&quot;:20}" fill="#fdc086" stroke="#fdc086"/><path d="M995.27568,994.86272c0,-2.60917 2.11515,-4.72432 4.72432,-4.72432c2.60917,0 4.72432,2.11515 4.72432,4.72432c0,2.60917 -2.11515,4.72432 -4.72432,4.72432c-2.60917,0 -4.72432,-2.11515 -4.72432,-4.72432z" data-paper-data="{&quot;index&quot;:98,&quot;boundsWidth&quot;:20,&quot;boundsHeight&quot;:20}" fill="#fdc086" stroke="#fdc086"/><path d="M993.41351,276.00628c0,-3.63762 2.94887,-6.58649 6.58649,-6.58649c3.63762,0 6.58649,2.94887 6.58649,6.58649c0,3.63762 -2.94887,6.58649 -6.58649,6.58649c-3.63762,0 -6.58649,-2.94887 -6.58649,-6.58649z" data-paper-data="{&quot;index&quot;:99,&quot;boundsWidth&quot;:20,&quot;boundsHeight&quot;:20}" fill="#fdc086" stroke="#fdc086"/><path d="M999,261.03929c0,-0.55228 0.44772,-1 1,-1c0.55228,0 1,0.44772 1,1c0,0.55228 -0.44772,1 -1,1c-0.55228,0 -1,-0.44772 -1,-1z" data-paper-data="{&quot;index&quot;:100,&quot;boundsWidth&quot;:20,&quot;boundsHeight&quot;:20}" fill="#fdc086" stroke="#fdc086"/><path d="M985.96486,635.07268c0,-7.75139 6.28374,-14.03514 14.03514,-14.03514c7.75139,0 14.03514,6.28374 14.03514,14.03514c0,7.75139 -6.28374,14.03514 -14.03514,14.03514c-7.75139,0 -14.03514,-6.28374 -14.03514,-14.03514z" data-paper-data="{&quot;index&quot;:101,&quot;boundsWidth&quot;:20,&quot;boundsHeight&quot;:20}" fill="#fdc086" stroke="#fdc086"/><path d="M976.65405,122.52265c0,-12.89361 10.45234,-23.34595 23.34595,-23.34595c12.89361,0 23.34595,10.45234 23.34595,23.34595c0,12.89361 -10.45234,23.34595 -23.34595,23.34595c-12.89361,0 -23.34595,-10.45234 -23.34595,-23.34595z" data-paper-data="{&quot;index&quot;:102,&quot;boundsWidth&quot;:20,&quot;boundsHeight&quot;:20}" fill="#fdc086" stroke="#fdc086"/><path d="M993.41351,211.71777c0,-3.63762 2.94887,-6.58649 6.58649,-6.58649c3.63762,0 6.58649,2.94887 6.58649,6.58649c0,3.63762 -2.94887,6.58649 -6.58649,6.58649c-3.63762,0 -6.58649,-2.94887 -6.58649,-6.58649z" data-paper-data="{&quot;index&quot;:103,&quot;boundsWidth&quot;:20,&quot;boundsHeight&quot;:20}" fill="#fdc086" stroke="#fdc086"/><path d="M978.51622,223.22231c0,-11.86517 9.61862,-21.48378 21.48378,-21.48378c11.86517,0 21.48378,9.61862 21.48378,21.48378c0,11.86517 -9.61862,21.48378 -21.48378,21.48378c-11.86517,0 -21.48378,-9.61862 -21.48378,-21.48378z" data-paper-data="{&quot;index&quot;:104,&quot;boundsWidth&quot;:20,&quot;boundsHeight&quot;:20}" fill="#fdc086" stroke="#fdc086"/><path d="M997.13784,621.04831c0,-1.58073 1.28143,-2.86216 2.86216,-2.86216c1.58073,0 2.86216,1.28143 2.86216,2.86216c0,1.58073 -1.28143,2.86216 -2.86216,2.86216c-1.58073,0 -2.86216,-1.28143 -2.86216,-2.86216z" data-paper-data="{&quot;index&quot;:105,&quot;boundsWidth&quot;:20,&quot;boundsHeight&quot;:20}" fill="#fdc086" stroke="#fdc086"/><path d="M980.37838,171.69237c0,-10.83672 8.7849,-19.62162 19.62162,-19.62162c10.83672,0 19.62162,8.7849 19.62162,19.62162c0,10.83672 -8.7849,19.62162 -19.62162,19.62162c-10.83672,0 -19.62162,-8.7849 -19.62162,-19.62162z" data-paper-data="{&quot;index&quot;:106,&quot;boundsWidth&quot;:20,&quot;boundsHeight&quot;:20}" fill="#fdc086" stroke="#fdc086"/><path d="M989.68919,303.42419c0,-5.6945 4.61631,-10.31081 10.31081,-10.31081c5.6945,0 10.31081,4.61631 10.31081,10.31081c0,5.6945 -4.61631,10.31081 -10.31081,10.31081c-5.6945,0 -10.31081,-4.61631 -10.31081,-10.31081z" data-paper-data="{&quot;index&quot;:107,&quot;boundsWidth&quot;:20,&quot;boundsHeight&quot;:20}" fill="#fdc086" stroke="#fdc086"/><path d="M999,617.23436c0,-0.55228 0.44772,-1 1,-1c0.55228,0 1,0.44772 1,1c0,0.55228 -0.44772,1 -1,1c-0.55228,0 -1,-0.44772 -1,-1z" data-paper-data="{&quot;index&quot;:108,&quot;boundsWidth&quot;:20,&quot;boundsHeight&quot;:20}" fill="#fdc086" stroke="#fdc086"/><path d="M995.27568,208.51625c0,-2.60917 2.11515,-4.72432 4.72432,-4.72432c2.60917,0 4.72432,2.11515 4.72432,4.72432c0,2.60917 -2.11515,4.72432 -4.72432,4.72432c-2.60917,0 -4.72432,-2.11515 -4.72432,-4.72432z" data-paper-data="{&quot;index&quot;:109,&quot;boundsWidth&quot;:20,&quot;boundsHeight&quot;:20}" fill="#fdc086" stroke="#fdc086"/><path d="M999,192.22871c0,-0.55228 0.44772,-1 1,-1c0.55228,0 1,0.44772 1,1c0,0.55228 -0.44772,1 -1,1c-0.55228,0 -1,-0.44772 -1,-1z" data-paper-data="{&quot;index&quot;:110,&quot;boundsWidth&quot;:20,&quot;boundsHeight&quot;:20}" fill="#fdc086" stroke="#fdc086"/><path d="M993.41351,896.22412c0,-3.63762 2.94887,-6.58649 6.58649,-6.58649c3.63762,0 6.58649,2.94887 6.58649,6.58649c0,3.63762 -2.94887,6.58649 -6.58649,6.58649c-3.63762,0 -6.58649,-2.94887 -6.58649,-6.58649z" data-paper-data="{&quot;index&quot;:111,&quot;boundsWidth&quot;:20,&quot;boundsHeight&quot;:20}" fill="#fdc086" stroke="#fdc086"/><path d="M980.37838,663.46273c0,-10.83672 8.7849,-19.62162 19.62162,-19.62162c10.83672,0 19.62162,8.7849 19.62162,19.62162c0,10.83672 -8.7849,19.62162 -19.62162,19.62162c-10.83672,0 -19.62162,-8.7849 -19.62162,-19.62162z" data-paper-data="{&quot;index&quot;:112,&quot;boundsWidth&quot;:20,&quot;boundsHeight&quot;:20}" fill="#fdc086" stroke="#fdc086"/><path d="M982.24054,-9.91274c0,-9.80828 7.95118,-17.75946 17.75946,-17.75946c9.80828,0 17.75946,7.95118 17.75946,17.75946c0,9.80828 -7.95118,17.75946 -17.75946,17.75946c-9.80828,0 -17.75946,-7.95118 -17.75946,-17.75946z" data-paper-data="{&quot;index&quot;:113,&quot;boundsWidth&quot;:20,&quot;boundsHeight&quot;:20}" fill="#fdc086" stroke="#fdc086"/><path d="M997.13784,206.05109c0,-1.58073 1.28143,-2.86216 2.86216,-2.86216c1.58073,0 2.86216,1.28143 2.86216,2.86216c0,1.58073 -1.28143,2.86216 -2.86216,2.86216c-1.58073,0 -2.86216,-1.28143 -2.86216,-2.86216z" data-paper-data="{&quot;index&quot;:114,&quot;boundsWidth&quot;:20,&quot;boundsHeight&quot;:20}" fill="#fdc086" stroke="#fdc086"/><path d="M982.24054,846.16028c0,-9.80828 7.95118,-17.75946 17.75946,-17.75946c9.80828,0 17.75946,7.95118 17.75946,17.75946c0,9.80828 -7.95118,17.75946 -17.75946,17.75946c-9.80828,0 -17.75946,-7.95118 -17.75946,-17.75946z" data-paper-data="{&quot;index&quot;:115,&quot;boundsWidth&quot;:20,&quot;boundsHeight&quot;:20}" fill="#fdc086" stroke="#fdc086"/><path d="M999,352.82943c0,-0.55228 0.44772,-1 1,-1c0.55228,0 1,0.44772 1,1c0,0.55228 -0.44772,1 -1,1c-0.55228,0 -1,-0.44772 -1,-1z" data-paper-data="{&quot;index&quot;:116,&quot;boundsWidth&quot;:20,&quot;boundsHeight&quot;:20}" fill="#fdc086" stroke="#fdc086"/><path d="M997.13784,326.36099c0,-1.58073 1.28143,-2.86216 2.86216,-2.86216c1.58073,0 2.86216,1.28143 2.86216,2.86216c0,1.58073 -1.28143,2.86216 -2.86216,2.86216c-1.58073,0 -2.86216,-1.28143 -2.86216,-2.86216z" data-paper-data="{&quot;index&quot;:117,&quot;boundsWidth&quot;:20,&quot;boundsHeight&quot;:20}" fill="#fdc086" stroke="#fdc086"/><path d="M997.13784,631.47657c0,-1.58073 1.28143,-2.86216 2.86216,-2.86216c1.58073,0 2.86216,1.28143 2.86216,2.86216c0,1.58073 -1.28143,2.86216 -2.86216,2.86216c-1.58073,0 -2.86216,-1.28143 -2.86216,-2.86216z" data-paper-data="{&quot;index&quot;:118,&quot;boundsWidth&quot;:20,&quot;boundsHeight&quot;:20}" fill="#fdc086" stroke="#fdc086"/><path d="M980.37838,352.39943c0,-10.83672 8.7849,-19.62162 19.62162,-19.62162c10.83672,0 19.62162,8.7849 19.62162,19.62162c0,10.83672 -8.7849,19.62162 -19.62162,19.62162c-10.83672,0 -19.62162,-8.7849 -19.62162,-19.62162z" data-paper-data="{&quot;index&quot;:119,&quot;boundsWidth&quot;:20,&quot;boundsHeight&quot;:20}" fill="#fdc086" stroke="#fdc086"/><path d="M993.41351,915.01033c0,-3.63762 2.94887,-6.58649 6.58649,-6.58649c3.63762,0 6.58649,2.94887 6.58649,6.58649c0,3.63762 -2.94887,6.58649 -6.58649,6.58649c-3.63762,0 -6.58649,-2.94887 -6.58649,-6.58649z" data-paper-data="{&quot;index&quot;:120,&quot;boundsWidth&quot;:20,&quot;boundsHeight&quot;:20}" fill="#fdc086" stroke="#fdc086"/><path d="M991.55135,261.91534c0,-4.66606 3.78259,-8.44865 8.44865,-8.44865c4.66606,0 8.44865,3.78259 8.44865,8.44865c0,4.66606 -3.78259,8.44865 -8.44865,8.44865c-4.66606,0 -8.44865,-3.78259 -8.44865,-8.44865z" data-paper-data="{&quot;index&quot;:121,&quot;boundsWidth&quot;:20,&quot;boundsHeight&quot;:20}" fill="#fdc086" stroke="#fdc086"/><path d="M997.13784,815.72363c0,-1.58073 1.28143,-2.86216 2.86216,-2.86216c1.58073,0 2.86216,1.28143 2.86216,2.86216c0,1.58073 -1.28143,2.86216 -2.86216,2.86216c-1.58073,0 -2.86216,-1.28143 -2.86216,-2.86216z" data-paper-data="{&quot;index&quot;:122,&quot;boundsWidth&quot;:20,&quot;boundsHeight&quot;:20}" fill="#fdc086" stroke="#fdc086"/></g><g id="tooltipLayer" fill="#ffffff" fill-rule="nonzero" stroke="none" stroke-width="1" stroke-linecap="butt" stroke-linejoin="miter" stroke-miterlimit="10" stroke-dasharray="" stroke-dashoffset="0" font-family="Roboto" font-weight="normal" font-size="none" text-anchor="middle" style="mix-blend-mode: normal"><text x="0" y="504.2964" data-paper-data="{&quot;index&quot;:0}" font-size="21.5">design</text><text x="0" y="275.54841" data-paper-data="{&quot;index&quot;:1}" font-size="21.5">user interfaces</text><text x="-12.96434" y="771.48675" data-paper-data="{&quot;index&quot;:2}" font-size="21.5">human factors</text><text x="500" y="525.89861" data-paper-data="{&quot;index&quot;:5}" font-size="13.7">Labeling images with a computer game</text><text x="500" y="363.07731" data-paper-data="{&quot;index&quot;:11}" font-size="13.7">Faceted metadata for image search and browsing</text><text x="500" y="844.14142" data-paper-data="{&quot;index&quot;:14}" font-size="13.7">Looking at, looking up or keeping up with people?: motives and use of facebook</text><text x="500" y="229.12302" data-paper-data="{&quot;index&quot;:29}" font-size="13.7">Technology probes: inspiring design for and with families</text><text x="500" y="809.43909" data-paper-data="{&quot;index&quot;:49}" font-size="13.7">Predicting tie strength with social media</text><text x="1000" y="547.57831" data-paper-data="{&quot;index&quot;:56}" font-size="20.6"> Stephen Brewster</text><text x="1000" y="745.8321" data-paper-data="{&quot;index&quot;:71}" font-size="20.6"> Ravin Balakrishnan</text><text x="1000" y="508.54978" data-paper-data="{&quot;index&quot;:76}" font-size="20.6"> Steve D. Benford</text><text x="1000" y="44.1585" data-paper-data="{&quot;index&quot;:77}" font-size="20.6"> James A. Landay</text><text x="1000" y="288.5545" data-paper-data="{&quot;index&quot;:92}" font-size="20.6"> Jacob O. Wobbrock</text><text x="1000" y="-72.0211" data-paper-data="{&quot;index&quot;:95}" font-size="20.6"> Scott E. Hudson</text></g><g id="freeLayer" fill="none" fill-rule="nonzero" stroke="none" stroke-width="1" stroke-linecap="butt" stroke-linejoin="miter" stroke-miterlimit="10" stroke-dasharray="" stroke-dashoffset="0" font-family="sans-serif" font-weight="normal" font-size="12" text-anchor="start" style="mix-blend-mode: normal"><g><g/></g></g><g id="pinLayer" fill="none" fill-rule="nonzero" stroke="none" stroke-width="1" stroke-linecap="butt" stroke-linejoin="miter" stroke-miterlimit="10" stroke-dasharray="" stroke-dashoffset="0" font-family="sans-serif" font-weight="normal" font-size="12" text-anchor="start" style="mix-blend-mode: normal"/></g></svg>