<?xml version="1.0" encoding="utf-8"?>
<!-- Generator: Adobe Illustrator 16.0.0, SVG Export Plug-In . SVG Version: 6.00 Build 0)  -->
<!DOCTYPE svg PUBLIC "-//W3C//DTD SVG 1.1//EN" "http://www.w3.org/Graphics/SVG/1.1/DTD/svg11.dtd">
<svg version="1.1" id="Layer_1" xmlns="http://www.w3.org/2000/svg" xmlns:xlink="http://www.w3.org/1999/xlink" x="0px" y="0px"
	 width="1707.171px" height="1105.509px" viewBox="-18.773 2.367 1707.171 1105.509"
	 enable-background="new -18.773 2.367 1707.171 1105.509" xml:space="preserve">
<rect x="-72.778" y="-4.099" fill="#292931" stroke="#000000" stroke-width="1.3315" stroke-miterlimit="10" width="1863.186" height="1156.979"/>
<g transform="translate(788.44506,486.20593) scale(0.63025,0.63025)">
	<g id="linksLayer">
		<path fill="none" stroke="#BFBFBF" stroke-width="3.5" stroke-miterlimit="10" stroke-opacity="0.6" d="M523.628-306.027
			C307.944-473.539,64.249-543.573-207.461-516.128"/>
		<path fill="none" stroke="#BFBFBF" stroke-width="3.5" stroke-miterlimit="10" stroke-opacity="0.6" d="M-587.794-270.557
			c-76.568,293.47-41.376,572.864,105.573,838.182"/>
		<path fill="none" stroke="#BFBFBF" stroke-width="3.5" stroke-miterlimit="10" stroke-opacity="0.6" d="M167.166-508.057
			C244.86-342.929,368.78-227.37,538.923-161.377"/>
		<path fill="none" stroke="#BFBFBF" stroke-width="3.5" stroke-miterlimit="10" stroke-opacity="0.6" d="M-486.585-354.554
			c-42.584,33.698-67.677,77.432-75.274,131.204"/>
		<path fill="none" stroke="#BFBFBF" stroke-width="3.5" stroke-miterlimit="10" stroke-opacity="0.6" d="M-589.497,419.357
			c72.858,140.727,184.193,236.919,334.005,288.576"/>
		<path fill="none" stroke="#BFBFBF" stroke-width="3.5" stroke-miterlimit="10" stroke-opacity="0.6" d="M371.298,602.017
			C526.378,433.591,601.99,234.922,598.133,6.009"/>
		<path fill="none" stroke="#BFBFBF" stroke-width="3.5" stroke-miterlimit="10" stroke-opacity="0.6" d="M-144.953,782.352
			c302.62-52.921,545.251-202.893,727.892-449.918"/>
		<path fill="none" stroke="#BFBFBF" stroke-width="3.5" stroke-miterlimit="10" stroke-opacity="0.6" d="M393.55,613.037
			c-210.47-23.329-399.954,29.136-568.452,157.397"/>
		<path fill="none" stroke="#BFBFBF" stroke-width="3.5" stroke-miterlimit="10" stroke-opacity="0.6" d="M-653.466,72.4
			c227.748,324.632,536.026,525.957,924.831,603.967"/>
		<path fill="none" stroke="#BFBFBF" stroke-width="3.5" stroke-miterlimit="10" stroke-opacity="0.6" d="M519.906,428.32
			c-160.334,57.334-278.782,162.048-355.343,314.142"/>
		<path fill="none" stroke="#BFBFBF" stroke-width="3.5" stroke-miterlimit="10" stroke-opacity="0.6" d="M460.637,546.4
			C581.236,355.581,619.402,149.496,575.133-71.857"/>
		<path fill="none" stroke="#BFBFBF" stroke-width="3.5" stroke-miterlimit="10" stroke-opacity="0.6" d="M419.154,544.187
			C553.71,389.678,616.428,210.084,607.306,5.402"/>
		<path fill="none" stroke="#BFBFBF" stroke-width="3.5" stroke-miterlimit="10" stroke-opacity="0.6" d="M411.174-366.454
			C309.448-473.363,184.886-530.449,37.491-537.71"/>
		<path fill="none" stroke="#BFBFBF" stroke-width="3.5" stroke-miterlimit="10" stroke-opacity="0.6" d="M523.628-306.027
			c-46.176,192.543-19.589,374.449,79.761,545.721"/>
		<path fill="none" stroke="#BFBFBF" stroke-width="3.5" stroke-miterlimit="10" stroke-opacity="0.6" d="M496.839,443.099
			c2.436,14.742,9.621,26.611,21.552,35.607"/>
		<path fill="none" stroke="#BFBFBF" stroke-width="3.5" stroke-miterlimit="10" stroke-opacity="0.6" d="M419.154,544.187
			c19.747,7.242,39.266,6.678,58.56-1.695"/>
		<path fill="none" stroke="#BFBFBF" stroke-width="3.5" stroke-miterlimit="10" stroke-opacity="0.6" d="M633.088,44.188
			c-455.255-83.765-876.602,1.007-1264.04,254.318"/>
		<path fill="none" stroke="#BFBFBF" stroke-width="3.5" stroke-miterlimit="10" stroke-opacity="0.6" d="M-555.414,478.309
			c203.133,164.397,434.936,236.073,695.41,215.028"/>
		<path fill="none" stroke="#BFBFBF" stroke-width="3.5" stroke-miterlimit="10" stroke-opacity="0.6" d="M633.088,44.188
			c-2.168,7.482-1.458,14.681,2.134,21.597"/>
		<path fill="none" stroke="#BFBFBF" stroke-width="3.5" stroke-miterlimit="10" stroke-opacity="0.6" d="M-476.212-346.138
			c206.092,10.685,387.442-51.172,544.05-185.568"/>
		<path fill="none" stroke="#BFBFBF" stroke-width="3.5" stroke-miterlimit="10" stroke-opacity="0.6" d="M372.834-394.529
			c3.491-8.337,3.624-16.728,0.403-25.171"/>
		<path fill="none" stroke="#BFBFBF" stroke-width="3.5" stroke-miterlimit="10" stroke-opacity="0.6" d="M313.024-425.738
			C361.089-236.274,467.859-89.517,633.33,14.533"/>
		<path fill="none" stroke="#BFBFBF" stroke-width="3.5" stroke-miterlimit="10" stroke-opacity="0.6" d="M-71.115,749.404
			c61.259,23.853,122.293,23.289,183.104-1.686"/>
		<path fill="none" stroke="#BFBFBF" stroke-width="3.5" stroke-miterlimit="10" stroke-opacity="0.6" d="M-256.173-506.808
			c75.271,16.229,145.755,4.263,211.453-35.895"/>
		<path fill="none" stroke="#BFBFBF" stroke-width="3.5" stroke-miterlimit="10" stroke-opacity="0.6" d="M-598.039-245.155
			c-26.284,29.032-38.931,63.124-37.942,102.274"/>
		<path fill="none" stroke="#BFBFBF" stroke-width="3.5" stroke-miterlimit="10" stroke-opacity="0.6" d="M496.839,443.099
			C213.702,421.613-37.79,500.727-257.637,680.439"/>
		<path fill="none" stroke="#BFBFBF" stroke-width="3.5" stroke-miterlimit="10" stroke-opacity="0.6" d="M526.333,456.545
			c-53.234,18.454-92.761,52.72-118.582,102.796"/>
		<path fill="none" stroke="#BFBFBF" stroke-width="3.5" stroke-miterlimit="10" stroke-opacity="0.6" d="M-651.036,303.394
			c182.303,249.913,425.639,402.494,730.005,457.739"/>
		<path fill="none" stroke="#BFBFBF" stroke-width="3.5" stroke-miterlimit="10" stroke-opacity="0.6" d="M-570.004,421.369
			C-413.32,603.173-215.555,705.872,23.289,729.465"/>
		<path fill="none" stroke="#BFBFBF" stroke-width="3.5" stroke-miterlimit="10" stroke-opacity="0.6" d="M372.834-394.529
			c29.863,133.813,101.75,238.872,215.66,315.174"/>
		<path fill="none" stroke="#BFBFBF" stroke-width="3.5" stroke-miterlimit="10" stroke-opacity="0.6" d="M-476.212-346.138
			c93.223-16.961,167.741-63.728,223.55-140.302"/>
		<path fill="none" stroke="#BFBFBF" stroke-width="3.5" stroke-miterlimit="10" stroke-opacity="0.6" d="M419.154,544.187
			c92.43-51.161,154.47-127.135,186.118-227.929"/>
		<path fill="none" stroke="#BFBFBF" stroke-width="3.5" stroke-miterlimit="10" stroke-opacity="0.6" d="M-13.981,722.229
			c247.666-41.002,447.034-161.751,598.102-362.245"/>
		<path fill="none" stroke="#BFBFBF" stroke-width="3.5" stroke-miterlimit="10" stroke-opacity="0.6" d="M-573.308-142.019
			c-5.185-36.408-22.21-66.008-51.074-88.797"/>
		<path fill="none" stroke="#BFBFBF" stroke-width="3.5" stroke-miterlimit="10" stroke-opacity="0.6" d="M42.312,775.652
			c38.494,2.262,72.458-9.061,101.892-33.971"/>
		<path fill="none" stroke="#BFBFBF" stroke-width="3.5" stroke-miterlimit="10" stroke-opacity="0.6" d="M562.443,422.097
			c-130.928,45.945-227.954,130.705-291.077,254.27"/>
		<path fill="none" stroke="#BFBFBF" stroke-width="3.5" stroke-miterlimit="10" stroke-opacity="0.6" d="M-144.953,782.352
			c299.275-40.277,543.382-178.197,732.32-413.759"/>
		<path fill="none" stroke="#BFBFBF" stroke-width="3.5" stroke-miterlimit="10" stroke-opacity="0.6" d="M-589.497,419.357
			c70.979,143.442,181.631,242.624,331.954,297.544"/>
		<path fill="none" stroke="#BFBFBF" stroke-width="3.5" stroke-miterlimit="10" stroke-opacity="0.6" d="M-146.674,743.76
			c-91.094-134.381-215.962-218.815-374.605-253.303"/>
		<path fill="none" stroke="#BFBFBF" stroke-width="3.5" stroke-miterlimit="10" stroke-opacity="0.6" d="M349.644-410.524
			c-70.897-74.507-157.708-114.291-260.433-119.35"/>
		<path fill="none" stroke="#BFBFBF" stroke-width="3.5" stroke-miterlimit="10" stroke-opacity="0.6" d="M-71.115,749.404
			c261.914-54.867,468.783-192.48,620.606-412.841"/>
		<path fill="none" stroke="#BFBFBF" stroke-width="3.5" stroke-miterlimit="10" stroke-opacity="0.6" d="M526.333,456.545
			c-199.34,34.668-359.229,133.293-479.669,295.871"/>
		<path fill="none" stroke="#BFBFBF" stroke-width="3.5" stroke-miterlimit="10" stroke-opacity="0.6" d="M345.259-434.399
			C368.408-230.537,458.664-62.776,616.022,68.883"/>
		<path fill="none" stroke="#BFBFBF" stroke-width="3.5" stroke-miterlimit="10" stroke-opacity="0.6" d="M-643.495-94.771
			c1.517,301.117,106.659,560.179,315.424,777.184"/>
		<path fill="none" stroke="#BFBFBF" stroke-width="3.5" stroke-miterlimit="10" stroke-opacity="0.6" d="M349.644-410.524
			c-59.361-70.466-134.833-110.743-226.417-120.831"/>
		<path fill="none" stroke="#BFBFBF" stroke-width="3.5" stroke-miterlimit="10" stroke-opacity="0.6" d="M-589.497,419.357
			C-418.539,603.253-207.75,702.832,42.87,718.098"/>
		<path fill="none" stroke="#BFBFBF" stroke-width="3.5" stroke-miterlimit="10" stroke-opacity="0.6" d="M-529.265,529.743
			c146.733,138.316,320.923,206.958,522.571,205.92"/>
		<path fill="none" stroke="#BFBFBF" stroke-width="3.5" stroke-miterlimit="10" stroke-opacity="0.6" d="M-476.212-346.138
			c-91.517,44.142-155.189,113.752-191.016,208.832"/>
		<path fill="none" stroke="#BFBFBF" stroke-width="3.5" stroke-miterlimit="10" stroke-opacity="0.6" d="M538.127,456.588
			c95.162-211.895,104.13-427.376,26.907-646.444"/>
		<path fill="none" stroke="#BFBFBF" stroke-width="3.5" stroke-miterlimit="10" stroke-opacity="0.6" d="M349.644-410.524
			c23.811,40.604,58.338,67.398,103.582,80.38"/>
		<path fill="none" stroke="#BFBFBF" stroke-width="3.5" stroke-miterlimit="10" stroke-opacity="0.6" d="M233.84-497.019
			c-5.437,1.671-9.55,4.987-12.334,9.946"/>
		<path fill="none" stroke="#BFBFBF" stroke-width="3.5" stroke-miterlimit="10" stroke-opacity="0.6" d="M562.443,422.097
			c-60.966,30.057-103.158,76.994-126.577,140.805"/>
		<path fill="none" stroke="#BFBFBF" stroke-width="3.5" stroke-miterlimit="10" stroke-opacity="0.6" d="M345.259-434.399
			c13.392,15.637,30.328,24.499,50.811,26.586"/>
		<path fill="none" stroke="#BFBFBF" stroke-width="3.5" stroke-miterlimit="10" stroke-opacity="0.6" d="M313.024-425.738
			c47.126,111.314,126.137,191.025,237.032,239.131"/>
		<path fill="none" stroke="#BFBFBF" stroke-width="3.5" stroke-miterlimit="10" stroke-opacity="0.6" d="M-645.193,34.713
			c-16.731,199.366,37.594,377.002,162.972,532.911"/>
		<path fill="none" stroke="#BFBFBF" stroke-width="3.5" stroke-miterlimit="10" stroke-opacity="0.6" d="M117.804,772.234
			c173.218-49.906,305.335-152.655,396.35-308.254"/>
		<path fill="none" stroke="#BFBFBF" stroke-width="3.5" stroke-miterlimit="10" stroke-opacity="0.6" d="M-589.497,419.357
			c105.732,173.877,256.838,287.312,453.317,340.304"/>
		<path fill="none" stroke="#BFBFBF" stroke-width="3.5" stroke-miterlimit="10" stroke-opacity="0.6" d="M-71.115,749.404
			c-131.739-195.638-312.766-318.865-543.086-369.679"/>
		<path fill="none" stroke="#BFBFBF" stroke-width="3.5" stroke-miterlimit="10" stroke-opacity="0.6" d="M411.174-366.454
			c20.573,90.945,69.666,162.252,147.285,213.921"/>
		<path fill="none" stroke="#BFBFBF" stroke-width="3.5" stroke-miterlimit="10" stroke-opacity="0.6" d="M-306.274-501.855
			c34.842,8.417,67.779,3.66,98.814-14.273"/>
		<path fill="none" stroke="#BFBFBF" stroke-width="3.5" stroke-miterlimit="10" stroke-opacity="0.6" d="M117.804,772.234
			c-16.917-9.607-34.815-12.052-53.691-7.341"/>
		<path fill="none" stroke="#BFBFBF" stroke-width="3.5" stroke-miterlimit="10" stroke-opacity="0.6" d="M383.186,580.907
			C78.581,407.352-243.858,362.77-584.128,447.164"/>
		<path fill="none" stroke="#BFBFBF" stroke-width="3.5" stroke-miterlimit="10" stroke-opacity="0.6" d="M313.024-425.738
			c-7.451-17.962-20.067-30.876-37.849-38.744"/>
		<path fill="none" stroke="#BFBFBF" stroke-width="3.5" stroke-miterlimit="10" stroke-opacity="0.6" d="M411.174-366.454
			c16.524,73.388,56.076,130.955,118.655,172.702"/>
		<path fill="none" stroke="#BFBFBF" stroke-width="3.5" stroke-miterlimit="10" stroke-opacity="0.6" d="M-651.036,303.394
			c7.535,19.542,20.771,33.794,39.706,42.75"/>
		<path fill="none" stroke="#BFBFBF" stroke-width="3.5" stroke-miterlimit="10" stroke-opacity="0.6" d="M-522.816,506.339
			C-377.383,660.662-198.794,743.55,12.949,755"/>
		<path fill="none" stroke="#BFBFBF" stroke-width="3.5" stroke-miterlimit="10" stroke-opacity="0.6" d="M-420.217,629.418
			c358.687,45.515,683.594-38.932,974.723-253.344"/>
		<path fill="none" stroke="#BFBFBF" stroke-width="3.5" stroke-miterlimit="10" stroke-opacity="0.6" d="M526.333,456.545
			C319.236,473.363,146.502,559.279,8.135,714.286"/>
		<path fill="none" stroke="#BFBFBF" stroke-width="3.5" stroke-miterlimit="10" stroke-opacity="0.6" d="M233.84-497.019
			c-86.762-52.37-179.616-67.598-278.56-45.685"/>
		<path fill="none" stroke="#BFBFBF" stroke-width="3.5" stroke-miterlimit="10" stroke-opacity="0.6" d="M-631.934-190.699
			c2.126,14.409,8.928,26.099,20.407,35.067"/>
		<path fill="none" stroke="#BFBFBF" stroke-width="3.5" stroke-miterlimit="10" stroke-opacity="0.6" d="M-570.004,421.369
			c161.23,184.872,363.972,288.65,608.225,311.332"/>
		<path fill="none" stroke="#BFBFBF" stroke-width="3.5" stroke-miterlimit="10" stroke-opacity="0.6" d="M-589.497,419.357
			c96.892,172.29,239.829,287.408,428.814,345.349"/>
		<path fill="none" stroke="#BFBFBF" stroke-width="3.5" stroke-miterlimit="10" stroke-opacity="0.6" d="M420.333,595.391
			c-226.956-38.976-436.048,5.684-627.275,133.981"/>
		<path fill="none" stroke="#BFBFBF" stroke-width="3.5" stroke-miterlimit="10" stroke-opacity="0.6" d="M481.767,500.213
			c13.417-12.799,20.571-28.458,21.462-46.98"/>
		<path fill="none" stroke="#BFBFBF" stroke-width="3.5" stroke-miterlimit="10" stroke-opacity="0.6" d="M329.004-437.079
			c24.734,191.534,112.104,348.12,262.108,469.758"/>
		<path fill="none" stroke="#BFBFBF" stroke-width="3.5" stroke-miterlimit="10" stroke-opacity="0.6" d="M154.863,755.106
			C-32.5,607.666-244.862,545.172-482.221,567.624"/>
		<path fill="none" stroke="#BFBFBF" stroke-width="3.5" stroke-miterlimit="10" stroke-opacity="0.6" d="M349.644-410.524
			C390.273-266.4,474.996-156.166,603.812-79.821"/>
		<path fill="none" stroke="#BFBFBF" stroke-width="3.5" stroke-miterlimit="10" stroke-opacity="0.6" d="M-570.004,421.369
			C-423.82,597.957-236.904,699.783-9.258,726.84"/>
		<path fill="none" stroke="#BFBFBF" stroke-width="3.5" stroke-miterlimit="10" stroke-opacity="0.6" d="M138.778-517.789
			c16.888,13.882,36.233,20.026,58.036,18.432"/>
		<path fill="none" stroke="#BFBFBF" stroke-width="3.5" stroke-miterlimit="10" stroke-opacity="0.6" d="M371.298,602.017
			c19.056-3.998,34.104-14.014,45.144-30.051"/>
		<path fill="none" stroke="#BFBFBF" stroke-width="3.5" stroke-miterlimit="10" stroke-opacity="0.6" d="M-589.497,419.357
			c156.878,202.074,361.798,322.181,614.76,360.317"/>
		<path fill="none" stroke="#BFBFBF" stroke-width="3.5" stroke-miterlimit="10" stroke-opacity="0.6" d="M438.227-322.245
			c3.638,138.693,54.599,257.001,152.885,354.924"/>
		<path fill="none" stroke="#BFBFBF" stroke-width="3.5" stroke-miterlimit="10" stroke-opacity="0.6" d="M-645.193,34.713
			c3.364,210.751,78.938,391.276,226.722,541.57"/>
		<path fill="none" stroke="#BFBFBF" stroke-width="3.5" stroke-miterlimit="10" stroke-opacity="0.6" d="M543.579,406.862
			c65.286-67.065,98.443-147.393,99.468-240.98"/>
		<path fill="none" stroke="#BFBFBF" stroke-width="3.5" stroke-miterlimit="10" stroke-opacity="0.6" d="M436.933,534.713
			c115.085-113.949,175.002-251.866,179.753-413.749"/>
		<path fill="none" stroke="#BFBFBF" stroke-width="3.5" stroke-miterlimit="10" stroke-opacity="0.6" d="M481.767,500.213
			c-241.075,7.354-446.362,96.824-615.86,268.408"/>
		<path fill="none" stroke="#BFBFBF" stroke-width="3.5" stroke-miterlimit="10" stroke-opacity="0.6" d="M-279.529-487.171
			c94.596,17.227,182.083-0.541,262.464-53.304"/>
		<path fill="none" stroke="#BFBFBF" stroke-width="3.5" stroke-miterlimit="10" stroke-opacity="0.6" d="M349.644-410.524
			C374.202-240.398,454.036-102.207,589.148,4.051"/>
		<path fill="none" stroke="#BFBFBF" stroke-width="3.5" stroke-miterlimit="10" stroke-opacity="0.6" d="M46.869,723.348
			c81.097,14.274,155.929-1.385,224.497-46.98"/>
		<path fill="none" stroke="#BFBFBF" stroke-width="3.5" stroke-miterlimit="10" stroke-opacity="0.6" d="M-631.934-190.699
			c-70.708,173.816-71.724,348.038-3.052,522.668"/>
		<path fill="none" stroke="#BFBFBF" stroke-width="3.5" stroke-miterlimit="10" stroke-opacity="0.6" d="M-570.004,421.369
			c46.48,100.586,121.233,171.271,224.261,212.053"/>
		<path fill="none" stroke="#BFBFBF" stroke-width="3.5" stroke-miterlimit="10" stroke-opacity="0.6" d="M13.959-537.557
			c53.409,29.813,109.731,37.097,168.965,21.852"/>
		<path fill="none" stroke="#BFBFBF" stroke-width="3.5" stroke-miterlimit="10" stroke-opacity="0.6" d="M-256.173-506.808
			c156.596,70.269,315.822,76.848,477.68,19.737"/>
		<path fill="none" stroke="#BFBFBF" stroke-width="3.5" stroke-miterlimit="10" stroke-opacity="0.6" d="M-380.643,655.995
			c166.587,97.351,343.764,123.832,531.534,79.442"/>
		<path fill="none" stroke="#BFBFBF" stroke-width="3.5" stroke-miterlimit="10" stroke-opacity="0.6" d="M-651.036,303.394
			C-438.38,551.659-169.449,692.349,155.76,725.467"/>
		<path fill="none" stroke="#BFBFBF" stroke-width="3.5" stroke-miterlimit="10" stroke-opacity="0.6" d="M349.644-410.524
			c20.662,41.605,52.822,70.347,96.477,86.224"/>
		<path fill="none" stroke="#BFBFBF" stroke-width="3.5" stroke-miterlimit="10" stroke-opacity="0.6" d="M110.029,735.059
			c-81.954-41.508-166.918-49.032-254.89-22.57"/>
		<path fill="none" stroke="#BFBFBF" stroke-width="3.5" stroke-miterlimit="10" stroke-opacity="0.6" d="M-651.036,303.394
			c41.522,159.089,132.174,281.919,271.958,368.486"/>
		<path fill="none" stroke="#BFBFBF" stroke-width="3.5" stroke-miterlimit="10" stroke-opacity="0.6" d="M371.298,602.017
			C69.913,418.812-253.077,364.803-597.672,439.993"/>
		<path fill="none" stroke="#BFBFBF" stroke-width="3.5" stroke-miterlimit="10" stroke-opacity="0.6" d="M42.312,775.652
			c263.459-130.885,445.446-334.565,545.962-611.038"/>
		<path fill="none" stroke="#BFBFBF" stroke-width="3.5" stroke-miterlimit="10" stroke-opacity="0.6" d="M-598.039-245.155
			c-49.986,53.408-74.663,116.686-74.028,189.834"/>
		<path fill="none" stroke="#BFBFBF" stroke-width="3.5" stroke-miterlimit="10" stroke-opacity="0.6" d="M349.644-410.524
			c18.069,38.325,46.858,65.133,86.373,80.424"/>
		<path fill="none" stroke="#BFBFBF" stroke-width="3.5" stroke-miterlimit="10" stroke-opacity="0.6" d="M-598.039-245.155
			c267.046-3.273,496.131-98.178,687.252-284.719"/>
		<path fill="none" stroke="#BFBFBF" stroke-width="3.5" stroke-miterlimit="10" stroke-opacity="0.6" d="M-555.414,478.309
			c30.323-177.047-4.585-340.127-104.727-489.247"/>
		<path fill="none" stroke="#BFBFBF" stroke-width="3.5" stroke-miterlimit="10" stroke-opacity="0.6" d="M555.817-209.536
			C413.348-394.098,226.889-504.076-3.562-539.471"/>
		<path fill="none" stroke="#BFBFBF" stroke-width="3.5" stroke-miterlimit="10" stroke-opacity="0.6" d="M-70.946-538.982
			c-216.032,56.149-382.905,179.048-500.618,368.697"/>
		<path fill="none" stroke="#BFBFBF" stroke-width="3.5" stroke-miterlimit="10" stroke-opacity="0.6" d="M538.127,456.588
			c-162.374,28.532-292.512,109.118-390.416,241.76"/>
		<path fill="none" stroke="#BFBFBF" stroke-width="3.5" stroke-miterlimit="10" stroke-opacity="0.6" d="M-486.585-354.554
			C-610.299-257.256-683.399-130.717-705.883,25.06"/>
		<path fill="none" stroke="#BFBFBF" stroke-width="3.5" stroke-miterlimit="10" stroke-opacity="0.6" d="M138.778-517.789
			c89.596,222.925,243.704,384.206,462.326,483.846"/>
		<path fill="none" stroke="#BFBFBF" stroke-width="3.5" stroke-miterlimit="10" stroke-opacity="0.6" d="M-71.115,749.404
			c-92.703-104.023-208.488-161.729-347.356-173.121"/>
		<path fill="none" stroke="#BFBFBF" stroke-width="3.5" stroke-miterlimit="10" stroke-opacity="0.6" d="M393.55,613.037
			c139.491-115.582,219.884-263.323,241.183-443.218"/>
		<path fill="none" stroke="#BFBFBF" stroke-width="3.5" stroke-miterlimit="10" stroke-opacity="0.6" d="M-529.265,529.743
			c97.071,128.923,225.21,206.596,384.418,233.008"/>
		<path fill="none" stroke="#BFBFBF" stroke-width="3.5" stroke-miterlimit="10" stroke-opacity="0.6" d="M-655.048-159.496
			c236.642-51.276,422.961-177.078,558.959-377.409"/>
		<path fill="none" stroke="#BFBFBF" stroke-width="3.5" stroke-miterlimit="10" stroke-opacity="0.6" d="M-420.217,629.418
			c41.109,47.47,92.918,74.214,155.424,80.235"/>
		<path fill="none" stroke="#BFBFBF" stroke-width="3.5" stroke-miterlimit="10" stroke-opacity="0.6" d="M110.029,735.059
			c-40.187,2.148-74.09,17.856-101.71,47.126"/>
		<path fill="none" stroke="#BFBFBF" stroke-width="3.5" stroke-miterlimit="10" stroke-opacity="0.6" d="M393.55,613.037
			c49.901-40.085,79.098-91.85,87.588-155.292"/>
		<path fill="none" stroke="#BFBFBF" stroke-width="3.5" stroke-miterlimit="10" stroke-opacity="0.6" d="M573.757-59.206
			c-39.297,132.648-27.432,260.55,35.595,383.71"/>
		<path fill="none" stroke="#BFBFBF" stroke-width="3.5" stroke-miterlimit="10" stroke-opacity="0.6" d="M-651.036,303.394
			c9.272,40.101,31.094,71.471,65.464,94.116"/>
		<path fill="none" stroke="#BFBFBF" stroke-width="3.5" stroke-miterlimit="10" stroke-opacity="0.6" d="M110.029,735.059
			C-69.446,582.103-276.91,512.131-512.362,525.147"/>
		<path fill="none" stroke="#BFBFBF" stroke-width="3.5" stroke-miterlimit="10" stroke-opacity="0.6" d="M-655.048-159.496
			c196.747-59.199,345.943-178.077,447.587-356.632"/>
		<path fill="none" stroke="#BFBFBF" stroke-width="3.5" stroke-miterlimit="10" stroke-opacity="0.6" d="M46.869,723.348
			l-21.507-58.016C3.857,607.313-39.156,491.278-164.614,374.896S-497.978,141.789-601.93,83.424L-705.883,25.06"/>
		<path fill="none" stroke="#BFBFBF" stroke-width="3.5" stroke-miterlimit="10" stroke-opacity="0.6" d="M526.333,456.545
			l-101.417-13.552C323.5,429.444,120.666,402.344-72.888,381.581c-193.552-20.763-377.826-35.189-469.962-42.4l-92.137-7.211"/>
		<path fill="none" stroke="#BFBFBF" stroke-width="3.5" stroke-miterlimit="10" stroke-opacity="0.6" d="M438.227-322.245
			l-86.732,116.249C264.762-89.749,91.297,142.748-36.419,310.19c-127.716,167.443-209.684,269.833-250.668,321.028l-40.984,51.195"
			/>
		<path fill="none" stroke="#BFBFBF" stroke-width="3.5" stroke-miterlimit="10" stroke-opacity="0.6" d="M633.088,44.188
			l-63.944,16.48C505.2,77.147,377.313,110.107,287.476,230.035c-89.836,119.93-141.621,326.83-167.515,430.279l-25.893,103.45"/>
		<path fill="none" stroke="#BFBFBF" stroke-width="3.5" stroke-miterlimit="10" stroke-opacity="0.6" d="M573.757-59.206
			l-54.055,33.712C465.646,8.219,357.536,75.643,274.86,206.753c-82.674,131.108-139.915,325.906-168.536,423.304l-28.619,97.397"/>
		<path fill="none" stroke="#BFBFBF" stroke-width="3.5" stroke-miterlimit="10" stroke-opacity="0.6" d="M-380.643,655.995
			l105.012-85.488c105.012-85.488,315.035-256.464,473.749-394.037C356.832,38.895,464.239-65.276,517.943-117.362l53.704-52.086"/>
		<path fill="none" stroke="#BFBFBF" stroke-width="3.5" stroke-miterlimit="10" stroke-opacity="0.6" d="M117.804,772.234
			l21.938-104.86c21.936-104.863,65.81-314.586,109.645-511.02c43.835-196.436,87.63-379.583,109.527-471.158l21.899-91.575"/>
		<path fill="none" stroke="#BFBFBF" stroke-width="3.5" stroke-miterlimit="10" stroke-opacity="0.6" d="M-529.265,529.743
			l129.782-64.446c129.782-64.446,389.345-193.339,572.83-309.869C356.832,38.895,464.239-65.276,517.943-117.362l53.704-52.086"/>
		<path fill="none" stroke="#BFBFBF" stroke-width="3.5" stroke-miterlimit="10" stroke-opacity="0.6" d="M42.312,775.652
			l34.519-105.43c34.518-105.433,103.557-316.293,192.812-465.192C358.896,56.133,468.369-30.8,523.104-74.268l54.735-43.466"/>
		<path fill="none" stroke="#BFBFBF" stroke-width="3.5" stroke-miterlimit="10" stroke-opacity="0.6" d="M372.834-394.529
			l-20.568,89.6c-20.569,89.599-61.705,268.798-55.873,430.418c5.834,161.621,58.634,305.664,85.034,377.684l26.402,72.023"/>
		<path fill="none" stroke="#BFBFBF" stroke-width="3.5" stroke-miterlimit="10" stroke-opacity="0.6" d="M329.004-437.079
			l-13.264,96.691c-13.262,96.691-39.789,290.074-49.395,475.648c-9.607,185.576-2.293,363.342,1.364,452.226l3.657,88.882"/>
		<path fill="none" stroke="#BFBFBF" stroke-width="3.5" stroke-miterlimit="10" stroke-opacity="0.6" d="M-13.981,722.229
			l43.902-96.527c43.901-96.527,131.703-289.583,229.307-438.194c97.605-148.613,205.012-252.784,258.716-304.87l53.704-52.086"/>
		<path fill="none" stroke="#BFBFBF" stroke-width="3.5" stroke-miterlimit="10" stroke-opacity="0.6" d="M-647.193,196.799
			l94.171,29.741c94.17,29.741,282.513,89.222,431.948,80.266c149.437-8.956,259.968-86.346,369.518-160.863
			C357.994,71.425,466.564-0.215,520.848-36.036l54.285-35.821"/>
		<path fill="none" stroke="#BFBFBF" stroke-width="3.5" stroke-miterlimit="10" stroke-opacity="0.6" d="M438.227-322.245
			l-31.467,77.552c-31.467,77.552-94.401,232.655-122.211,399.091s-20.497,344.203-16.84,433.087l3.657,88.882"/>
		<path fill="none" stroke="#BFBFBF" stroke-width="3.5" stroke-miterlimit="10" stroke-opacity="0.6" d="M633.088,44.188
			l-63.944,16.48C505.2,77.147,377.313,110.107,293.962,228.095C210.61,346.082,171.796,549.099,152.389,650.609l-19.407,101.507"/>
		<path fill="none" stroke="#BFBFBF" stroke-width="3.5" stroke-miterlimit="10" stroke-opacity="0.6" d="M-647.193,196.799
			l94.171,29.741c94.17,29.741,282.513,89.222,431.948,80.266c149.437-8.956,259.968-86.346,376.444-128.727
			c116.475-42.38,238.895-49.748,300.106-53.432l61.209-3.683"/>
		<path fill="none" stroke="#BFBFBF" stroke-width="3.5" stroke-miterlimit="10" stroke-opacity="0.6" d="M-146.674,743.76
			l66.017-100.115c66.016-100.115,198.049-300.346,297.128-481.309c99.077-180.961,165.201-342.651,198.263-423.497l33.061-80.845"
			/>
		<path fill="none" stroke="#BFBFBF" stroke-width="3.5" stroke-miterlimit="10" stroke-opacity="0.6" d="M-13.981,722.229
			l43.902-96.527c43.901-96.527,131.703-289.583,208.135-465.515C314.488-15.747,379.551-174.56,412.081-253.968l32.531-79.406"/>
		<path fill="none" stroke="#BFBFBF" stroke-width="3.5" stroke-miterlimit="10" stroke-opacity="0.6" d="M-279.529-487.171
			l48.366,29.058c48.366,29.058,145.095,87.175,233.253,192.214C90.25-160.859,169.837-8.895,243.466,131.728
			c73.627,140.623,141.294,269.909,175.129,334.554l33.834,64.644"/>
		<path fill="none" stroke="#BFBFBF" stroke-width="3.5" stroke-miterlimit="10" stroke-opacity="0.6" d="M460.637,546.4
			l-35.203-67.223c-35.201-67.22-105.605-201.665-180.6-344.869C169.837-8.895,90.25-160.859,14.102-270.725
			C-62.046-380.59-134.753-448.359-171.107-482.243l-36.354-33.885"/>
		<path fill="none" stroke="#BFBFBF" stroke-width="3.5" stroke-miterlimit="10" stroke-opacity="0.6" d="M-380.643,655.995
			l49.746-46.791c49.746-46.791,149.237-140.374,214.455-301.846c65.218-161.469,96.161-390.823,99.246-543.556
			s-21.688-228.843-34.075-266.898l-12.387-38.055"/>
		<path fill="none" stroke="#BFBFBF" stroke-width="3.5" stroke-miterlimit="10" stroke-opacity="0.6" d="M-249.098-495.479
			l43.293,30.443c43.294,30.443,129.881,91.329,212.967,197.753C90.25-160.859,169.837-8.895,251.233,120.146
			c81.397,129.041,164.602,235.162,206.205,288.223l41.602,53.061"/>
		<path fill="none" stroke="#BFBFBF" stroke-width="3.5" stroke-miterlimit="10" stroke-opacity="0.6" d="M436.933,534.713
			l-31.252-65.274c-31.251-65.277-93.753-195.824-164.798-337.08S90.25-160.859,32.665-274.187
			c-57.587-113.329-93.169-188.024-110.96-225.371l-17.793-37.348"/>
		<path fill="none" stroke="#BFBFBF" stroke-width="3.5" stroke-miterlimit="10" stroke-opacity="0.6" d="M-146.674,743.76
			l10.752-61.418c10.75-61.418,32.253-184.258,58.474-360.357c26.223-176.096,57.167-405.45,89.165-555.313
			c31.998-149.861,65.052-220.23,81.579-255.413l16.528-35.184"/>
		<path fill="none" stroke="#BFBFBF" stroke-width="3.5" stroke-miterlimit="10" stroke-opacity="0.6" d="M13.959-537.557
			l-0.548,37.456c-0.55,37.456-1.65,112.368,37.595,225.806C90.25-160.859,169.837-8.895,256.286,120.9
			s179.757,237.426,226.411,291.24l46.655,53.817"/>
		<path fill="none" stroke="#BFBFBF" stroke-width="3.5" stroke-miterlimit="10" stroke-opacity="0.6" d="M138.778-517.789
			l-21.352,34.161C96.073-449.466,53.367-381.144,16.542-232.305c-36.823,148.84-67.767,378.194-130.725,535.541
			C-177.14,460.583-272.113,545.919-319.6,588.589l-47.486,42.667"/>
		<path fill="none" stroke="#BFBFBF" stroke-width="3.5" stroke-miterlimit="10" stroke-opacity="0.6" d="M371.298,602.017
			l-20.312-76.492c-20.312-76.492-60.937-229.476-121.043-381.948C169.837-8.895,90.25-160.859,49.799-275.737
			C9.348-390.617,8.036-468.412,7.379-507.309l-0.655-38.897"/>
		<path fill="none" stroke="#BFBFBF" stroke-width="3.5" stroke-miterlimit="10" stroke-opacity="0.6" d="M-70.946-538.982
			l13.601,37.693c13.601,37.694,40.804,113.08,155.636,211.733C213.124-190.902,415.584-68.981,516.815-8.021l101.231,60.96"/>
		<path fill="none" stroke="#BFBFBF" stroke-width="3.5" stroke-miterlimit="10" stroke-opacity="0.6" d="M-146.674,743.76
			l10.752-61.418c10.75-61.418,32.253-184.258,58.474-360.357c26.223-176.096,57.167-405.45,97.303-555.219
			c40.135-149.768,89.464-219.948,114.129-255.039l24.663-35.09"/>
		<path fill="none" stroke="#BFBFBF" stroke-width="3.5" stroke-miterlimit="10" stroke-opacity="0.6" d="M-306.274-501.855
			l52.823,31.506c52.822,31.506,158.467,94.517,312.294,198.32C212.67-168.227,414.678-23.631,515.682,48.666l101.003,72.297"/>
		<path fill="none" stroke="#BFBFBF" stroke-width="3.5" stroke-miterlimit="10" stroke-opacity="0.6" d="M-279.529-487.171
			l48.366,29.058c48.366,29.058,145.095,87.175,233.253,192.214C90.25-160.859,169.837-8.895,230.854,144.583
			c61.017,153.478,103.462,308.476,124.686,385.972l21.223,77.499"/>
		<path fill="none" stroke="#BFBFBF" stroke-width="3.5" stroke-miterlimit="10" stroke-opacity="0.6" d="M538.127,456.588
			l-48.116-52.255c-48.118-52.255-144.352-156.761-232.262-284.995C169.837-8.895,90.25-160.859,58.368-275.297
			c-31.884-114.438-16.06-191.352-8.15-229.809l7.912-38.457"/>
		<path fill="none" stroke="#BFBFBF" stroke-width="3.5" stroke-miterlimit="10" stroke-opacity="0.6" d="M-70.946-538.982
			l13.601,37.693c13.601,37.694,40.804,113.08,94.199,226.755C90.25-160.859,169.837-8.895,249.777,119.675
			s160.231,233.752,200.375,286.342l40.146,52.59"/>
		<path fill="none" stroke="#BFBFBF" stroke-width="3.5" stroke-miterlimit="10" stroke-opacity="0.6" d="M-457.713-319.381
			l78.063,1.093c78.061,1.093,234.186,3.279,364.851-19.221c130.663-22.5,235.866-69.687,288.467-93.279l52.6-23.594"/>
		<path fill="none" stroke="#BFBFBF" stroke-width="3.5" stroke-miterlimit="10" stroke-opacity="0.6" d="M-476.212-346.138
			l81.145,5.553c81.146,5.552,243.438,16.657,381.695,1.753c138.257-14.905,252.482-55.821,309.595-76.279l57.111-20.458"/>
		<path fill="none" stroke="#BFBFBF" stroke-width="3.5" stroke-miterlimit="10" stroke-opacity="0.6" d="M-163.65-526.044
			l29.051,35.537C-105.546-454.97-47.442-383.895,69.6-330.608c117.043,53.288,293.023,88.79,381.014,106.541l87.991,17.751"/>
		<path fill="none" stroke="#BFBFBF" stroke-width="3.5" stroke-miterlimit="10" stroke-opacity="0.6" d="M-275.092,704.416
			l-14.61-113.004c-14.609-113.001-43.826-339.005-96.624-489.27c-52.799-150.266-129.176-224.791-167.364-262.055l-38.19-37.264"/>
		<path fill="none" stroke="#BFBFBF" stroke-width="3.5" stroke-miterlimit="10" stroke-opacity="0.6" d="M494.18,449.696
			l-96.057-12.408c-96.059-12.408-288.175-37.225-430.995-107.776C-175.695,258.964-269.22,142.683-344.636,29.809
			s-132.723-222.34-161.376-277.074l-28.653-54.733"/>
		<path fill="none" stroke="#BFBFBF" stroke-width="3.5" stroke-miterlimit="10" stroke-opacity="0.6" d="M526.333,456.545
			l-101.417-13.552C323.5,429.444,120.666,402.344-27.514,330.652c-148.18-71.688-241.706-187.969-329.933-276.448
			C-445.674-34.276-528.6-94.954-570.065-125.293l-41.463-30.339"/>
		<path fill="none" stroke="#BFBFBF" stroke-width="3.5" stroke-miterlimit="10" stroke-opacity="0.6" d="M526.333,456.545
			l-101.417-13.552C323.5,429.444,120.666,402.344-27.514,330.652c-148.18-71.688-241.706-187.969-327.625-271.327
			c-85.919-83.358-164.23-133.793-203.385-159.011l-39.155-25.218"/>
		<path fill="none" stroke="#BFBFBF" stroke-width="3.5" stroke-miterlimit="10" stroke-opacity="0.6" d="M-555.414,478.309
			l32.112-75.317c32.112-75.317,96.333-225.954,99.791-356.005s-53.848-239.518-82.501-294.252l-28.653-54.733"/>
		<path fill="none" stroke="#BFBFBF" stroke-width="3.5" stroke-miterlimit="10" stroke-opacity="0.6" d="M-655.048-159.496
			l48.717,30.984C-557.613-97.529-460.18-35.563-248.224,11.18s538.432,78.263,701.672,94.023l163.238,15.761"/>
		<path fill="none" stroke="#BFBFBF" stroke-width="3.5" stroke-miterlimit="10" stroke-opacity="0.6" d="M-573.308-142.019
			l35.093,28.07c35.094,28.07,105.281,84.211,276.901,51.418c171.619-32.792,444.671-154.518,581.198-215.381l136.525-60.862"/>
		<path fill="none" stroke="#BFBFBF" stroke-width="3.5" stroke-miterlimit="10" stroke-opacity="0.6" d="M-573.308-142.019
			l35.093,28.07c35.094,28.07,105.281,84.211,303.872,114.151C-35.75,30.139,291.246,33.877,454.744,35.745l163.499,1.869"/>
		<path fill="none" stroke="#BFBFBF" stroke-width="3.5" stroke-miterlimit="10" stroke-opacity="0.6" d="M-643.495-94.771
			l46.791,20.196c46.791,20.196,140.374,60.586,233.929,138.922c93.555,78.336,187.08,194.617,344.695,245.623
			c157.614,51.003,379.317,36.735,490.169,29.598l110.85-7.134"/>
		<path fill="none" stroke="#BFBFBF" stroke-width="3.5" stroke-miterlimit="10" stroke-opacity="0.6" d="M-522.816,506.339
			l26.677-79.987c26.679-79.991,80.036-239.97,122.485-409.611c42.45-169.641,73.991-348.943,89.762-438.594l15.771-89.652"/>
		<path fill="none" stroke="#BFBFBF" stroke-width="3.5" stroke-miterlimit="10" stroke-opacity="0.6" d="M-279.529-487.171
			l-13.869,85.596c-13.869,85.595-41.608,256.787-49.7,451.718c-8.09,194.928,3.468,413.601,9.247,522.935l5.78,109.335"/>
		<path fill="none" stroke="#BFBFBF" stroke-width="3.5" stroke-miterlimit="10" stroke-opacity="0.6" d="M-476.212-346.138
			l18.91,62.09c18.911,62.09,56.734,186.271,236.163,254.807c179.43,68.538,500.468,81.433,660.987,87.882l160.519,6.448"/>
		<path fill="none" stroke="#BFBFBF" stroke-width="3.5" stroke-miterlimit="10" stroke-opacity="0.6" d="M-529.116-226.431
			l27.728,42.139c27.728,42.139,83.186,126.417,157.677,226.697C-269.22,142.683-175.695,258.964-93.73,374.339
			C-11.765,489.71,58.637,604.177,93.838,661.412l35.201,57.232"/>
		<path fill="none" stroke="#BFBFBF" stroke-width="3.5" stroke-miterlimit="10" stroke-opacity="0.6" d="M-413.029-446.107
			l8.38,78.752c8.381,78.752,25.142,236.255,39.301,424.341c14.161,188.086,25.718,406.758,31.498,516.093l5.78,109.335"/>
		<path fill="none" stroke="#BFBFBF" stroke-width="3.5" stroke-miterlimit="10" stroke-opacity="0.6" d="M436.933,534.713
			l-86.517-26.58C263.899,481.557,90.866,428.4-42.414,343.68C-175.695,258.964-269.22,142.683-354.172,47.28
			c-84.954-95.403-161.331-169.929-199.519-207.192l-38.19-37.264"/>
		<path fill="none" stroke="#BFBFBF" stroke-width="3.5" stroke-miterlimit="10" stroke-opacity="0.6" d="M-631.934-190.699
			l44.864,36.183c44.865,36.184,134.594,108.551,226.222,202.875c91.629,94.323,185.154,210.604,246.968,325.251
			S-21.966,601.27-6.915,657.776l15.05,56.51"/>
		<path fill="none" stroke="#BFBFBF" stroke-width="3.5" stroke-miterlimit="10" stroke-opacity="0.6" d="M46.869,723.348
			l-21.507-58.016C3.857,607.313-39.156,491.278-107.424,375.12c-68.27-116.156-161.796-232.437-241.744-332.202
			c-79.949-99.767-146.319-183.017-179.505-224.643l-33.185-41.625"/>
		<path fill="none" stroke="#BFBFBF" stroke-width="3.5" stroke-miterlimit="10" stroke-opacity="0.6" d="M-647.193,196.799
			l47.408-28.399c47.408-28.399,142.223-85.198,215.512-204.019c73.289-118.822,125.051-299.666,150.932-390.087l25.881-90.422"/>
		<path fill="none" stroke="#BFBFBF" stroke-width="3.5" stroke-miterlimit="10" stroke-opacity="0.6" d="M-529.265,529.743
			l27.753-83.892c27.753-83.889,83.26-251.667,76.842-381.097s-74.761-220.509-108.932-266.048l-34.171-45.539"/>
		<path fill="none" stroke="#BFBFBF" stroke-width="3.5" stroke-miterlimit="10" stroke-opacity="0.6" d="M-486.585-354.554
			l20.641,63.493c20.639,63.493,61.917,190.478,129.322,312.111c67.403,121.633,160.928,237.914,266.614,346.242
			s223.53,208.703,282.452,258.891l58.922,50.185"/>
		<path fill="none" stroke="#BFBFBF" stroke-width="3.5" stroke-miterlimit="10" stroke-opacity="0.6" d="M-256.173-506.808
			l-17.762,88.868c-17.763,88.868-53.287,266.605-24.287,413.614c29.002,147.009,122.527,263.29,181.818,389.247
			c59.289,125.961,84.343,261.599,96.871,329.42l12.526,67.818"/>
		<path fill="none" stroke="#BFBFBF" stroke-width="3.5" stroke-miterlimit="10" stroke-opacity="0.6" d="M371.298,602.017
			l-75.578-37.795C220.143,526.427,68.988,450.834-53.353,354.899S-269.22,142.683-354.347,34.359
			c-85.126-108.326-161.851-208.695-200.215-258.881l-38.364-50.186"/>
		<path fill="none" stroke="#BFBFBF" stroke-width="3.5" stroke-miterlimit="10" stroke-opacity="0.6" d="M-598.039-245.155
			l39.216,45.26c39.216,45.259,117.646,135.78,317.954,163.334c200.308,27.556,522.495-7.851,683.588-25.556l161.094-17.704"/>
		<path fill="none" stroke="#BFBFBF" stroke-width="3.5" stroke-miterlimit="10" stroke-opacity="0.6" d="M-413.029-446.107
			l8.38,78.752c8.381,78.752,25.142,236.255,80.285,373.146c55.145,136.892,148.67,253.173,230.635,368.548
			C-11.765,489.71,58.637,604.177,93.838,661.412l35.201,57.232"/>
		<path fill="none" stroke="#BFBFBF" stroke-width="3.5" stroke-miterlimit="10" stroke-opacity="0.6" d="M-573.308-142.019
			l35.093,28.07c35.094,28.07,105.281,84.211,193.108,19.97c87.826-64.242,193.292-248.864,246.026-341.176l52.732-92.311"/>
		<path fill="none" stroke="#BFBFBF" stroke-width="3.5" stroke-miterlimit="10" stroke-opacity="0.6" d="M-529.116-226.431
			l27.728,42.139c27.728,42.139,83.186,126.417,116.693,277.89c33.508,151.473,45.065,370.145,50.845,479.48l5.78,109.335"/>
		<path fill="none" stroke="#BFBFBF" stroke-width="3.5" stroke-miterlimit="10" stroke-opacity="0.6" d="M154.863,755.106
			l-39.506-63.312C75.852,628.485-3.158,501.864-89.425,380.413c-86.269-121.449-179.794-237.73-269.379-336.308
			c-89.585-98.58-175.228-179.458-218.051-219.897l-42.822-40.439"/>
		<path fill="none" stroke="#BFBFBF" stroke-width="3.5" stroke-miterlimit="10" stroke-opacity="0.6" d="M-631.934-190.699
			l44.864,36.183c44.865,36.184,134.594,108.551,226.222,202.875c91.629,94.323,185.154,210.604,272.286,328.613
			C-1.432,494.985,79.304,614.726,119.671,674.595l40.367,59.872"/>
		<path fill="none" stroke="#BFBFBF" stroke-width="3.5" stroke-miterlimit="10" stroke-opacity="0.6" d="M-279.529-487.171
			l-13.869,85.596c-13.869,85.595-41.608,256.787-8.716,400.523C-269.22,142.683-175.695,258.964-93.73,374.339
			C-11.765,489.71,58.637,604.177,93.838,661.412l35.201,57.232"/>
	</g>
	<g id="nodesLayer">
		<path fill="#979797" stroke="#BFBFBF" stroke-miterlimit="10" d="M523.774,456.545c0-1.413,1.145-2.56,2.56-2.56
			c1.413,0,2.56,1.147,2.56,2.56c0,1.413-1.147,2.56-2.56,2.56C524.919,459.105,523.774,457.958,523.774,456.545z"/>
		<path fill="#1B1B1B" stroke="#BFBFBF" stroke-miterlimit="10" d="M-14.98,722.229c0-0.552,0.448-1.001,0.999-1.001
			c0.553,0,1.001,0.449,1.001,1.001s-0.448,1.001-1.001,1.001C-14.533,723.23-14.98,722.78-14.98,722.229z"/>
		<path fill="#595959" stroke="#BFBFBF" stroke-miterlimit="10" d="M-659.834,303.394c0-4.859,3.939-8.798,8.798-8.798
			s8.798,3.939,8.798,8.798s-3.939,8.798-8.798,8.798S-659.834,308.253-659.834,303.394z"/>
		<path fill="#6E6E6E" stroke="#BFBFBF" stroke-miterlimit="10" d="M-477.213-346.138c0-0.552,0.448-0.999,1.001-0.999
			c0.552,0,0.999,0.448,0.999,0.999c0,0.552-0.448,1-0.999,1C-476.766-345.137-477.213-345.585-477.213-346.138z"/>
		<path fill="#303030" stroke="#BFBFBF" stroke-miterlimit="10" d="M317.085-437.079c0-6.582,5.336-11.918,11.919-11.918
			c6.582,0,11.917,5.336,11.917,11.918c0,6.582-5.335,11.918-11.917,11.918C322.421-425.161,317.085-430.497,317.085-437.079z"/>
		<path fill="#444444" stroke="#BFBFBF" stroke-miterlimit="10" d="M426.575,534.713c0-5.721,4.638-10.36,10.358-10.36
			s10.358,4.639,10.358,10.36s-4.638,10.357-10.358,10.357S426.575,540.434,426.575,534.713z"/>
		<path fill="#ACACAC" stroke="#BFBFBF" stroke-miterlimit="10" d="M530.889,456.588c0-3.998,3.24-7.239,7.238-7.239
			c3.999,0,7.239,3.242,7.239,7.239s-3.24,7.236-7.239,7.236C534.129,463.824,530.889,460.586,530.889,456.588z"/>
		<path fill="#ACACAC" stroke="#BFBFBF" stroke-miterlimit="10" d="M372.741-366.454c0-21.226,17.207-38.433,38.432-38.433
			c21.226,0,38.433,17.207,38.433,38.433s-17.207,38.433-38.433,38.433C389.948-328.021,372.741-345.228,372.741-366.454z"/>
		<path fill="#444444" stroke="#BFBFBF" stroke-miterlimit="10" d="M490.06,449.696c0-2.275,1.845-4.119,4.12-4.119
			c2.275,0,4.12,1.844,4.12,4.119s-1.845,4.122-4.12,4.122C491.906,453.818,490.06,451.971,490.06,449.696z"/>
		<path fill="#979797" stroke="#BFBFBF" stroke-miterlimit="10" d="M-707.496,72.4c0-29.84,24.191-54.031,54.031-54.031
			s54.031,24.191,54.031,54.031s-24.191,54.029-54.031,54.029S-707.496,102.24-707.496,72.4z"/>
		<path fill="#6E6E6E" stroke="#BFBFBF" stroke-miterlimit="10" d="M-648.532-190.699c0-9.167,7.431-16.597,16.598-16.597
			c9.165,0,16.597,7.431,16.597,16.597c0,9.166-7.431,16.597-16.597,16.597C-641.101-174.101-648.532-181.533-648.532-190.699z"/>
		<path fill="#1B1B1B" stroke="#BFBFBF" stroke-miterlimit="10" d="M-541.184,529.743c0-6.582,5.336-11.919,11.919-11.919
			c6.581,0,11.917,5.336,11.917,11.919c0,6.582-5.336,11.916-11.917,11.916C-535.847,541.658-541.184,536.325-541.184,529.743z"/>
		<path fill="#D6D6D6" stroke="#BFBFBF" stroke-miterlimit="10" d="M144.505,755.106c0-5.721,4.638-10.36,10.358-10.36
			s10.357,4.639,10.357,10.36s-4.636,10.357-10.357,10.357S144.505,760.826,144.505,755.106z"/>
		<path fill="#C1C1C1" stroke="#BFBFBF" stroke-miterlimit="10" d="M402.176,595.391c0-10.028,8.129-18.157,18.157-18.157
			c10.027,0,18.157,8.129,18.157,18.157c0,10.025-8.13,18.157-18.157,18.157C410.305,613.548,402.176,605.416,402.176,595.391z"/>
		<path fill="#595959" stroke="#BFBFBF" stroke-miterlimit="10" d="M543.9-209.536c0-6.582,5.335-11.918,11.917-11.918
			c6.582,0,11.919,5.336,11.919,11.918c0,6.582-5.336,11.918-11.919,11.918C549.235-197.618,543.9-202.953,543.9-209.536z"/>
		<path fill="#595959" stroke="#BFBFBF" stroke-miterlimit="10" d="M-313.512-501.855c0-3.999,3.24-7.239,7.238-7.239
			c3.999,0,7.239,3.241,7.239,7.239c0,3.998-3.24,7.238-7.239,7.238C-310.272-494.617-313.512-497.858-313.512-501.855z"/>
		<path fill="#979797" stroke="#BFBFBF" stroke-miterlimit="10" d="M-674.763-159.496c0-10.888,8.827-19.716,19.716-19.716
			c10.89,0,19.717,8.827,19.717,19.716c0,10.89-8.827,19.717-19.717,19.717C-665.936-139.779-674.763-148.606-674.763-159.496z"/>
		<path fill="#C1C1C1" stroke="#BFBFBF" stroke-miterlimit="10" d="M448.718,546.4c0-6.582,5.336-11.916,11.919-11.916
			c6.582,0,11.917,5.333,11.917,11.916s-5.335,11.919-11.917,11.919C454.055,558.318,448.718,552.982,448.718,546.4z"/>
		<path fill="#ACACAC" stroke="#BFBFBF" stroke-miterlimit="10" d="M-622.434-245.155c0-13.474,10.922-24.396,24.395-24.396
			c13.474,0,24.397,10.922,24.397,24.396s-10.922,24.395-24.397,24.395C-611.512-220.76-622.434-231.682-622.434-245.155z"/>
		<path fill="#303030" stroke="#BFBFBF" stroke-miterlimit="10" d="M627.409,44.188c0-3.136,2.543-5.679,5.679-5.679
			c3.136,0,5.679,2.543,5.679,5.679c0,3.136-2.543,5.679-5.679,5.679C629.952,49.867,627.409,47.325,627.409,44.188z"/>
		<path fill="#C1C1C1" stroke="#BFBFBF" stroke-miterlimit="10" d="M-518.529-446.107c0-58.266,47.233-105.5,105.5-105.5
			c58.265,0,105.5,47.234,105.5,105.5c0,58.266-47.234,105.5-105.5,105.5C-471.296-340.607-518.529-387.841-518.529-446.107z"/>
		<path fill="#303030" stroke="#BFBFBF" stroke-miterlimit="10" d="M-391.002,655.995c0-5.721,4.638-10.357,10.358-10.357
			s10.358,4.636,10.358,10.357s-4.638,10.36-10.358,10.36S-391.002,661.715-391.002,655.995z"/>
		<path fill="#6E6E6E" stroke="#BFBFBF" stroke-miterlimit="10" d="M-300.805-487.171c0-11.75,9.526-21.276,21.276-21.276
			c11.751,0,21.278,9.526,21.278,21.276s-9.526,21.277-21.278,21.277C-291.278-465.894-300.805-475.42-300.805-487.171z"/>
		<path fill="#595959" stroke="#BFBFBF" stroke-miterlimit="10" d="M-253.218-495.479c0-2.275,1.845-4.119,4.12-4.119
			c2.275,0,4.12,1.844,4.12,4.119c0,2.275-1.845,4.119-4.12,4.119C-251.373-491.36-253.218-493.204-253.218-495.479z"/>
		<path fill="#444444" stroke="#BFBFBF" stroke-miterlimit="10" d="M-533.174,506.339c0-5.721,4.638-10.357,10.358-10.357
			s10.358,4.636,10.358,10.357s-4.638,10.36-10.358,10.36S-533.174,512.06-533.174,506.339z"/>
		<path fill="#ACACAC" stroke="#BFBFBF" stroke-miterlimit="10" d="M-686.606-94.771c0-23.809,19.302-43.111,43.111-43.111
			c23.811,0,43.113,19.302,43.113,43.111c0,23.811-19.302,43.113-43.113,43.113C-667.304-51.658-686.606-70.96-686.606-94.771z"/>
		<path fill="#838383" stroke="#BFBFBF" stroke-miterlimit="10" d="M-496.943-354.554c0-5.721,4.638-10.358,10.358-10.358
			s10.358,4.638,10.358,10.358s-4.638,10.358-10.358,10.358S-496.943-348.834-496.943-354.554z"/>
		<path fill="#C1C1C1" stroke="#BFBFBF" stroke-miterlimit="10" d="M444.893,500.213c0-20.363,16.51-36.872,36.875-36.872
			c20.363,0,36.871,16.508,36.871,36.872c0,20.363-16.508,36.875-36.871,36.875C461.402,537.087,444.893,520.576,444.893,500.213z"
			/>
		<path fill="#838383" stroke="#BFBFBF" stroke-miterlimit="10" d="M307.345-425.738c0-3.137,2.541-5.68,5.679-5.68
			c3.136,0,5.679,2.543,5.679,5.68c0,3.136-2.543,5.679-5.679,5.679C309.886-420.06,307.345-422.602,307.345-425.738z"/>
		<path fill="#ACACAC" stroke="#BFBFBF" stroke-miterlimit="10" d="M-544.154-226.431c0-8.305,6.732-15.038,15.038-15.038
			c8.304,0,15.036,6.732,15.036,15.038c0,8.304-6.731,15.037-15.036,15.037S-544.154-218.126-544.154-226.431z"/>
		<path fill="#6E6E6E" stroke="#BFBFBF" stroke-miterlimit="10" d="M-71.947-538.982c0-0.552,0.448-1,1.001-1
			c0.552,0,0.999,0.448,0.999,1s-0.448,1-0.999,1C-71.499-537.981-71.947-538.429-71.947-538.982z"/>
		<path fill="#595959" stroke="#BFBFBF" stroke-miterlimit="10" d="M-263.412-506.808c0-3.998,3.242-7.239,7.239-7.239
			s7.239,3.241,7.239,7.239c0,3.998-3.242,7.238-7.239,7.238S-263.412-502.811-263.412-506.808z"/>
		<path fill="#ACACAC" stroke="#BFBFBF" stroke-miterlimit="10" d="M-455.53,629.418c0-19.505,15.809-35.313,35.313-35.313
			s35.314,15.811,35.314,35.313c0,19.502-15.811,35.313-35.314,35.313S-455.53,648.92-455.53,629.418z"/>
		<path fill="#303030" stroke="#BFBFBF" stroke-miterlimit="10" d="M155.247-508.057c0-6.582,5.336-11.919,11.919-11.919
			c6.582,0,11.917,5.336,11.917,11.919c0,6.582-5.335,11.918-11.917,11.918C160.584-496.139,155.247-501.475,155.247-508.057z"/>
		<path fill="#444444" stroke="#BFBFBF" stroke-miterlimit="10" d="M30.393,775.652c0-6.582,5.336-11.919,11.919-11.919
			c6.582,0,11.917,5.336,11.917,11.919c0,6.582-5.335,11.919-11.917,11.919C35.729,787.571,30.393,782.234,30.393,775.652z"/>
		<path fill="#ACACAC" stroke="#BFBFBF" stroke-miterlimit="10" d="M-721.5,196.799c0-41.038,33.269-74.306,74.307-74.306
			c41.038,0,74.306,33.267,74.306,74.306c0,41.036-33.267,74.307-74.306,74.307C-688.231,271.106-721.5,237.835-721.5,196.799z"/>
		<path fill="#444444" stroke="#BFBFBF" stroke-miterlimit="10" d="M-280.773,704.416c0-3.136,2.543-5.68,5.68-5.68
			c3.136,0,5.679,2.544,5.679,5.68s-2.543,5.68-5.679,5.68C-278.23,710.096-280.773,707.552-280.773,704.416z"/>
		<path fill="#595959" stroke="#BFBFBF" stroke-miterlimit="10" d="M123.74-517.789c0-8.305,6.734-15.038,15.038-15.038
			c8.305,0,15.038,6.733,15.038,15.038c0,8.304-6.732,15.037-15.038,15.037C130.474-502.752,123.74-509.484,123.74-517.789z"/>
		<path fill="#C1C1C1" stroke="#BFBFBF" stroke-miterlimit="10" d="M495.51,428.32c0-13.474,10.922-24.398,24.397-24.398
			c13.473,0,24.395,10.924,24.395,24.398c0,13.471-10.922,24.395-24.395,24.395C506.432,452.715,495.51,441.791,495.51,428.32z"/>
		<path fill="#979797" stroke="#BFBFBF" stroke-miterlimit="10" d="M-571.005,421.369c0-0.555,0.448-1.001,1.001-1.001
			c0.552,0,0.999,0.446,0.999,1.001c0,0.552-0.448,0.998-0.999,0.998C-570.557,422.366-571.005,421.92-571.005,421.369z"/>
		<path fill="#444444" stroke="#BFBFBF" stroke-miterlimit="10" d="M545.845,422.097c0-9.167,7.431-16.598,16.598-16.598
			s16.597,7.431,16.597,16.598c0,9.164-7.43,16.595-16.597,16.595S545.845,431.26,545.845,422.097z"/>
		<path fill="#444444" stroke="#BFBFBF" stroke-miterlimit="10" d="M363.469,580.907c0-10.89,8.827-19.716,19.717-19.716
			c10.888,0,19.716,8.826,19.716,19.716s-8.827,19.716-19.716,19.716C372.296,600.622,363.469,591.796,363.469,580.907z"/>
		<path fill="#D6D6D6" stroke="#BFBFBF" stroke-miterlimit="10" d="M-475.87-319.381c0-10.028,8.129-18.157,18.157-18.157
			c10.028,0,18.157,8.129,18.157,18.157c0,10.027-8.129,18.157-18.157,18.157C-467.741-301.224-475.87-309.354-475.87-319.381z"/>
		<path fill="#979797" stroke="#BFBFBF" stroke-miterlimit="10" d="M368.739,602.017c0-1.413,1.147-2.56,2.56-2.56
			c1.415,0,2.56,1.147,2.56,2.56s-1.145,2.56-2.56,2.56C369.885,604.576,368.739,603.43,368.739,602.017z"/>
		<path fill="#303030" stroke="#BFBFBF" stroke-miterlimit="10" d="M8.28-537.557c0-3.136,2.543-5.679,5.679-5.679
			c3.138,0,5.68,2.543,5.68,5.679c0,3.137-2.543,5.679-5.68,5.679C10.823-531.878,8.28-534.42,8.28-537.557z"/>
		<path fill="#979797" stroke="#BFBFBF" stroke-miterlimit="10" d="M45.868,723.348c0-0.552,0.448-0.998,1.001-0.998
			c0.552,0,0.999,0.446,0.999,0.998c0,0.555-0.448,1.001-0.999,1.001C46.316,724.349,45.868,723.902,45.868,723.348z"/>
		<path fill="#1B1B1B" stroke="#BFBFBF" stroke-miterlimit="10" d="M435.667-322.245c0-1.413,1.147-2.559,2.56-2.559
			s2.56,1.146,2.56,2.559c0,1.414-1.147,2.56-2.56,2.56S435.667-320.831,435.667-322.245z"/>
		<path fill="#979797" stroke="#BFBFBF" stroke-miterlimit="10" d="M329.927-410.524c0-10.889,8.829-19.716,19.717-19.716
			c10.89,0,19.717,8.828,19.717,19.716c0,10.889-8.828,19.716-19.717,19.716C338.756-390.808,329.927-399.635,329.927-410.524z"/>
		<path fill="#595959" stroke="#BFBFBF" stroke-miterlimit="10" d="M-166.21-526.044c0-1.414,1.145-2.56,2.56-2.56
			c1.413,0,2.56,1.146,2.56,2.56c0,1.414-1.147,2.56-2.56,2.56C-165.065-523.484-166.21-524.63-166.21-526.044z"/>
		<path fill="#444444" stroke="#BFBFBF" stroke-miterlimit="10" d="M541.02,406.862c0-1.416,1.147-2.56,2.56-2.56
			s2.56,1.143,2.56,2.56c0,1.413-1.147,2.56-2.56,2.56S541.02,408.275,541.02,406.862z"/>
		<path fill="#6E6E6E" stroke="#BFBFBF" stroke-miterlimit="10" d="M-160.152,743.76c0-7.441,6.034-13.477,13.477-13.477
			s13.477,6.037,13.477,13.477c0,7.444-6.034,13.477-13.477,13.477S-160.152,751.204-160.152,743.76z"/>
		<path fill="#595959" stroke="#BFBFBF" stroke-miterlimit="10" d="M370.274-394.529c0-1.414,1.145-2.56,2.56-2.56
			c1.413,0,2.56,1.146,2.56,2.56c0,1.414-1.147,2.56-2.56,2.56C371.419-391.97,370.274-393.116,370.274-394.529z"/>
		<path fill="#6E6E6E" stroke="#BFBFBF" stroke-miterlimit="10" d="M109.028,735.059c0-0.552,0.448-1.001,1.001-1.001
			c0.552,0,1,0.449,1,1.001c0,0.552-0.448,0.998-1,0.998C109.476,736.056,109.028,735.61,109.028,735.059z"/>
		<path fill="#6E6E6E" stroke="#BFBFBF" stroke-miterlimit="10" d="M572.756-59.206c0-0.553,0.448-1.001,1.001-1.001
			c0.552,0,0.999,0.448,0.999,1.001c0,0.552-0.448,0.999-0.999,0.999C573.204-58.206,572.756-58.654,572.756-59.206z"/>
		<path fill="#FFFFFF" stroke="#BFBFBF" stroke-miterlimit="10" d="M-650.872,34.713c0-3.136,2.543-5.679,5.679-5.679
			c3.136,0,5.679,2.543,5.679,5.679c0,3.136-2.543,5.679-5.679,5.679C-648.329,40.392-650.872,37.849-650.872,34.713z"/>
		<path fill="#6E6E6E" stroke="#BFBFBF" stroke-miterlimit="10" d="M-606.093,419.357c0-9.167,7.431-16.598,16.596-16.598
			c9.167,0,16.598,7.431,16.598,16.598s-7.431,16.598-16.598,16.598C-598.662,435.955-606.093,428.524-606.093,419.357z"/>
		<path fill="#595959" stroke="#BFBFBF" stroke-miterlimit="10" d="M495.84,443.099c0-0.555,0.448-1.001,0.999-1.001
			c0.553,0,1.001,0.446,1.001,1.001c0,0.552-0.448,0.998-1.001,0.998C496.287,444.096,495.84,443.65,495.84,443.099z"/>
		<path fill="#444444" stroke="#BFBFBF" stroke-miterlimit="10" d="M229.72-497.019c0-2.275,1.845-4.119,4.12-4.119
			c2.275,0,4.119,1.845,4.119,4.119c0,2.275-1.844,4.12-4.119,4.12C231.566-492.898,229.72-494.743,229.72-497.019z"/>
		<path fill="#C1C1C1" stroke="#BFBFBF" stroke-miterlimit="10" d="M-586.049,478.309c0-16.92,13.716-30.633,30.635-30.633
			c16.919,0,30.633,13.713,30.633,30.633c0,16.92-13.715,30.633-30.633,30.633C-572.333,508.942-586.049,495.229-586.049,478.309z"
			/>
		<path fill="#D6D6D6" stroke="#BFBFBF" stroke-miterlimit="10" d="M-588.795-270.557c0-0.552,0.448-1,1.001-1
			c0.552,0,0.999,0.448,0.999,1c0,0.552-0.448,1-0.999,1C-588.347-269.557-588.795-270.005-588.795-270.557z"/>
		<path fill="#D6D6D6" stroke="#BFBFBF" stroke-miterlimit="10" d="M-131.384,749.404c0-33.286,26.983-60.269,60.269-60.269
			s60.269,26.983,60.269,60.269c0,33.283-26.983,60.269-60.269,60.269S-131.384,782.687-131.384,749.404z"/>
		<path fill="#303030" stroke="#BFBFBF" stroke-miterlimit="10" d="M411.915,544.187c0-3.998,3.241-7.236,7.239-7.236
			s7.239,3.238,7.239,7.236c0,4.001-3.242,7.239-7.239,7.239S411.915,548.188,411.915,544.187z"/>
		<path fill="#ACACAC" stroke="#BFBFBF" stroke-miterlimit="10" d="M104.327,772.234c0-7.444,6.034-13.477,13.477-13.477
			s13.477,6.034,13.477,13.477s-6.034,13.477-13.477,13.477S104.327,779.677,104.327,772.234z"/>
		<path fill="#444444" stroke="#BFBFBF" stroke-miterlimit="10" d="M342.699-434.399c0-1.414,1.145-2.56,2.56-2.56
			c1.413,0,2.56,1.146,2.56,2.56c0,1.414-1.147,2.56-2.56,2.56C343.844-431.839,342.699-432.985,342.699-434.399z"/>
		<path fill="#838383" stroke="#BFBFBF" stroke-miterlimit="10" d="M-589.904-142.019c0-9.165,7.43-16.597,16.596-16.597
			s16.596,7.431,16.596,16.597c0,9.167-7.43,16.598-16.596,16.598S-589.904-132.853-589.904-142.019z"/>
		<path fill="#C1C1C1" stroke="#BFBFBF" stroke-miterlimit="10" d="M454-306.027c0-38.453,31.172-69.627,69.628-69.627
			c38.454,0,69.626,31.173,69.626,69.627c0,38.454-31.172,69.627-69.626,69.627C485.173-236.4,454-267.573,454-306.027z"/>
		<path fill="#444444" stroke="#BFBFBF" stroke-miterlimit="10" d="M381.633,613.037c0-6.582,5.335-11.919,11.917-11.919
			c6.582,0,11.919,5.336,11.919,11.919s-5.336,11.919-11.919,11.919C386.968,624.955,381.633,619.619,381.633,613.037
			L381.633,613.037z"/>
		<path fill="#6E6E6E" stroke="#BFBFBF" stroke-miterlimit="10" d="M-156.87,782.352c0-6.582,5.335-11.919,11.917-11.919
			s11.919,5.336,11.919,11.919c0,6.582-5.336,11.919-11.919,11.919S-156.87,788.934-156.87,782.352z"/>
		<path fill="#0C446A" stroke="#AEC7E8" stroke-miterlimit="10" d="M-247.818-516.128c0-22.289,18.069-40.358,40.358-40.358
			c22.289,0,40.358,18.069,40.358,40.358c0,22.289-18.069,40.358-40.358,40.358C-229.75-475.771-247.818-493.839-247.818-516.128z"
			/>
		<path fill="#145E8F" stroke="#AEC7E8" stroke-miterlimit="10" d="M-613.861-197.176c0-12.139,9.841-21.979,21.979-21.979
			s21.979,9.84,21.979,21.979s-9.841,21.979-21.979,21.979S-613.861-185.038-613.861-197.176z"/>
		<path fill="#125988" stroke="#AEC7E8" stroke-miterlimit="10" d="M-528.704,567.624c0-25.672,20.811-46.485,46.483-46.485
			c25.673,0,46.485,20.813,46.485,46.485c0,25.672-20.811,46.484-46.485,46.484C-507.893,614.109-528.704,593.296-528.704,567.624z"
			/>
		<path fill="#1A6DA5" stroke="#AEC7E8" stroke-miterlimit="10" d="M523.07-161.377c0-8.755,7.098-15.853,15.853-15.853
			c8.756,0,15.853,7.098,15.853,15.853c0,8.755-7.097,15.853-15.853,15.853C530.168-145.524,523.07-152.622,523.07-161.377z"/>
		<path fill="#1A6DA5" stroke="#AEC7E8" stroke-miterlimit="10" d="M-577.711-223.35c0-8.755,7.097-15.853,15.853-15.853
			c8.755,0,15.853,7.097,15.853,15.853s-7.098,15.853-15.853,15.853C-570.615-207.497-577.711-214.595-577.711-223.35z"/>
		<path fill="#145E8F" stroke="#AEC7E8" stroke-miterlimit="10" d="M-259.092,707.933c0-1.986,1.611-3.598,3.601-3.598
			c1.988,0,3.599,1.611,3.599,3.598c0,1.99-1.611,3.601-3.599,3.601C-257.481,711.534-259.092,709.923-259.092,707.933z"/>
		<path fill="#166397" stroke="#AEC7E8" stroke-miterlimit="10" d="M594.534,6.009c0-1.988,1.611-3.599,3.599-3.599
			c1.988,0,3.601,1.611,3.601,3.599c0,1.99-1.613,3.601-3.601,3.601C596.146,9.61,594.534,7.999,594.534,6.009z"/>
		<path fill="#166397" stroke="#AEC7E8" stroke-miterlimit="10" d="M560.961,332.434c0-12.139,9.839-21.978,21.978-21.978
			s21.979,9.839,21.979,21.978c0,12.139-9.841,21.978-21.979,21.978S560.961,344.573,560.961,332.434z"/>
		<path fill="#1A6DA5" stroke="#AEC7E8" stroke-miterlimit="10" d="M-178.501,770.433c0-1.99,1.611-3.601,3.599-3.601
			s3.601,1.611,3.601,3.601c0,1.986-1.613,3.598-3.601,3.598S-178.501,772.42-178.501,770.433z"/>
		<path fill="#021420" stroke="#AEC7E8" stroke-miterlimit="10" d="M151.366,676.367c0-66.275,53.727-119.998,120-119.998
			c66.275,0,120.001,53.724,120.001,119.998S337.64,796.369,271.366,796.369C205.093,796.369,151.366,742.642,151.366,676.367z"/>
		<path fill="#18689E" stroke="#AEC7E8" stroke-miterlimit="10" d="M84.342,763.764c0-5.37,4.356-9.725,9.726-9.725
			c5.372,0,9.728,4.354,9.728,9.725c0,5.374-4.356,9.728-9.728,9.728C88.697,773.492,84.342,769.138,84.342,763.764z"/>
		<path fill="#1F77B3" stroke="#AEC7E8" stroke-miterlimit="10" d="M160.964,742.462c0-1.986,1.611-3.598,3.599-3.598
			c1.99,0,3.601,1.611,3.601,3.598c0,1.99-1.611,3.601-3.601,3.601C162.575,746.063,160.964,744.452,160.964,742.462z"/>
		<path fill="#1A6DA5" stroke="#AEC7E8" stroke-miterlimit="10" d="M565.405-71.857c0-5.371,4.356-9.726,9.728-9.726
			c5.37,0,9.726,4.356,9.726,9.726c0,5.372-4.356,9.728-9.726,9.728C569.761-62.129,565.405-66.485,565.405-71.857z"/>
		<path fill="#072F4A" stroke="#AEC7E8" stroke-miterlimit="10" d="M-593.401-301.998c0-32.44,26.296-58.737,58.736-58.737
			s58.736,26.297,58.736,58.737c0,32.439-26.296,58.736-58.736,58.736S-593.401-269.559-593.401-301.998z"/>
		<path fill="#125988" stroke="#AEC7E8" stroke-miterlimit="10" d="M-633.507-155.631c0-12.139,9.841-21.979,21.979-21.979
			c12.139,0,21.978,9.841,21.978,21.979c0,12.139-9.839,21.979-21.978,21.979C-623.666-133.652-633.507-143.493-633.507-155.631z"/>
		<path fill="#166397" stroke="#AEC7E8" stroke-miterlimit="10" d="M448.828,530.926c0-1.99,1.611-3.601,3.601-3.601
			c1.988,0,3.599,1.611,3.599,3.601c0,1.986-1.611,3.598-3.599,3.598C450.44,534.524,448.828,532.913,448.828,530.926z"/>
		<path fill="#1A6DA5" stroke="#AEC7E8" stroke-miterlimit="10" d="M603.707,5.402c0-1.99,1.612-3.601,3.599-3.601
			c1.99,0,3.601,1.611,3.601,3.601c0,1.988-1.612,3.599-3.601,3.599C605.318,9.001,603.707,7.39,603.707,5.402z"/>
		<path fill="#125988" stroke="#AEC7E8" stroke-miterlimit="10" d="M21.639-537.71c0-8.755,7.097-15.853,15.853-15.853
			c8.755,0,15.853,7.097,15.853,15.853s-7.098,15.852-15.853,15.852C28.735-521.858,21.639-528.956,21.639-537.71z"/>
		<path fill="#031929" stroke="#AEC7E8" stroke-miterlimit="10" d="M532.4,239.695c0-39.208,31.783-70.99,70.99-70.99
			c39.207,0,70.99,31.781,70.99,70.99c0,39.205-31.783,70.988-70.99,70.988C564.183,310.683,532.4,278.9,532.4,239.695z"/>
		<path fill="#1D72AC" stroke="#AEC7E8" stroke-miterlimit="10" d="M514.791,478.706c0-1.986,1.611-3.598,3.599-3.598
			c1.988,0,3.601,1.611,3.601,3.598c0,1.99-1.613,3.601-3.601,3.601C516.403,482.307,514.791,480.695,514.791,478.706z"/>
		<path fill="#145E8F" stroke="#AEC7E8" stroke-miterlimit="10" d="M49.599,727.454c0-15.523,12.583-28.108,28.106-28.108
			c15.521,0,28.104,12.585,28.104,28.108c0,15.523-12.583,28.105-28.104,28.105C62.182,755.558,49.599,742.976,49.599,727.454
			L49.599,727.454z"/>
		<path fill="#1A6DA5" stroke="#AEC7E8" stroke-miterlimit="10" d="M474.114,542.492c0-1.99,1.611-3.601,3.599-3.601
			s3.601,1.611,3.601,3.601c0,1.986-1.613,3.598-3.601,3.598S474.114,544.478,474.114,542.492z"/>
		<path fill="#18689E" stroke="#AEC7E8" stroke-miterlimit="10" d="M-640.678,298.507c0-5.374,4.356-9.728,9.726-9.728
			c5.372,0,9.728,4.354,9.728,9.728c0,5.371-4.356,9.725-9.728,9.725C-636.322,308.231-640.678,303.877-640.678,298.507z"/>
		<path fill="#1A6DA5" stroke="#AEC7E8" stroke-miterlimit="10" d="M136.395,693.337c0-1.99,1.611-3.601,3.601-3.601
			c1.988,0,3.599,1.611,3.599,3.601c0,1.99-1.611,3.601-3.599,3.601C138.006,696.938,136.395,695.327,136.395,693.337z"/>
		<path fill="#18689E" stroke="#AEC7E8" stroke-miterlimit="10" d="M625.496,65.785c0-5.372,4.354-9.728,9.726-9.728
			s9.726,4.356,9.726,9.728c0,5.37-4.354,9.726-9.726,9.726S625.496,71.156,625.496,65.785z"/>
		<path fill="#145E8F" stroke="#AEC7E8" stroke-miterlimit="10" d="M58.112-531.706c0-5.372,4.356-9.726,9.726-9.726
			c5.372,0,9.728,4.354,9.728,9.726c0,5.371-4.356,9.726-9.728,9.726C62.467-521.98,58.112-526.335,58.112-531.706z"/>
		<path fill="#1A6DA5" stroke="#AEC7E8" stroke-miterlimit="10" d="M369.637-419.701c0-1.989,1.611-3.6,3.599-3.6
			c1.988,0,3.599,1.611,3.599,3.6c0,1.988-1.611,3.599-3.599,3.599C371.249-416.101,369.637-417.713,369.637-419.701z"/>
		<path fill="#125988" stroke="#AEC7E8" stroke-miterlimit="10" d="M611.351,14.533c0-12.139,9.841-21.979,21.979-21.979
			s21.979,9.841,21.979,21.979s-9.841,21.978-21.979,21.978S611.351,26.672,611.351,14.533z"/>
		<path fill="#166397" stroke="#AEC7E8" stroke-miterlimit="10" d="M102.263,747.718c0-5.37,4.354-9.725,9.726-9.725
			c5.372,0,9.726,4.354,9.726,9.725c0,5.374-4.354,9.728-9.726,9.728C106.617,757.445,102.263,753.091,102.263,747.718z"/>
		<path fill="#1A6DA5" stroke="#AEC7E8" stroke-miterlimit="10" d="M-54.446-542.704c0-5.372,4.354-9.726,9.726-9.726
			c5.372,0,9.726,4.354,9.726,9.726c0,5.372-4.354,9.726-9.726,9.726C-50.092-532.977-54.446-537.332-54.446-542.704z"/>
		<path fill="#18689E" stroke="#AEC7E8" stroke-miterlimit="10" d="M-639.581-142.881c0-1.988,1.611-3.601,3.599-3.601
			c1.988,0,3.599,1.613,3.599,3.601c0,1.988-1.611,3.599-3.599,3.599C-637.969-139.281-639.581-140.893-639.581-142.881z"/>
		<path fill="#166397" stroke="#AEC7E8" stroke-miterlimit="10" d="M-279.615,680.439c0-12.139,9.839-21.981,21.978-21.981
			c12.139,0,21.979,9.842,21.979,21.981c0,12.139-9.841,21.978-21.979,21.978C-269.776,702.417-279.615,692.578-279.615,680.439z"/>
		<path fill="#1A6DA5" stroke="#AEC7E8" stroke-miterlimit="10" d="M-67.258-541.151c0-1.989,1.611-3.6,3.601-3.6
			c1.988,0,3.599,1.611,3.599,3.6c0,1.988-1.611,3.599-3.599,3.599C-65.647-537.552-67.258-539.163-67.258-541.151z"/>
		<path fill="#1F77B3" stroke="#AEC7E8" stroke-miterlimit="10" d="M495.441,461.429c0-1.99,1.611-3.601,3.599-3.601
			c1.988,0,3.599,1.611,3.599,3.601c0,1.986-1.611,3.601-3.599,3.601C497.053,465.03,495.441,463.415,495.441,461.429z"/>
		<path fill="#145E8F" stroke="#AEC7E8" stroke-miterlimit="10" d="M-607.407-124.904c0-5.372,4.356-9.726,9.728-9.726
			c5.371,0,9.726,4.354,9.726,9.726s-4.356,9.726-9.726,9.726C-603.052-115.178-607.407-119.532-607.407-124.904z"/>
		<path fill="#145E8F" stroke="#AEC7E8" stroke-miterlimit="10" d="M398.025,559.341c0-5.37,4.354-9.725,9.726-9.725
			s9.726,4.354,9.726,9.725c0,5.374-4.354,9.728-9.726,9.728S398.025,564.714,398.025,559.341z"/>
		<path fill="#166397" stroke="#AEC7E8" stroke-miterlimit="10" d="M75.37,761.133c0-1.99,1.611-3.601,3.599-3.601
			c1.988,0,3.601,1.611,3.601,3.601c0,1.986-1.613,3.598-3.601,3.598C76.981,764.731,75.37,763.12,75.37,761.133z"/>
		<path fill="#18689E" stroke="#AEC7E8" stroke-miterlimit="10" d="M19.689,729.465c0-1.99,1.611-3.601,3.599-3.601
			c1.988,0,3.599,1.612,3.599,3.601c0,1.99-1.611,3.601-3.599,3.601C21.301,733.066,19.689,731.454,19.689,729.465z"/>
		<path fill="#1A6DA5" stroke="#AEC7E8" stroke-miterlimit="10" d="M584.895-79.355c0-1.988,1.611-3.599,3.599-3.599
			c1.988,0,3.599,1.611,3.599,3.599c0,1.988-1.612,3.599-3.599,3.599C586.506-75.756,584.895-77.367,584.895-79.355z"/>
		<path fill="#166397" stroke="#AEC7E8" stroke-miterlimit="10" d="M-256.261-486.439c0-1.989,1.611-3.6,3.599-3.6
			s3.599,1.611,3.599,3.6c0,1.988-1.612,3.6-3.599,3.6S-256.261-484.451-256.261-486.439z"/>
		<path fill="#125988" stroke="#AEC7E8" stroke-miterlimit="10" d="M-111.941-536.906c0-8.755,7.098-15.852,15.853-15.852
			c8.756,0,15.853,7.097,15.853,15.852c0,8.755-7.097,15.853-15.853,15.853C-104.843-521.053-111.941-528.151-111.941-536.906z"/>
		<path fill="#115380" stroke="#AEC7E8" stroke-miterlimit="10" d="M555.794-169.448c0-8.756,7.097-15.853,15.853-15.853
			c8.755,0,15.851,7.097,15.851,15.853c0,8.755-7.097,15.853-15.851,15.853C562.891-153.595,555.794-160.694,555.794-169.448z"/>
		<path fill="#1A6DA5" stroke="#AEC7E8" stroke-miterlimit="10" d="M601.672,316.258c0-1.99,1.611-3.601,3.599-3.601
			c1.988,0,3.599,1.611,3.599,3.601c0,1.99-1.611,3.601-3.599,3.601C603.284,319.859,601.672,318.247,601.672,316.258z"/>
		<path fill="#1A6DA5" stroke="#AEC7E8" stroke-miterlimit="10" d="M580.522,359.984c0-1.986,1.612-3.601,3.599-3.601
			c1.988,0,3.599,1.615,3.599,3.601c0,1.99-1.611,3.601-3.599,3.601C582.134,363.585,580.522,361.974,580.522,359.984z"/>
		<path fill="#083452" stroke="#AEC7E8" stroke-miterlimit="10" d="M570.201,120.964c0-25.673,20.811-46.485,46.484-46.485
			c25.672,0,46.484,20.811,46.484,46.485c0,25.672-20.813,46.484-46.484,46.484C591.012,167.448,570.201,146.636,570.201,120.964z"
			/>
		<path fill="#18689E" stroke="#AEC7E8" stroke-miterlimit="10" d="M-627.983-230.816c0-1.989,1.611-3.6,3.601-3.6
			c1.988,0,3.599,1.611,3.599,3.6c0,1.988-1.611,3.599-3.599,3.599C-626.371-227.216-627.983-228.828-627.983-230.816z"/>
		<path fill="#1A6DA5" stroke="#AEC7E8" stroke-miterlimit="10" d="M140.605,741.681c0-1.99,1.611-3.601,3.599-3.601
			c1.988,0,3.601,1.612,3.601,3.601c0,1.986-1.613,3.598-3.601,3.598C142.216,745.279,140.605,743.667,140.605,741.681z"/>
		<path fill="#18689E" stroke="#AEC7E8" stroke-miterlimit="10" d="M452.809-338.774c0-1.989,1.611-3.6,3.599-3.6
			s3.599,1.611,3.599,3.6c0,1.988-1.611,3.599-3.599,3.599S452.809-336.786,452.809-338.774z"/>
		<path fill="#18689E" stroke="#AEC7E8" stroke-miterlimit="10" d="M614.642,37.614c0-1.988,1.611-3.601,3.601-3.601
			c1.988,0,3.599,1.613,3.599,3.601c0,1.988-1.611,3.599-3.599,3.599C616.253,41.213,614.642,39.602,614.642,37.614z"/>
		<path fill="#1D72AC" stroke="#AEC7E8" stroke-miterlimit="10" d="M583.768,368.593c0-1.99,1.611-3.601,3.599-3.601
			c1.988,0,3.601,1.611,3.601,3.601c0,1.986-1.613,3.601-3.601,3.601C585.38,372.194,583.768,370.58,583.768,368.593z"/>
		<path fill="#145E8F" stroke="#AEC7E8" stroke-miterlimit="10" d="M-261.144,716.902c0-1.99,1.611-3.601,3.601-3.601
			c1.988,0,3.599,1.611,3.599,3.601c0,1.99-1.611,3.601-3.599,3.601C-259.532,720.503-261.144,718.891-261.144,716.902z"/>
		<path fill="#18689E" stroke="#AEC7E8" stroke-miterlimit="10" d="M-524.879,490.457c0-1.99,1.611-3.601,3.599-3.601
			c1.99,0,3.601,1.611,3.601,3.601c0,1.99-1.611,3.601-3.601,3.601C-523.267,494.058-524.879,492.446-524.879,490.457z"/>
		<path fill="#0F4E79" stroke="#AEC7E8" stroke-miterlimit="10" d="M79.485-529.874c0-5.371,4.356-9.726,9.726-9.726
			c5.372,0,9.728,4.355,9.728,9.726c0,5.372-4.356,9.727-9.728,9.727C83.841-520.147,79.485-524.502,79.485-529.874z"/>
		<path fill="#166397" stroke="#AEC7E8" stroke-miterlimit="10" d="M539.764,336.562c0-5.374,4.354-9.728,9.726-9.728
			s9.726,4.354,9.726,9.728c0,5.37-4.354,9.725-9.726,9.725S539.764,341.933,539.764,336.562z"/>
		<path fill="#115380" stroke="#AEC7E8" stroke-miterlimit="10" d="M100.098-523.925c0-5.372,4.354-9.727,9.726-9.727
			s9.726,4.355,9.726,9.727c0,5.371-4.354,9.726-9.726,9.726S100.098-518.554,100.098-523.925z"/>
		<path fill="#1A6DA5" stroke="#AEC7E8" stroke-miterlimit="10" d="M371.084-406.378c0-5.371,4.356-9.726,9.728-9.726
			c5.37,0,9.726,4.355,9.726,9.726c0,5.372-4.356,9.727-9.726,9.727C375.44-396.651,371.084-401.006,371.084-406.378z"/>
		<path fill="#145E8F" stroke="#AEC7E8" stroke-miterlimit="10" d="M36.938,752.416c0-5.371,4.356-9.725,9.726-9.725
			c5.372,0,9.726,4.354,9.726,9.725c0,5.374-4.354,9.728-9.726,9.728C41.294,762.144,36.938,757.789,36.938,752.416z"/>
		<path fill="#1A6DA5" stroke="#AEC7E8" stroke-miterlimit="10" d="M-721.736,25.06c0-8.755,7.098-15.853,15.853-15.853
			c8.756,0,15.853,7.098,15.853,15.853c0,8.755-7.097,15.853-15.853,15.853C-714.638,40.913-721.736,33.815-721.736,25.06z"/>
		<path fill="#1D72AC" stroke="#AEC7E8" stroke-miterlimit="10" d="M612.423,68.883c0-1.988,1.611-3.599,3.599-3.599
			c1.988,0,3.599,1.611,3.599,3.599s-1.611,3.601-3.599,3.601C614.034,72.484,612.423,70.871,612.423,68.883z"/>
		<path fill="#09395A" stroke="#AEC7E8" stroke-miterlimit="10" d="M-374.555,682.413c0-25.672,20.813-46.484,46.484-46.484
			c25.673,0,46.485,20.813,46.485,46.484s-20.811,46.485-46.485,46.485C-353.743,728.898-374.555,708.085-374.555,682.413z"/>
		<path fill="#125988" stroke="#AEC7E8" stroke-miterlimit="10" d="M119.628-531.355c0-1.989,1.611-3.6,3.599-3.6
			c1.99,0,3.601,1.611,3.601,3.6c0,1.988-1.611,3.599-3.601,3.599C121.239-527.756,119.628-529.367,119.628-531.355z"/>
		<path fill="#145E8F" stroke="#AEC7E8" stroke-miterlimit="10" d="M39.27,718.098c0-1.99,1.611-3.601,3.599-3.601
			c1.99,0,3.601,1.611,3.601,3.601c0,1.986-1.611,3.598-3.601,3.598C40.882,721.696,39.27,720.084,39.27,718.098z"/>
		<path fill="#1D72AC" stroke="#AEC7E8" stroke-miterlimit="10" d="M525.752,465.956c0-1.99,1.611-3.601,3.599-3.601
			c1.988,0,3.599,1.611,3.599,3.601c0,1.986-1.611,3.601-3.599,3.601C527.364,469.557,525.752,467.943,525.752,465.956z"/>
		<path fill="#18689E" stroke="#AEC7E8" stroke-miterlimit="10" d="M-10.295,735.663c0-1.986,1.613-3.598,3.601-3.598
			s3.599,1.611,3.599,3.598c0,1.99-1.611,3.601-3.599,3.601S-10.295,737.652-10.295,735.663z"/>
		<path fill="#115380" stroke="#AEC7E8" stroke-miterlimit="10" d="M-382.938,631.255c0-8.755,7.097-15.851,15.853-15.851
			c8.755,0,15.853,7.097,15.853,15.851c0,8.758-7.098,15.854-15.853,15.854C-375.841,647.11-382.938,640.013-382.938,631.255z"/>
		<path fill="#166397" stroke="#AEC7E8" stroke-miterlimit="10" d="M-670.828-137.306c0-1.988,1.612-3.599,3.599-3.599
			c1.988,0,3.599,1.612,3.599,3.599c0,1.988-1.611,3.599-3.599,3.599C-669.216-133.706-670.828-135.318-670.828-137.306z"/>
		<path fill="#1A6DA5" stroke="#AEC7E8" stroke-miterlimit="10" d="M561.432-189.856c0-1.988,1.611-3.6,3.601-3.6
			c1.988,0,3.599,1.611,3.599,3.6c0,1.988-1.611,3.6-3.599,3.6C563.044-186.255,561.432-187.868,561.432-189.856z"/>
		<path fill="#125988" stroke="#AEC7E8" stroke-miterlimit="10" d="M449.626-330.144c0-1.989,1.611-3.6,3.599-3.6
			c1.99,0,3.601,1.612,3.601,3.6c0,1.988-1.611,3.599-3.601,3.599C451.238-326.544,449.626-328.156,449.626-330.144z"/>
		<path fill="#1D72AC" stroke="#AEC7E8" stroke-miterlimit="10" d="M-271.721-511.505c0-1.988,1.611-3.599,3.599-3.599
			c1.99,0,3.601,1.611,3.601,3.599c0,1.989-1.611,3.6-3.601,3.6C-270.109-507.904-271.721-509.516-271.721-511.505z"/>
		<path fill="#145E8F" stroke="#AEC7E8" stroke-miterlimit="10" d="M590.64,65.089c0-5.372,4.356-9.726,9.726-9.726
			c5.372,0,9.726,4.354,9.726,9.726c0,5.372-4.354,9.726-9.726,9.726C594.996,74.816,590.64,70.461,590.64,65.089z"/>
		<path fill="#166397" stroke="#AEC7E8" stroke-miterlimit="10" d="M3.122-546.207c0-1.988,1.611-3.599,3.601-3.599
			c1.988,0,3.599,1.611,3.599,3.599c0,1.988-1.611,3.6-3.599,3.6C4.734-542.607,3.122-544.219,3.122-546.207z"/>
		<path fill="#145E8F" stroke="#AEC7E8" stroke-miterlimit="10" d="M608.32,52.938c0-5.372,4.354-9.726,9.726-9.726
			s9.726,4.354,9.726,9.726s-4.354,9.726-9.726,9.726S608.32,58.31,608.32,52.938z"/>
		<path fill="#18689E" stroke="#AEC7E8" stroke-miterlimit="10" d="M155.048-523.364c0-1.988,1.611-3.6,3.599-3.6
			c1.99,0,3.601,1.612,3.601,3.6c0,1.988-1.611,3.6-3.601,3.6C156.659-519.763,155.048-521.376,155.048-523.364z"/>
		<path fill="#1A6DA5" stroke="#AEC7E8" stroke-miterlimit="10" d="M211.78-487.072c0-5.372,4.354-9.727,9.726-9.727
			s9.726,4.355,9.726,9.727c0,5.371-4.354,9.726-9.726,9.726S211.78-481.7,211.78-487.072z"/>
		<path fill="#125988" stroke="#AEC7E8" stroke-miterlimit="10" d="M-656.966,331.969c0-12.139,9.841-21.981,21.979-21.981
			s21.979,9.842,21.979,21.981c0,12.139-9.841,21.978-21.979,21.978S-656.966,344.108-656.966,331.969z"/>
		<path fill="#166397" stroke="#AEC7E8" stroke-miterlimit="10" d="M420.012,562.902c0-8.755,7.098-15.851,15.853-15.851
			c8.756,0,15.853,7.097,15.853,15.851s-7.097,15.854-15.853,15.854C427.111,578.756,420.012,571.656,420.012,562.902z"/>
		<path fill="#115380" stroke="#AEC7E8" stroke-miterlimit="10" d="M107.06,718.643c0-12.139,9.841-21.978,21.979-21.978
			c12.139,0,21.978,9.839,21.978,21.978s-9.839,21.981-21.978,21.981C116.901,740.624,107.06,730.782,107.06,718.643z"/>
		<path fill="#1D72AC" stroke="#AEC7E8" stroke-miterlimit="10" d="M392.47-407.813c0-1.989,1.611-3.6,3.599-3.6
			c1.988,0,3.599,1.611,3.599,3.6c0,1.988-1.611,3.599-3.599,3.599C394.082-404.214,392.47-405.825,392.47-407.813z"/>
		<path fill="#166397" stroke="#AEC7E8" stroke-miterlimit="10" d="M540.33-186.607c0-5.372,4.356-9.726,9.726-9.726
			c5.372,0,9.728,4.354,9.728,9.726c0,5.371-4.356,9.726-9.728,9.726C544.686-176.881,540.33-181.236,540.33-186.607z"/>
		<path fill="#1A6DA5" stroke="#AEC7E8" stroke-miterlimit="10" d="M504.428,463.979c0-5.371,4.356-9.728,9.726-9.728
			c5.372,0,9.728,4.357,9.728,9.728c0,5.37-4.356,9.725-9.728,9.725C508.784,473.704,504.428,469.35,504.428,463.979z"/>
		<path fill="#062942" stroke="#AEC7E8" stroke-miterlimit="10" d="M543.607-117.734c0-18.905,15.328-34.231,34.233-34.231
			s34.231,15.326,34.231,34.231s-15.326,34.231-34.231,34.231S543.607-98.829,543.607-117.734L543.607-117.734z"/>
		<path fill="#145E8F" stroke="#AEC7E8" stroke-miterlimit="10" d="M-139.781,759.661c0-1.986,1.612-3.598,3.601-3.598
			c1.988,0,3.599,1.611,3.599,3.598c0,1.99-1.612,3.601-3.599,3.601C-138.169,763.262-139.781,761.651-139.781,759.661z"/>
		<path fill="#166397" stroke="#AEC7E8" stroke-miterlimit="10" d="M-642.306,379.725c0-15.523,12.583-28.105,28.105-28.105
			c15.523,0,28.106,12.582,28.106,28.105s-12.583,28.105-28.106,28.105C-629.723,407.829-642.306,395.247-642.306,379.725z"/>
		<path fill="#1A6DA5" stroke="#AEC7E8" stroke-miterlimit="10" d="M554.859-152.533c0-1.988,1.611-3.601,3.599-3.601
			c1.988,0,3.601,1.613,3.601,3.601c0,1.988-1.613,3.599-3.601,3.599C556.471-148.933,554.859-150.545,554.859-152.533z"/>
		<path fill="#1A6DA5" stroke="#AEC7E8" stroke-miterlimit="10" d="M54.387,764.892c0-5.371,4.356-9.725,9.726-9.725
			c5.372,0,9.728,4.354,9.728,9.725c0,5.374-4.356,9.728-9.728,9.728C58.742,774.62,54.387,770.266,54.387,764.892z"/>
		<path fill="#125988" stroke="#AEC7E8" stroke-miterlimit="10" d="M-593.854,447.164c0-5.371,4.354-9.725,9.726-9.725
			c5.372,0,9.726,4.354,9.726,9.725c0,5.374-4.354,9.728-9.726,9.728C-589.5,456.892-593.854,452.538-593.854,447.164z"/>
		<path fill="#0D4971" stroke="#AEC7E8" stroke-miterlimit="10" d="M228.69-464.483c0-25.673,20.811-46.484,46.484-46.484
			c25.672,0,46.484,20.812,46.484,46.484c0,25.673-20.813,46.485-46.484,46.485C249.501-417.998,228.69-438.81,228.69-464.483z"/>
		<path fill="#18689E" stroke="#AEC7E8" stroke-miterlimit="10" d="M520.103-193.752c0-5.371,4.354-9.726,9.726-9.726
			s9.726,4.355,9.726,9.726c0,5.372-4.354,9.727-9.726,9.727S520.103-188.38,520.103-193.752z"/>
		<path fill="#166397" stroke="#AEC7E8" stroke-miterlimit="10" d="M-614.93,346.144c0-1.99,1.611-3.601,3.599-3.601
			c1.988,0,3.599,1.611,3.599,3.601c0,1.986-1.611,3.598-3.599,3.598C-613.318,349.742-614.93,348.131-614.93,346.144z"/>
		<path fill="#125988" stroke="#AEC7E8" stroke-miterlimit="10" d="M-9.029,755c0-12.139,9.839-21.978,21.978-21.978
			c12.139,0,21.979,9.839,21.979,21.978s-9.841,21.978-21.979,21.978C0.81,776.978-9.029,767.139-9.029,755z"/>
		<path fill="#18689E" stroke="#AEC7E8" stroke-miterlimit="10" d="M526.4,376.074c0-15.523,12.583-28.105,28.106-28.105
			c15.521,0,28.104,12.582,28.104,28.105c0,15.523-12.582,28.105-28.104,28.105C538.983,404.179,526.4,391.597,526.4,376.074z"/>
		<path fill="#125988" stroke="#AEC7E8" stroke-miterlimit="10" d="M-7.718,714.286c0-8.758,7.098-15.854,15.853-15.854
			c8.756,0,15.853,7.097,15.853,15.854c0,8.755-7.097,15.851-15.853,15.851C-0.62,730.137-7.718,723.041-7.718,714.286z"/>
		<path fill="#125988" stroke="#AEC7E8" stroke-miterlimit="10" d="M28.493,732.7c0-5.374,4.356-9.728,9.728-9.728
			c5.371,0,9.726,4.354,9.726,9.728c0,5.37-4.356,9.725-9.726,9.725C32.849,742.425,28.493,738.071,28.493,732.7z"/>
		<path fill="#115380" stroke="#AEC7E8" stroke-miterlimit="10" d="M-170.411,764.706c0-5.37,4.356-9.728,9.728-9.728
			c5.371,0,9.726,4.357,9.726,9.728c0,5.371-4.356,9.728-9.726,9.728C-166.055,774.434-170.411,770.077-170.411,764.706z"/>
		<path fill="#0D4971" stroke="#AEC7E8" stroke-miterlimit="10" d="M-253.426,729.372c0-25.672,20.811-46.485,46.484-46.485
			c25.672,0,46.485,20.813,46.485,46.485s-20.813,46.484-46.485,46.484C-232.615,775.856-253.426,755.044-253.426,729.372z"/>
		<path fill="#1D72AC" stroke="#AEC7E8" stroke-miterlimit="10" d="M499.63,453.232c0-1.986,1.611-3.598,3.599-3.598
			c1.988,0,3.599,1.612,3.599,3.598c0,1.99-1.611,3.601-3.599,3.601C501.241,456.833,499.63,455.222,499.63,453.232z"/>
		<path fill="#1A6DA5" stroke="#AEC7E8" stroke-miterlimit="10" d="M569.132,32.679c0-12.139,9.841-21.979,21.979-21.979
			s21.978,9.841,21.978,21.979s-9.839,21.979-21.978,21.979S569.132,44.818,569.132,32.679z"/>
		<path fill="#0F4E79" stroke="#AEC7E8" stroke-miterlimit="10" d="M594.086-79.821c0-5.371,4.354-9.726,9.726-9.726
			c5.372,0,9.726,4.356,9.726,9.726c0,5.372-4.354,9.728-9.726,9.728C598.44-70.094,594.086-74.449,594.086-79.821z"/>
		<path fill="#1A6DA5" stroke="#AEC7E8" stroke-miterlimit="10" d="M404.228,575.195c0-1.99,1.611-3.601,3.601-3.601
			c1.988,0,3.599,1.611,3.599,3.601c0,1.986-1.611,3.601-3.599,3.601C405.839,578.796,404.228,577.182,404.228,575.195z"/>
		<path fill="#18689E" stroke="#AEC7E8" stroke-miterlimit="10" d="M-12.859,726.84c0-1.986,1.611-3.601,3.601-3.601
			c1.988,0,3.599,1.615,3.599,3.601c0,1.99-1.611,3.601-3.599,3.601C-11.248,730.441-12.859,728.83-12.859,726.84z"/>
		<path fill="#115380" stroke="#AEC7E8" stroke-miterlimit="10" d="M180.963-499.357c0-8.755,7.097-15.853,15.851-15.853
			c8.756,0,15.854,7.097,15.854,15.853s-7.098,15.853-15.854,15.853C188.059-483.504,180.963-490.601,180.963-499.357z"/>
		<path fill="#166397" stroke="#AEC7E8" stroke-miterlimit="10" d="M412.843,571.966c0-1.99,1.611-3.601,3.599-3.601
			c1.988,0,3.599,1.611,3.599,3.601c0,1.986-1.612,3.598-3.599,3.598C414.454,575.564,412.843,573.952,412.843,571.966z"/>
		<path fill="#145E8F" stroke="#AEC7E8" stroke-miterlimit="10" d="M21.663,779.674c0-1.986,1.611-3.598,3.599-3.598
			c1.988,0,3.599,1.611,3.599,3.598c0,1.99-1.611,3.601-3.599,3.601C23.275,783.275,21.663,781.664,21.663,779.674z"/>
		<path fill="#166397" stroke="#AEC7E8" stroke-miterlimit="10" d="M-434.324,576.283c0-8.755,7.097-15.851,15.853-15.851
			c8.755,0,15.851,7.097,15.851,15.851s-7.097,15.854-15.851,15.854C-427.227,592.137-434.324,585.037-434.324,576.283z"/>
		<path fill="#1F77B3" stroke="#AEC7E8" stroke-miterlimit="10" d="M639.447,165.882c0-1.988,1.611-3.599,3.599-3.599
			c1.99,0,3.601,1.611,3.601,3.599s-1.611,3.599-3.601,3.599C641.059,169.481,639.447,167.87,639.447,165.882z"/>
		<path fill="#1D72AC" stroke="#AEC7E8" stroke-miterlimit="10" d="M-137.692,768.62c0-1.986,1.611-3.598,3.599-3.598
			s3.599,1.612,3.599,3.598c0,1.99-1.612,3.601-3.599,3.601S-137.692,770.61-137.692,768.62z"/>
		<path fill="#166397" stroke="#AEC7E8" stroke-miterlimit="10" d="M373.164,608.054c0-1.99,1.611-3.601,3.599-3.601
			c1.988,0,3.599,1.611,3.599,3.601c0,1.99-1.612,3.601-3.599,3.601C374.775,611.655,373.164,610.043,373.164,608.054z"/>
		<path fill="#166397" stroke="#AEC7E8" stroke-miterlimit="10" d="M-20.664-540.475c0-1.988,1.611-3.599,3.599-3.599
			c1.988,0,3.601,1.611,3.601,3.599c0,1.989-1.613,3.6-3.601,3.6C-19.052-536.874-20.664-538.486-20.664-540.475z"/>
		<path fill="#125988" stroke="#AEC7E8" stroke-miterlimit="10" d="M585.549,4.051c0-1.988,1.611-3.599,3.599-3.599
			c1.988,0,3.599,1.611,3.599,3.599c0,1.988-1.611,3.601-3.599,3.601C587.16,7.652,585.549,6.039,585.549,4.051z"/>
		<path fill="#18689E" stroke="#AEC7E8" stroke-miterlimit="10" d="M-349.342,633.422c0-1.99,1.611-3.601,3.599-3.601
			s3.599,1.611,3.599,3.601c0,1.986-1.612,3.601-3.599,3.601S-349.342,635.408-349.342,633.422z"/>
		<path fill="#18689E" stroke="#AEC7E8" stroke-miterlimit="10" d="M-571.372-246.834c0-1.988,1.612-3.599,3.599-3.599
			c1.988,0,3.599,1.611,3.599,3.599c0,1.988-1.611,3.6-3.599,3.6C-569.761-243.234-571.372-244.846-571.372-246.834z"/>
		<path fill="#1D72AC" stroke="#AEC7E8" stroke-miterlimit="10" d="M179.325-515.705c0-1.988,1.611-3.599,3.599-3.599
			c1.99,0,3.601,1.611,3.601,3.599c0,1.989-1.611,3.6-3.601,3.6C180.936-512.105,179.325-513.717,179.325-515.705z"/>
		<path fill="#1A6DA5" stroke="#AEC7E8" stroke-miterlimit="10" d="M54.529-543.563c0-1.988,1.611-3.6,3.599-3.6
			c1.988,0,3.601,1.612,3.601,3.6c0,1.988-1.613,3.6-3.601,3.6C56.141-539.963,54.529-541.576,54.529-543.563z"/>
		<path fill="#1A6DA5" stroke="#AEC7E8" stroke-miterlimit="10" d="M147.291,735.437c0-1.99,1.611-3.601,3.599-3.601
			c1.988,0,3.599,1.611,3.599,3.601c0,1.986-1.611,3.598-3.599,3.598C148.902,739.035,147.291,737.423,147.291,735.437z"/>
		<path fill="#166397" stroke="#AEC7E8" stroke-miterlimit="10" d="M152.161,725.467c0-1.986,1.611-3.598,3.599-3.598
			c1.988,0,3.599,1.612,3.599,3.598c0,1.99-1.611,3.601-3.599,3.601C153.772,729.068,152.161,727.457,152.161,725.467z"/>
		<path fill="#125988" stroke="#AEC7E8" stroke-miterlimit="10" d="M442.522-324.3c0-1.988,1.611-3.6,3.599-3.6
			c1.988,0,3.601,1.612,3.601,3.6c0,1.988-1.613,3.6-3.601,3.6C444.133-320.7,442.522-322.312,442.522-324.3z"/>
		<path fill="#166397" stroke="#AEC7E8" stroke-miterlimit="10" d="M-160.714,712.489c0-8.755,7.098-15.854,15.853-15.854
			c8.756,0,15.853,7.1,15.853,15.854s-7.097,15.851-15.853,15.851C-153.616,728.34-160.714,721.243-160.714,712.489z"/>
		<path fill="#166397" stroke="#AEC7E8" stroke-miterlimit="10" d="M-382.678,671.88c0-1.986,1.611-3.598,3.599-3.598
			c1.988,0,3.599,1.611,3.599,3.598c0,1.99-1.611,3.601-3.599,3.601C-381.066,675.481-382.678,673.869-382.678,671.88z"/>
		<path fill="#166397" stroke="#AEC7E8" stroke-miterlimit="10" d="M-601.271,439.993c0-1.99,1.611-3.601,3.599-3.601
			c1.99,0,3.601,1.611,3.601,3.601c0,1.986-1.611,3.598-3.601,3.598C-599.66,443.591-601.271,441.98-601.271,439.993z"/>
		<path fill="#1A6DA5" stroke="#AEC7E8" stroke-miterlimit="10" d="M584.675,164.614c0-1.988,1.611-3.599,3.599-3.599
			c1.988,0,3.599,1.611,3.599,3.599c0,1.988-1.611,3.601-3.599,3.601C586.286,168.215,584.675,166.602,584.675,164.614z"/>
		<path fill="#0F4E79" stroke="#AEC7E8" stroke-miterlimit="10" d="M-16.733,782.16c0-5.37,4.354-9.725,9.726-9.725
			s9.726,4.354,9.726,9.725c0,5.374-4.354,9.728-9.726,9.728S-16.733,787.533-16.733,782.16z"/>
		<path fill="#18689E" stroke="#AEC7E8" stroke-miterlimit="10" d="M123.255,752.115c0-5.371,4.356-9.725,9.726-9.725
			c5.372,0,9.726,4.354,9.726,9.725c0,5.374-4.354,9.728-9.726,9.728C127.611,761.843,123.255,757.489,123.255,752.115z"/>
		<path fill="#166397" stroke="#AEC7E8" stroke-miterlimit="10" d="M-596.525-274.708c0-1.988,1.611-3.599,3.599-3.599
			c1.988,0,3.601,1.611,3.601,3.599c0,1.988-1.613,3.6-3.601,3.6C-594.914-271.108-596.525-272.72-596.525-274.708z"/>
		<path fill="#18689E" stroke="#AEC7E8" stroke-miterlimit="10" d="M-675.667-55.321c0-1.988,1.611-3.599,3.599-3.599
			c1.988,0,3.599,1.611,3.599,3.599c0,1.988-1.611,3.601-3.599,3.601C-674.055-51.72-675.667-53.333-675.667-55.321z"/>
		<path fill="#125988" stroke="#AEC7E8" stroke-miterlimit="10" d="M432.416-330.1c0-1.988,1.613-3.6,3.601-3.6
			c1.988,0,3.599,1.612,3.599,3.6c0,1.989-1.611,3.6-3.599,3.6C434.029-326.499,432.416-328.111,432.416-330.1z"/>
		<path fill="#1A6DA5" stroke="#AEC7E8" stroke-miterlimit="10" d="M486.698,458.606c0-1.99,1.611-3.601,3.599-3.601
			c1.988,0,3.601,1.611,3.601,3.601c0,1.99-1.613,3.601-3.601,3.601C488.309,462.207,486.698,460.595,486.698,458.606z"/>
		<path fill="#1F77B3" stroke="#AEC7E8" stroke-miterlimit="10" d="M322.669-454.381c0-1.988,1.612-3.599,3.599-3.599
			c1.988,0,3.599,1.611,3.599,3.599c0,1.989-1.611,3.6-3.599,3.6C324.281-450.781,322.669-452.393,322.669-454.381z"/>
		<path fill="#18689E" stroke="#AEC7E8" stroke-miterlimit="10" d="M-49.949-527.466c0-1.988,1.612-3.599,3.599-3.599
			s3.601,1.612,3.601,3.599c0,1.988-1.613,3.6-3.601,3.6S-49.949-525.478-49.949-527.466z"/>
		<path fill="#166397" stroke="#AEC7E8" stroke-miterlimit="10" d="M349.734-435.568c0-1.988,1.611-3.6,3.599-3.6
			c1.988,0,3.601,1.612,3.601,3.6c0,1.989-1.613,3.6-3.601,3.6C351.346-431.968,349.734-433.58,349.734-435.568z"/>
		<path fill="#145E8F" stroke="#AEC7E8" stroke-miterlimit="10" d="M-700.499-10.938c0-22.289,18.069-40.358,40.358-40.358
			c22.289,0,40.358,18.068,40.358,40.358c0,22.288-18.069,40.358-40.358,40.358C-682.43,29.42-700.499,11.35-700.499-10.938z"/>
		<path fill="#1F77B3" stroke="#AEC7E8" stroke-miterlimit="10" d="M-7.163-539.471c0-1.988,1.613-3.6,3.601-3.6
			c1.988,0,3.599,1.612,3.599,3.6c0,1.988-1.611,3.6-3.599,3.6C-5.55-535.87-7.163-537.483-7.163-539.471z"/>
		<path fill="#18689E" stroke="#AEC7E8" stroke-miterlimit="10" d="M-581.291-170.285c0-5.372,4.354-9.726,9.726-9.726
			c5.372,0,9.726,4.354,9.726,9.726c0,5.371-4.354,9.726-9.726,9.726C-576.937-160.559-581.291-164.914-581.291-170.285z"/>
		<path fill="#1A6DA5" stroke="#AEC7E8" stroke-miterlimit="10" d="M144.111,698.348c0-1.986,1.611-3.598,3.599-3.598
			c1.99,0,3.601,1.612,3.601,3.598c0,1.99-1.611,3.601-3.601,3.601C145.723,701.949,144.111,700.338,144.111,698.348z"/>
		<path fill="#0F4E79" stroke="#AEC7E8" stroke-miterlimit="10" d="M566.873-33.943c0-18.905,15.326-34.231,34.231-34.231
			c18.905,0,34.231,15.326,34.231,34.231S620.009,0.288,601.104,0.288C582.199,0.288,566.873-15.037,566.873-33.943z"/>
		<path fill="#1A6DA5" stroke="#AEC7E8" stroke-miterlimit="10" d="M631.134,169.819c0-1.988,1.611-3.599,3.599-3.599
			c1.988,0,3.599,1.611,3.599,3.599c0,1.99-1.611,3.601-3.599,3.601C632.746,173.42,631.134,171.809,631.134,169.819z"/>
		<path fill="#18689E" stroke="#AEC7E8" stroke-miterlimit="10" d="M-148.448,762.751c0-1.986,1.613-3.598,3.601-3.598
			s3.599,1.612,3.599,3.598c0,1.99-1.611,3.601-3.599,3.601S-148.448,764.74-148.448,762.751z"/>
		<path fill="#1D72AC" stroke="#AEC7E8" stroke-miterlimit="10" d="M-268.394,709.653c0-1.986,1.613-3.598,3.601-3.598
			s3.599,1.611,3.599,3.598c0,1.99-1.612,3.601-3.599,3.601S-268.394,711.643-268.394,709.653z"/>
		<path fill="#1D72AC" stroke="#AEC7E8" stroke-miterlimit="10" d="M-629.404-216.231c0-5.371,4.356-9.726,9.726-9.726
			c5.372,0,9.728,4.355,9.728,9.726c0,5.372-4.356,9.727-9.728,9.727C-625.048-206.504-629.404-210.859-629.404-216.231z"/>
		<path fill="#1A6DA5" stroke="#AEC7E8" stroke-miterlimit="10" d="M4.72,782.185c0-1.986,1.611-3.598,3.599-3.598
			c1.99,0,3.601,1.611,3.601,3.598c0,1.99-1.611,3.601-3.601,3.601C6.331,785.786,4.72,784.174,4.72,782.185z"/>
		<path fill="#1F77B3" stroke="#AEC7E8" stroke-miterlimit="10" d="M535.004-206.316c0-1.988,1.611-3.6,3.599-3.6
			c1.988,0,3.599,1.612,3.599,3.6c0,1.989-1.611,3.6-3.599,3.6C536.616-202.716,535.004-204.327,535.004-206.316z"/>
		<path fill="#1A6DA5" stroke="#AEC7E8" stroke-miterlimit="10" d="M477.539,457.744c0-1.986,1.611-3.598,3.599-3.598
			c1.988,0,3.601,1.611,3.601,3.598c0,1.99-1.613,3.601-3.601,3.601C479.15,461.345,477.539,459.734,477.539,457.744z"/>
		<path fill="#1D72AC" stroke="#AEC7E8" stroke-miterlimit="10" d="M605.752,324.504c0-1.99,1.611-3.601,3.599-3.601
			c1.988,0,3.601,1.611,3.601,3.601c0,1.986-1.613,3.598-3.601,3.598C607.364,328.102,605.752,326.491,605.752,324.504z"/>
		<path fill="#18689E" stroke="#AEC7E8" stroke-miterlimit="10" d="M156.439,734.467c0-1.99,1.611-3.601,3.599-3.601
			c1.99,0,3.601,1.611,3.601,3.601c0,1.986-1.611,3.598-3.601,3.598C158.05,738.065,156.439,736.453,156.439,734.467z"/>
		<path fill="#166397" stroke="#AEC7E8" stroke-miterlimit="10" d="M-589.171,397.51c0-1.986,1.611-3.598,3.599-3.598
			s3.599,1.611,3.599,3.598c0,1.99-1.611,3.601-3.599,3.601S-589.171,399.499-589.171,397.51z"/>
		<path fill="#18689E" stroke="#AEC7E8" stroke-miterlimit="10" d="M444.195-342.006c0-1.988,1.611-3.6,3.599-3.6
			c1.988,0,3.599,1.612,3.599,3.6c0,1.988-1.611,3.6-3.599,3.6C445.807-338.406,444.195-340.018,444.195-342.006z"/>
		<path fill="#1A6DA5" stroke="#AEC7E8" stroke-miterlimit="10" d="M441.013-333.374c0-1.988,1.611-3.6,3.599-3.6
			c1.988,0,3.601,1.612,3.601,3.6c0,1.988-1.613,3.6-3.601,3.6C442.624-329.774,441.013-331.386,441.013-333.374z"/>
		<path fill="#1A6DA5" stroke="#AEC7E8" stroke-miterlimit="10" d="M-515.961,525.147c0-1.986,1.612-3.601,3.599-3.601
			c1.988,0,3.599,1.615,3.599,3.601c0,1.99-1.611,3.601-3.599,3.601C-514.35,528.748-515.961,527.136-515.961,525.147z"/>
	</g>
	<g id="tooltipLayer">
		
			<text transform="matrix(1.5867 0 0 1.5867 -928.685 -446.1086)" fill="#FFFFFF" font-family="'Roboto-Regular'" font-size="18.9075">Pad++: a zooming graphical interface for exploring alternate interface physics</text>
		
			<text transform="matrix(1.5867 0 0 1.5867 -1240.5885 196.7987)" fill="#FFFFFF" font-family="'Roboto-Regular'" font-size="18.9075">A focus+context technique based on hyperbolic geometry for visualizing large hierarchies</text>
		
			<text transform="matrix(1.5867 0 0 1.5867 -354.0866 -306.0276)" fill="#FFFFFF" font-family="'Roboto-Regular'" font-size="18.9075">The table lens: merging graphical and symbolic representations in an interactive focus + context visualization for tabular information</text>
		
			<text transform="matrix(1.5867 0 0 1.5867 -234.3254 -516.1299)" fill="#FFFFFF" font-family="'Roboto-Regular'" font-size="5.9897">Ramana Rao</text>
		
			<text transform="matrix(1.5867 0 0 1.5867 -518.5954 567.6228)" fill="#FFFFFF" font-family="'Roboto-Regular'" font-size="6.9834">Marc H. Brown</text>
		
			<text transform="matrix(1.5867 0 0 1.5867 154.0017 676.3672)" fill="#FFFFFF" font-family="'Roboto-Regular'" font-size="18.9075">Ben Shneiderman</text>
		
			<text transform="matrix(1.5867 0 0 1.5867 -591.6768 -301.9989)" fill="#FFFFFF" font-family="'Roboto-Regular'" font-size="8.9707">Jock D. Mackinlay</text>
		
			<text transform="matrix(1.5867 0 0 1.5867 549.681 239.6931)" fill="#FFFFFF" font-family="'Roboto-Regular'" font-size="10.9581">Stuart K. Card</text>
		
			<text transform="matrix(1.5867 0 0 1.5867 588.4446 120.9623)" fill="#FFFFFF" font-family="'Roboto-Regular'" font-size="6.9834">Peter Pirolli</text>
		
			<text transform="matrix(1.5867 0 0 1.5867 -382.1478 682.4117)" fill="#FFFFFF" font-family="'Roboto-Regular'" font-size="6.9834">Benjamin B. Bederson</text>
		
			<text transform="matrix(1.5867 0 0 1.5867 240.4738 -464.4833)" fill="#FFFFFF" font-family="'Roboto-Regular'" font-size="6.9834">Steven F. Roth</text>
		
			<text transform="matrix(1.5867 0 0 1.5867 -245.302 729.3719)" fill="#FFFFFF" font-family="'Roboto-Regular'" font-size="6.9834">Stephen G. Eick</text>
		
			<text transform="matrix(1.5867 0 0 1.5867 -704.0718 -10.9391)" fill="#FFFFFF" font-family="'Roboto-Regular'" font-size="5.9897">George G. Robertson</text>
	</g>
	<g id="freeLayer">
	</g>
	<g id="pinLayer">
	</g>
</g>
</svg>
